<?xml version="1.0" encoding="utf-8"?>
<!-- Generator: Adobe Illustrator 25.2.3, SVG Export Plug-In . SVG Version: 6.00 Build 0)  -->
<svg version="1.1" id="Layer_1" xmlns="http://www.w3.org/2000/svg" xmlns:xlink="http://www.w3.org/1999/xlink" x="0px" y="0px"
	 viewBox="0 0 1650.5 557.91" style="enable-background:new 0 0 1650.5 557.91;" xml:space="preserve">
<style type="text/css">
	.st0{fill:#F5A800;}
	.st1{fill:#FFFFFF;}
	.st2{fill:#221F1F;}
</style>
<g>
	<g>
		<path class="st0" d="M254.33,228.43c0,0-30.34,16.72-40.12,22.86L254.33,228.43z"/>
	</g>
	<g>
		<polygon class="st0" points="345.81,176.35 387.1,153.43 374.73,146.4 333.44,169.32 		"/>
		<path class="st0" d="M367.66,269.29l-18.74-10.68l-155.59-88.6l-20.76,11.79c6.01-2.56,12.78-2.23,18.59,1.08l150.07,85.48
			l14.59,8.31c8.3,4.73,13.42,13.54,13.42,23.09v101.75c0,7.96-4.02,15.65-11.01,19.45l22.63-13.38v-115.6
			C380.85,282.6,375.81,273.94,367.66,269.29"/>
		<path class="st0" d="M427.4,232.27l-39.84-22.64l-124-70.48c-4.94-2.81-10.99-2.81-15.93,0l-4.27,2.43l136.54,77.76l36.99,21.06
			c7.48,4.26,12.1,12.21,12.1,20.82V378.8l3.98-2.46c4.75-2.93,7.64-8.11,7.64-13.69V254.96
			C440.61,246.61,434.66,236.4,427.4,232.27"/>
	</g>
	<g>
		<path class="st0" d="M387.58,256.95l-25.78-14.68l-147.66-84.09l-12.42,7.06l152.39,86.79l22.93,13.06
			c7.48,4.26,12.1,12.21,12.1,20.81v116.72l11.62-6.95V279.63C400.76,270.25,395.73,261.6,387.58,256.95"/>
		<path class="st0" d="M407.51,244.62l-32.81-18.68l-139.74-79.58l-12.41,7.06l144.46,82.27l29.96,17.06
			c7.48,4.26,12.09,12.21,12.09,20.81v117.15l11.62-6.95V267.29C420.69,257.91,415.65,249.26,407.51,244.62"/>
	</g>
	<g>
		<polygon class="st0" points="366.62,188.18 407.92,165.27 395.55,158.23 354.25,181.15 		"/>
		<path class="st0" d="M366.28,141.6l-4.59-2.58c-4.88-2.75-10.84-2.77-15.74-0.05l-33.34,18.52l12.37,7.03L366.28,141.6z"/>
	</g>
	<g>
		<path class="st0" d="M360.93,361.75l-63.32-38.08l-49.56-29.81c-0.11,0.48-0.22,1.04-0.26,1.63c-0.03,0.49-0.04,1.74-0.04,1.74
			v11.09l42.02,25.27l71.15,42.78V361.75z"/>
		<polygon class="st0" points="247.76,318 247.76,332.8 276.71,350.17 360.93,400.69 360.93,386.06 284.6,340.16 		"/>
		<path class="st0" d="M264.55,279.53l-10.45,5.95c-0.63,0.36-1.18,0.83-1.73,1.29l50.42,30.33l58.14,34.97v-14.62L310.6,307.2
			L264.55,279.53z"/>
		<polygon class="st0" points="360.93,317.54 352.42,322.65 360.93,327.76 		"/>
		<polygon class="st0" points="247.76,386.87 247.76,400.63 276.01,383.66 263.83,376.35 249.05,385.23 247.76,386.01 		"/>
		<path class="st0" d="M249.67,409.17c1.1,1.78,2.63,3.31,4.55,4.4c4.05,2.29,8.84,2.23,12.84-0.17l29.26-17.54l-12.25-7.36
			L249.67,409.17z"/>
		<path class="st0" d="M271.53,356.74l-23.77-14.26V357l15.98,9.61l77.87,46.78c3.99,2.4,8.79,2.46,12.85,0.17
			c1.91-1.08,3.41-2.59,4.52-4.36L271.53,356.74z"/>
		<path class="st0" d="M440.1,197.69c-0.88-3.13-2.92-5.83-5.84-7.52c-1.68-0.98-3.49-1.45-5.33-1.61v35.03l7.88,4.48
			c1.38,0.78,2.62,1.73,3.8,2.76v-24.81v-4.82C440.6,199.98,440.42,198.81,440.1,197.69"/>
		<path class="st0" d="M360.93,301.19c0-2.19-0.39-4.33-1.05-6.37L333,310.98l11.36,6.83l16.57-9.95V301.19z"/>
		<path class="st0" d="M344.91,280.02l-24.46,14.7l-7.25,4.35l2.59,1.56l9.16,5.51l30.84-18.54c-1.5-1.73-3.27-3.25-5.32-4.42
			L344.91,280.02z"/>
		<path class="st0" d="M187.91,264.19L187.91,264.19c0-0.14,0.03-0.28,0.03-0.43C187.94,263.91,187.91,264.04,187.91,264.19"/>
		<polygon class="st0" points="409.04,212.28 420.63,218.87 420.63,190.63 409.04,197.23 		"/>
		<polygon class="st0" points="400.74,201.96 395.8,204.77 400.74,207.57 		"/>
		<path class="st0" d="M387.41,199.99l31.12-17.05c5.8-3.31,12.57-3.64,18.58-1.08l-20.76-11.8l-41.29,22.91L387.41,199.99z"/>
		<path class="st0" d="M199.53,277.86v112.67l-11.62-6.95c0,0-0.59-85.66,0-119.38c0.09-5.33,4.62-14.41,9.76-17.48
			c10.64-6.35,44.25-25.35,44.25-25.35l12.41,7.07c0,0-40.32,22.99-40.23,22.93C198.93,258.9,199.53,270.29,199.53,277.86"/>
	</g>
	<g>
		<path class="st0" d="M239.46,402.48l0-5.08c0,0-0.2-74.82-0.08-99.75c0.04-8.93,5.93-16.47,10.63-19.37
			c11.83-7.32,45.91-26.15,45.91-26.15l-12.41-7.07l-42.73,24.34c-8.05,4.59-13.02,13.14-13.02,22.41v115.61l2.59,1.55l19.8,11.84
			C243.45,417.01,239.46,410.16,239.46,402.48"/>
		<path class="st0" d="M233.54,216.58l-12.41-7.07l-39,22.21C173.39,236.71,168,246,168,256.05v52.21v54.27
			c0,5.65,2.97,10.89,7.81,13.79l3.81,2.28V260.99c0-8.46,4.54-16.28,11.9-20.47L233.54,216.58z"/>
		<polygon class="st0" points="247.76,376.32 255.78,371.5 247.76,366.69 		"/>
		<path class="st0" d="M179.61,223.61v-35.06c-1.82,0.16-3.62,0.63-5.28,1.6c-3.97,2.31-6.34,6.43-6.34,11.02v30.38
			c1.87-1.92,3.99-3.6,6.38-4.96L179.61,223.61z"/>
	</g>
	<g>
		<polygon class="st0" points="207.83,207.54 212.74,204.74 207.83,201.94 		"/>
		<polygon class="st0" points="187.91,190.6 187.91,218.89 199.53,212.27 199.53,197.22 		"/>
		<path class="st0" d="M234.09,263.61l0.04,0.01l40.99-23.36l-12.41-7.07l-15.9,9.06l-0.02-0.02l-25.78,14.68
			c-0.14,0.08-0.26,0.18-0.39,0.26l-2.09,1.39c-6.66,4.88-10.7,12.65-10.7,21.03v116.04l11.62,6.94v-0.14V288.87v-3
			c0-8.61,4.62-16.55,12.1-20.82L234.09,263.61z"/>
	</g>
	<g>
		<g>
			<path class="st1" d="M651.54,233.84c0,18.81-6.01,31.35-19.59,39.45v1.05c16.72,6.01,26.65,21.68,26.65,45.2
				c0,32.92-24.56,50.95-58.79,50.95h-74.2c-6.53,0-8.89-2.35-8.89-8.89V193.87c0-6.53,2.36-8.89,8.89-8.89h72.63
				C631.69,184.98,651.54,202.49,651.54,233.84z M594.32,215.56h-44.68v45.98h44.68c15.68,0,24.04-7.32,24.04-23
				C618.36,223.13,610,215.56,594.32,215.56z M599.03,291.32h-49.38v48.6h49.38c16.2,0,25.09-8.1,25.09-24.04
				C624.11,299.94,615.23,291.32,599.03,291.32z"/>
			<path class="st1" d="M749.28,181.33c38.41,0,61.14,15.42,71.07,43.64c2.09,6.27,0.52,9.14-5.49,11.49l-14.37,4.97
				c-6.54,1.83-8.89,1.04-11.24-5.49c-6.01-15.94-18.28-24.04-39.97-24.04c-27.17,0-41.8,13.07-41.8,37.11v57.22
				c0,24.04,14.89,37.36,41.8,37.36c21.95,0,34.23-8.36,39.97-24.29c2.36-6.54,5.23-7.84,11.5-5.49l14.11,4.96
				c6.27,2.36,7.84,5.23,5.49,11.5c-9.67,28.22-32.4,43.9-71.07,43.9c-48.07,0-74.72-26.13-74.72-68.2v-56.7
				C674.56,207.46,701.21,181.33,749.28,181.33z"/>
		</g>
		<g>
			<path class="st1" d="M1024.17,193.87v12.8c0,6.53-2.08,8.89-8.88,8.89h-44.94v146.05c0,6.54-2.36,8.89-8.89,8.89h-15.15
				c-6.53,0-8.89-2.35-8.89-8.89V215.56h-44.94c-6.53,0-8.88-2.36-8.88-8.89v-12.8c0-6.53,2.35-8.89,8.88-8.89h122.81
				C1022.09,184.98,1024.17,187.34,1024.17,193.87z"/>
			<path class="st1" d="M1161.36,193.87v12.8c0,6.53-2.09,8.89-8.89,8.89h-80.21v45.72h67.67c6.79,0,8.89,2.36,8.89,8.89v12.8
				c0,6.53-2.09,8.89-8.89,8.89h-67.67v48.07h83.09c6.53,0,8.89,2.35,8.89,8.88v12.8c0,6.54-2.36,8.89-8.89,8.89h-106.86
				c-6.53,0-8.89-2.35-8.89-8.89V193.87c0-6.53,2.36-8.89,8.89-8.89h103.98C1159.27,184.98,1161.36,187.34,1161.36,193.87z"/>
		</g>
		<g>
			<path class="st1" d="M1250.22,181.33c38.41,0,61.14,15.42,71.07,43.64c2.09,6.27,0.52,9.14-5.49,11.49l-14.37,4.97
				c-6.54,1.83-8.89,1.04-11.24-5.49c-6.01-15.94-18.28-24.04-39.97-24.04c-27.17,0-41.8,13.07-41.8,37.11v57.22
				c0,24.04,14.89,37.36,41.8,37.36c21.95,0,34.23-8.36,39.97-24.29c2.36-6.54,5.23-7.84,11.5-5.49l14.11,4.96
				c6.27,2.36,7.84,5.23,5.49,11.5c-9.67,28.22-32.4,43.9-71.07,43.9c-48.07,0-74.72-26.13-74.72-68.2v-56.7
				C1175.49,207.46,1202.14,181.33,1250.22,181.33z"/>
			<path class="st1" d="M1482.51,193.87v167.74c0,6.54-2.08,8.89-8.88,8.89h-14.9c-6.79,0-8.89-2.35-8.89-8.89v-69.76h-77.6v69.76
				c0,6.54-2.09,8.89-8.89,8.89h-14.89c-6.53,0-8.89-2.35-8.89-8.89V193.87c0-6.53,2.36-8.89,8.89-8.89h14.89
				c6.79,0,8.89,2.36,8.89,8.89v67.41h77.6v-67.41c0-6.53,2.09-8.89,8.89-8.89h14.9C1480.43,184.98,1482.51,187.34,1482.51,193.87z"
				/>
		</g>
	</g>
</g>
</svg>
