<svg xmlns="http://www.w3.org/2000/svg" viewBox="0 0 789.38 354.95"><defs><style>.cls-1{fill:#fff;}</style></defs><title>Asset 2</title><g id="Layer_2" data-name="Layer 2"><g id="Layer_1-2" data-name="Layer 1"><path class="cls-1" d="M0,16.2A16.2,16.2,0,1,1,16.21,32.4,16.22,16.22,0,0,1,0,16.2M499.26,95.54A81.71,81.71,0,0,0,441.7,119V20.35a4.54,4.54,0,0,0-4.54-4.54H419.9a4.54,4.54,0,0,0-4.54,4.54v231a4.54,4.54,0,0,0,4.54,4.54h17.26a4.54,4.54,0,0,0,4.54-4.54V237.17a81.71,81.71,0,0,0,57.56,23.47,82.55,82.55,0,1,0,0-165.1m0,139.93a57.38,57.38,0,1,1,57.38-57.38,57.44,57.44,0,0,1-57.38,57.38M383,100.07v16.1a4.54,4.54,0,0,1-4.54,4.54,57.44,57.44,0,0,0-57.38,57.38,4.51,4.51,0,0,1-.18,1.28v71.94a4.54,4.54,0,0,1-4.54,4.54H299.1a4.54,4.54,0,0,1-4.54-4.54V104.87a4.54,4.54,0,0,1,4.54-4.54h17.26a4.54,4.54,0,0,1,4.54,4.54V119a81.71,81.71,0,0,1,57.56-23.47,4.54,4.54,0,0,1,4.54,4.54"/><path class="cls-1" d="M641.18,104.22V250.66a4.54,4.54,0,0,1-4.54,4.54H619.27a4.54,4.54,0,0,1-4.54-4.54V104.22a4.54,4.54,0,0,1,4.54-4.54h17.37a4.54,4.54,0,0,1,4.54,4.54"/><path class="cls-1" d="M789.38,213.43c0,14.24-5.81,25.74-17.27,34.2-11,8.14-25.89,12.27-44.17,12.27a103.88,103.88,0,0,1-28.81-4.07c-9.47-2.74-17.32-6.41-23.33-10.91A4.54,4.54,0,0,1,674,240.6l2.4-15.87a4.54,4.54,0,0,1,7.14-3A74.13,74.13,0,0,0,704.75,232a77.8,77.8,0,0,0,23.2,3.83c11.23,0,20.13-2.07,26.43-6.16,5.77-3.73,8.57-8.76,8.57-15.36,0-4.52-.94-8-2.78-10.39-2-2.6-5.7-5.13-10.89-7.5a243.06,243.06,0,0,0-25.1-9.24c-16.61-5.25-28.24-11.35-35.51-18.63-7.54-7.53-11.36-17.33-11.36-29.11,0-13.59,5.27-24.61,15.66-32.77,10.06-7.9,23.64-11.9,40.39-11.9A98.38,98.38,0,0,1,758,98.08a84.7,84.7,0,0,1,22.31,9,4.53,4.53,0,0,1,2.13,4.68l-2.69,15.27a4.54,4.54,0,0,1-6.89,3,72.1,72.1,0,0,0-18.88-8.3,76.74,76.74,0,0,0-20.92-3c-10,0-17.67,1.84-22.85,5.47A15.62,15.62,0,0,0,703.13,138c0,5.86,2,10.41,6.07,13.93,4.56,3.94,12.9,7.66,24.78,11,20,5.63,33.81,12,42.19,19.38,8.76,7.76,13.21,18.22,13.21,31.1"/><path class="cls-1" d="M138,13.73a124,124,0,1,0,124,124A124.15,124.15,0,0,0,138,13.73Zm84,68.5H186.62C181.38,64.47,173.69,50,164.39,40.51A101.1,101.1,0,0,1,222.06,82.23ZM146.53,238.11q-2,.17-4.12.26V193.25h35.23C170.6,216.13,159.38,232.9,146.53,238.11ZM98.46,193.25h35.23v45.12q-2.07-.09-4.12-.26C116.72,232.9,105.5,216.13,98.46,193.25Zm44-111v-45c14.34,3,27.06,20.3,34.89,45ZM179.78,91a192.57,192.57,0,0,1,5.61,42.42h-43V91ZM133.68,37.21v45H98.8C106.62,57.51,119.34,40.17,133.68,37.21Zm0,53.75v42.42h-43A192.58,192.58,0,0,1,96.32,91ZM82,133.37H37.42A100,100,0,0,1,48.86,91H87.17A204.4,204.4,0,0,0,82,133.37Zm0,8.73a205.9,205.9,0,0,0,5,42.41H48.86A100,100,0,0,1,37.42,142.1Zm8.73,0h43v42.41H96A193.76,193.76,0,0,1,90.69,142.1Zm51.72,42.41V142.1h43a193.75,193.75,0,0,1-5.35,42.41Zm51.73-42.41h44.54a100,100,0,0,1-11.44,42.41H189.19A205.88,205.88,0,0,0,194.14,142.1Zm0-8.73A204.4,204.4,0,0,0,188.93,91h38.31a100,100,0,0,1,11.44,42.42ZM111.71,40.51c-9.3,9.51-17,24-22.22,41.72H54A101.1,101.1,0,0,1,111.71,40.51ZM54,193.25H89.16c5,17.35,12.28,31.63,21.14,41.33A101.13,101.13,0,0,1,54,193.25ZM165.8,234.58c8.86-9.7,16.16-24,21.14-41.33h35.13A101.13,101.13,0,0,1,165.8,234.58Z"/><rect class="cls-1" x="158.91" y="303.16" width="9.24" height="42"/><path class="cls-1" d="M196.54,345.17V327.22c0-4.32-2-6.54-5.52-6.54s-5.7,2.22-5.7,6.54v17.94H176.2V313h9.12v4.56c2.1-2.7,4.8-5.16,9.42-5.16,6.9,0,10.92,4.56,10.92,11.94v20.82Z"/><polygon class="cls-1" points="228.81 345.41 220.52 345.41 207.86 313 217.52 313 224.72 334.55 231.99 313 241.47 313 228.81 345.41"/><path class="cls-1" d="M257.89,319.72c-3.78,0-6.24,2.7-7,6.84h13.74c-.54-4.08-2.94-6.84-6.78-6.84m15.54,12.54H251a7.46,7.46,0,0,0,7.86,6.3,10.54,10.54,0,0,0,7.8-3.3l5.22,4.62a16.09,16.09,0,0,1-13.14,6c-9.66,0-16.8-6.78-16.8-16.62v-.12c0-9.18,6.54-16.74,15.9-16.74,10.74,0,15.66,8.34,15.66,17.46V330c0,.9-.06,1.44-.12,2.28"/><path class="cls-1" d="M289.79,345.77a22.53,22.53,0,0,1-13.8-4.86l3.9-6c3.48,2.52,7.14,3.84,10.14,3.84,2.64,0,3.84-1,3.84-2.4v-.12c0-2-3.12-2.64-6.66-3.72-4.5-1.32-9.6-3.42-9.6-9.66v-.12c0-6.54,5.28-10.2,11.76-10.2a22.27,22.27,0,0,1,12,3.72l-3.48,6.3c-3.18-1.86-6.36-3-8.7-3s-3.36,1-3.36,2.22v.12c0,1.8,3.06,2.64,6.54,3.84,4.5,1.5,9.72,3.66,9.72,9.54v.12c0,7.14-5.34,10.38-12.3,10.38"/><path class="cls-1" d="M317.85,345.71c-5.58,0-9.36-2.22-9.36-9.66V320.8h-3.84V313h3.84v-8.22h9.12V313h7.56v7.8h-7.56v13.74c0,2.1.9,3.12,2.94,3.12a9.27,9.27,0,0,0,4.5-1.14v7.32a13.44,13.44,0,0,1-7.2,1.86"/><path class="cls-1" d="M377.5,324.16c0-7.44-5.1-12.66-12.66-12.66H357.7v25.32h7.14c7.56,0,12.66-5.1,12.66-12.54Zm-12.66,21H348.45v-42h16.38c13.2,0,22.32,9.06,22.32,20.88v.12c0,11.82-9.12,21-22.32,21"/><path class="cls-1" d="M393.45,313h9.12v32.16h-9.12Zm-.24-11.64h9.6v8.1h-9.6Z"/><path class="cls-1" d="M423.51,308.62c-2.1,0-3.3,1.08-3.3,3.48v1.26h7.38v7.44h-7.26v24.36h-9.12V320.8h-3.78v-7.5h3.78v-2c0-7.08,3.54-10.32,10-10.32a20.21,20.21,0,0,1,6.48.9v7.56a11.57,11.57,0,0,0-4.14-.78"/><path class="cls-1" d="M445.85,308.62c-2.1,0-3.3,1.08-3.3,3.48v1.26h7.38v7.44h-7.26v24.36h-9.12V320.8h-3.78v-7.5h3.78v-2c0-7.08,3.54-10.32,10-10.32a20.21,20.21,0,0,1,6.48.9v7.56a11.57,11.57,0,0,0-4.14-.78"/><path class="cls-1" d="M467.57,319.72c-3.78,0-6.24,2.7-7,6.84h13.74c-.54-4.08-2.94-6.84-6.78-6.84m15.54,12.54H460.73a7.46,7.46,0,0,0,7.86,6.3,10.54,10.54,0,0,0,7.8-3.3l5.22,4.62a16.09,16.09,0,0,1-13.14,6c-9.66,0-16.8-6.78-16.8-16.62v-.12c0-9.18,6.54-16.74,15.9-16.74,10.74,0,15.66,8.34,15.66,17.46V330c0,.9-.06,1.44-.12,2.28"/><path class="cls-1" d="M507.4,321.94c-6.06,0-9.78,3.66-9.78,11.34v11.88H488.5V313h9.12v6.48c1.86-4.44,4.86-7.32,10.26-7.08v9.54Z"/><path class="cls-1" d="M526.08,319.72c-3.78,0-6.24,2.7-7,6.84h13.74c-.54-4.08-2.94-6.84-6.78-6.84m15.54,12.54H519.24a7.46,7.46,0,0,0,7.86,6.3,10.54,10.54,0,0,0,7.8-3.3l5.22,4.62a16.09,16.09,0,0,1-13.14,6c-9.66,0-16.8-6.78-16.8-16.62v-.12c0-9.18,6.54-16.74,15.9-16.74,10.74,0,15.66,8.34,15.66,17.46V330c0,.9-.06,1.44-.12,2.28"/><path class="cls-1" d="M567.35,345.17V327.22c0-4.32-2-6.54-5.52-6.54s-5.7,2.22-5.7,6.54v17.94H547V313h9.12v4.56c2.1-2.7,4.8-5.16,9.42-5.16,6.9,0,10.92,4.56,10.92,11.94v20.82Z"/><path class="cls-1" d="M593.69,345.71c-5.58,0-9.36-2.22-9.36-9.66V320.8h-3.84V313h3.84v-8.22h9.12V313H601v7.8h-7.56v13.74c0,2.1.9,3.12,2.94,3.12a9.27,9.27,0,0,0,4.5-1.14v7.32a13.44,13.44,0,0,1-7.2,1.86"/><rect class="cls-1" x="606.99" y="301.36" width="9.12" height="43.8"/><path class="cls-1" d="M640.78,345.95c-2.46,6.54-5.1,9-10.56,9a15.11,15.11,0,0,1-8.1-2.22l3.06-6.6a8.3,8.3,0,0,0,3.9,1.26,3,3,0,0,0,3.18-2.1L619.66,313h9.66l7.32,21.9,7-21.9h9.48Z"/></g></g></svg>