<svg width="322" height="160" viewBox="0 0 322 160" fill="none" xmlns="http://www.w3.org/2000/svg">
<g clip-path="url(#clip0_400_443)">
<path fill-rule="evenodd" clip-rule="evenodd" d="M0.991821 159.25H162.888L321.325 0.783997H0.991821L0.991821 159.25Z" fill="url(#paint0_linear_400_443)"/>
<path fill-rule="evenodd" clip-rule="evenodd" d="M191.095 32.4772H159.458L159.563 106.886L132.015 32.449H104.699L81.1827 94.6134C78.6824 78.795 62.3288 73.3368 49.4613 69.2483C40.964 66.5192 31.9456 62.5047 32.0371 58.0677C32.1076 54.4265 36.8615 51.0494 46.3096 51.553C52.6483 51.8946 58.2474 52.4052 69.3858 57.786L80.3375 38.6996C70.1816 33.5301 56.138 30.2657 44.6228 30.2552H44.5524C31.1251 30.2552 19.9444 34.6042 13.0142 41.7703C8.18274 46.7708 5.57686 53.1306 5.47122 60.163C5.29514 69.8399 8.84126 76.6997 16.2927 82.1827C22.589 86.7958 30.6426 89.789 37.7384 91.9864C46.4892 94.6979 53.6378 97.0573 53.5498 102.079C53.4793 103.91 52.7891 105.622 51.4721 107.002C49.2888 109.256 45.9434 110.101 41.3127 110.192C32.3787 110.383 25.7584 108.977 15.2081 102.741L5.46417 122.074C16.0039 128.067 27.1916 131.075 39.9041 131.075L42.7635 131.054C53.8279 130.853 62.8077 128.201 69.9422 122.461C70.3506 122.134 70.7169 121.803 71.0972 121.468L69.8999 127.638L96.5926 127.553L101.382 115.291C106.417 117.01 112.143 117.961 118.221 117.961C124.145 117.961 129.715 117.059 134.656 115.439L137.994 127.553L185.886 127.599L186.003 99.6456H196.194C220.826 99.6456 235.388 87.1092 235.388 66.0861C235.38 42.6718 221.224 32.4737 191.095 32.4737L191.095 32.4772ZM118.221 96.0819C114.541 96.0819 111.09 95.441 108.122 94.3141L118.109 62.7794H118.302L128.127 94.4022C125.169 95.4586 121.799 96.0819 118.218 96.0819H118.221ZM192.947 77.964H185.995V52.5495H192.95C202.212 52.5495 209.607 55.6343 209.607 65.093C209.599 74.8827 202.212 77.964 192.95 77.964" fill="white"/>
</g>
<defs>
<linearGradient id="paint0_linear_400_443" x1="161.159" y1="0.783997" x2="161.159" y2="159.253" gradientUnits="userSpaceOnUse">
<stop stop-color="#00AEEF"/>
<stop offset="0.212" stop-color="#0097DC"/>
<stop offset="0.519" stop-color="#007CC5"/>
<stop offset="0.792" stop-color="#006CB8"/>
<stop offset="1" stop-color="#0066B3"/>
</linearGradient>
<clipPath id="clip0_400_443">
<rect width="320.333" height="158.466" fill="white" transform="translate(0.991821 0.783997)"/>
</clipPath>
</defs>
</svg>
