<svg width="568" height="271" viewBox="0 0 568 271" fill="none" xmlns="http://www.w3.org/2000/svg">
<g filter="url(#filter0_d_205_6)">
<path d="M16.8663 129.668H16.9702C26.2106 129.668 32.5518 119.654 36.5367 111.441C36.9641 110.54 37.5069 110.159 37.9343 110.159C38.4772 110.159 38.789 110.668 38.789 111.568V129.668H47.8215C48.3643 129.668 48.6762 130.049 48.6762 130.696V132.498C48.6762 133.145 48.3528 133.526 47.8215 133.526H38.789V162.402C38.789 174.599 39.0085 183.967 45.0263 183.967C47.0707 183.967 48.7917 182.558 49.5425 181.53C50.7206 180.12 51.2635 181.275 50.7206 182.939C49.323 187.178 44.3794 193.854 36.9641 193.854C25.4598 193.854 22.6646 181.911 22.6646 167.923V133.526H16.8547C16.3119 133.526 16 133.145 16 132.498V130.696C16.0116 130.049 16.3234 129.668 16.8663 129.668Z" fill="#EE38B2"/>
<path d="M59.6492 191.163C63.3569 184.556 63.6572 173.329 63.6572 170.245V163.199C63.6572 160.115 63.3569 148.888 59.6492 142.293C58.8522 140.976 58.2516 140.537 59.6492 140.202L77.8643 135.247C78.3609 135.131 78.6612 135.362 78.6612 135.905V143.944C81.6644 138.989 86.8621 135.027 94.6702 135.027C101.277 135.027 107.272 140.525 108.773 145.261C110.575 150.875 106.971 154.721 103.067 154.721C100.965 154.721 98.863 153.728 97.269 151.418C94.6702 147.779 92.2677 141.623 87.2663 141.623C82.8656 141.623 78.6612 146.797 78.6612 154.282V170.245C78.6612 173.329 78.9616 184.556 82.6577 191.163C83.3623 192.479 84.0553 193.253 82.5537 193.253H59.6377C58.2516 193.253 58.8522 192.479 59.6492 191.163Z" fill="#EE38B2"/>
<path d="M115.738 195.413C117.043 195.413 118.337 195.748 119.735 196.51C123.234 198.497 126.538 202.008 129.945 202.008C135.351 202.008 137.153 198.151 139.555 192.988C139.752 192.549 140.052 192.11 140.26 191.555C138.562 187.813 137.361 184.845 133.052 175.154L123.142 152.919C118.637 143.009 116.639 139.162 113.532 137.291C112.931 136.956 113.035 136.517 113.936 136.517H135.951C136.748 136.517 136.552 136.956 136.148 137.291C134.046 138.943 135.051 145.434 136.645 149.396C140.849 160.069 143.344 165.578 147.756 175.812C152.053 166.456 156.465 156.765 157.366 153.693C159.468 147.086 158.671 140.26 155.668 137.626C155.067 137.187 155.264 136.529 156.269 136.529H171.873C172.67 136.529 172.474 137.083 171.677 137.742C168.478 140.271 165.37 145.665 161.767 152.931L140.756 196.072C135.755 206.421 127.554 213.247 119.85 213.247C117.147 213.247 114.445 212.369 111.95 210.602C104.731 205.427 109.039 195.413 115.738 195.413Z" fill="#EE38B2"/>
<path d="M211.896 153.647C211.896 127.889 227.685 109.559 249.897 109.559C266.344 109.559 280.39 119.504 283.324 131.724C285.287 139.752 280.817 144.418 276.024 144.418C272.87 144.418 269.486 142.258 268.077 137.349C265.571 128.49 257.947 114.468 245.75 114.468C233.333 114.468 227.454 128.848 227.454 141.299C227.454 161.305 235.077 184.787 258.49 184.787C266.772 184.787 278.091 179.52 282.665 172.208C283.104 171.492 283.647 171.25 284.086 171.25C284.952 171.25 285.507 172.324 284.952 173.525C281.141 181.795 267.961 197.723 249.885 197.723C227.685 197.735 211.896 179.404 211.896 153.647Z" fill="#EE38B2"/>
<path d="M323.092 170.36L313.898 143.76C312.616 139.913 311.507 136.483 310.502 133.641C306.09 145.677 299.841 163.476 297.173 170.349L323.092 170.36ZM282.827 191.498C286.315 189.476 289.168 184.521 293.673 172.278L309.023 130.003C307.372 126.261 305.708 124.135 303.237 124.135C301.955 124.135 301.955 122.622 303.144 122.622H320.054C320.516 122.622 320.886 122.923 321.071 123.431C323.739 131.516 324.201 133.445 327.689 143.76L337.53 172.278C338.535 175.107 343.686 188.159 348.006 191.498C349.381 192.514 349.565 193.415 348.561 193.415H325.021C323.739 193.415 323.646 192.907 324.651 191.994C327.412 189.164 327.504 183.505 324.097 173.386H296.145C293.292 182.592 294.77 188.552 299.275 191.994C300.106 192.606 300.106 193.415 298.813 193.415H282.365C281.36 193.415 281.36 192.41 282.827 191.498Z" fill="#EE38B2"/>
<path d="M338.65 143.656V124.84C338.65 123.419 339.112 122.611 340.302 122.611H393.434C394.624 122.611 395.086 123.419 395.086 124.84V143.656C395.086 144.268 394.901 144.464 394.624 144.464C394.347 144.464 394.069 144.268 393.7 143.355C391.401 137.592 387.728 125.66 373.752 125.66V172.278C373.752 175.107 374.029 185.422 377.425 191.498C378.072 192.71 378.707 193.415 377.333 193.415H356.276C354.994 193.415 355.537 192.71 356.276 191.498C359.672 185.434 359.949 175.119 359.949 172.278V125.66C345.973 125.66 342.3 137.592 340.002 143.355C339.632 144.268 339.355 144.464 339.078 144.464C338.835 144.464 338.65 144.268 338.65 143.656Z" fill="#EE38B2"/>
<path d="M398.112 158.024C398.112 136.286 411.441 120.809 430.199 120.809C444.083 120.809 455.945 129.206 458.417 139.521C460.069 146.301 456.303 150.239 452.261 150.239C449.592 150.239 446.739 148.414 445.55 144.268C443.436 136.783 437.002 124.955 426.699 124.955C416.223 124.955 411.257 137.095 411.257 147.606C411.257 164.493 417.69 184.313 437.453 184.313C444.441 184.313 454.005 179.866 457.863 173.698C458.232 173.086 458.694 172.89 459.052 172.89C459.792 172.89 460.242 173.802 459.791 174.807C456.569 181.784 445.446 195.24 430.188 195.24C411.441 195.24 398.112 179.762 398.112 158.024Z" fill="#EE38B2"/>
<path d="M461.975 122.622H483.031C484.406 122.622 483.77 123.327 483.123 124.54C479.728 130.604 479.45 140.918 479.45 143.76V156.5H507.033V143.76C507.033 140.93 506.756 130.615 503.36 124.54C502.621 123.327 501.985 122.622 503.36 122.622H524.416C525.791 122.622 525.156 123.327 524.509 124.54C521.101 130.604 520.836 140.918 520.836 143.76V172.278C520.836 175.107 521.113 185.422 524.509 191.498C525.156 192.71 525.791 193.415 524.416 193.415H503.36C501.985 193.415 502.621 192.71 503.36 191.498C506.756 185.434 507.033 175.119 507.033 172.278V159.537H479.45V172.278C479.45 175.107 479.728 185.422 483.123 191.498C483.77 192.71 484.406 193.415 483.031 193.415H461.975C460.6 193.415 461.235 192.71 461.975 191.498C465.37 185.434 465.648 175.119 465.648 172.278V143.76C465.648 140.93 465.37 130.615 461.975 124.54C461.235 123.327 460.589 122.622 461.975 122.622Z" fill="#EE38B2"/>
<path d="M205.741 113.178L168.245 192.128C167.972 192.704 168.217 193.393 168.793 193.667L170.88 194.658C171.456 194.932 172.145 194.687 172.419 194.11L209.914 115.16C210.188 114.584 209.943 113.895 209.367 113.621L207.28 112.63C206.704 112.356 206.015 112.602 205.741 113.178Z" fill="#EE38B2"/>
<path d="M551.279 179.178L551.279 194.007L546.711 194.007C546.087 194.007 545.5 193.888 544.951 193.65C544.393 193.405 543.911 193.078 543.502 192.67C543.086 192.254 542.759 191.771 542.522 191.222C542.277 190.664 542.154 190.07 542.154 189.439L542.154 183.734C542.154 183.422 542.095 183.129 541.976 182.854C541.857 182.572 541.694 182.331 541.486 182.13C541.278 181.922 541.036 181.759 540.761 181.64C540.479 181.514 540.182 181.45 539.87 181.45C539.558 181.45 539.265 181.514 538.99 181.64C538.708 181.759 538.462 181.922 538.254 182.13C538.047 182.331 537.883 182.572 537.764 182.854C537.645 183.129 537.586 183.422 537.586 183.734L537.586 192.859L535.302 192.859L535.302 183.734C535.302 183.111 535.425 182.524 535.67 181.974C535.907 181.417 536.234 180.934 536.65 180.526C537.059 180.11 537.541 179.783 538.099 179.545C538.656 179.3 539.246 179.178 539.87 179.178C540.494 179.178 541.084 179.3 541.642 179.545C542.199 179.783 542.685 180.11 543.101 180.526C543.51 180.934 543.836 181.417 544.082 181.974C544.319 182.524 544.438 183.111 544.438 183.734L544.438 189.439C544.438 189.751 544.497 190.048 544.616 190.33C544.735 190.612 544.899 190.858 545.107 191.066C545.315 191.274 545.556 191.441 545.831 191.567C546.106 191.686 546.399 191.745 546.711 191.745L548.995 191.745L548.995 179.178L551.279 179.178ZM543.29 158.499C544.397 158.499 545.437 158.677 546.41 159.034C547.383 159.383 548.23 159.88 548.95 160.527C549.671 161.165 550.239 161.938 550.655 162.844C551.071 163.743 551.279 164.742 551.279 165.841L551.279 169.562C551.279 170.669 551.071 171.676 550.655 172.582C550.239 173.488 549.671 174.264 548.95 174.91C548.23 175.549 547.383 176.043 546.41 176.392C545.437 176.741 544.397 176.916 543.29 176.916C542.191 176.916 541.159 176.741 540.193 176.392C539.22 176.043 538.373 175.549 537.653 174.91C536.925 174.264 536.353 173.488 535.937 172.582C535.514 171.676 535.302 170.669 535.302 169.562L535.302 165.841C535.302 164.742 535.514 163.743 535.937 162.844C536.353 161.938 536.925 161.165 537.653 160.527C538.373 159.88 539.22 159.383 540.193 159.034C541.159 158.677 542.191 158.499 543.29 158.499ZM543.29 160.783C542.503 160.783 541.764 160.902 541.073 161.139C540.383 161.37 539.781 161.704 539.268 162.142C538.748 162.573 538.34 163.1 538.043 163.724C537.738 164.348 537.586 165.054 537.586 165.841L537.586 169.562C537.586 170.35 537.738 171.059 538.043 171.69C538.34 172.314 538.748 172.845 539.268 173.284C539.781 173.714 540.383 174.049 541.073 174.286C541.764 174.517 542.503 174.632 543.29 174.632C544.078 174.632 544.821 174.517 545.519 174.286C546.21 174.049 546.815 173.714 547.335 173.284C547.847 172.845 548.252 172.314 548.549 171.69C548.846 171.059 548.995 170.35 548.995 169.562L548.995 165.841C548.995 165.054 548.846 164.348 548.549 163.724C548.252 163.1 547.847 162.573 547.335 162.142C546.815 161.704 546.21 161.37 545.519 161.139C544.821 160.902 544.078 160.783 543.29 160.783ZM551.279 141.564L551.279 156.393L546.711 156.393C546.087 156.393 545.5 156.274 544.951 156.037C544.393 155.791 543.911 155.465 543.502 155.056C543.086 154.64 542.759 154.157 542.522 153.608C542.277 153.051 542.154 152.456 542.154 151.825L542.154 146.121C542.154 145.809 542.095 145.515 541.976 145.24C541.857 144.958 541.694 144.717 541.486 144.516C541.278 144.308 541.036 144.145 540.761 144.026C540.479 143.9 540.182 143.837 539.87 143.837C539.558 143.837 539.265 143.9 538.99 144.026C538.708 144.145 538.462 144.308 538.254 144.516C538.047 144.717 537.883 144.958 537.764 145.24C537.645 145.515 537.586 145.809 537.586 146.121L537.586 155.246L535.302 155.246L535.302 146.121C535.302 145.497 535.425 144.91 535.67 144.36C535.907 143.803 536.234 143.32 536.65 142.912C537.059 142.496 537.541 142.169 538.099 141.931C538.656 141.686 539.246 141.564 539.87 141.564C540.494 141.564 541.084 141.686 541.642 141.931C542.199 142.169 542.685 142.496 543.101 142.912C543.51 143.32 543.836 143.803 544.082 144.36C544.319 144.91 544.438 145.497 544.438 146.121L544.438 151.825C544.438 152.137 544.497 152.434 544.616 152.716C544.735 152.999 544.899 153.244 545.107 153.452C545.314 153.66 545.556 153.827 545.831 153.953C546.106 154.072 546.399 154.131 546.711 154.131L548.995 154.131L548.995 141.564L551.279 141.564ZM539.87 124.417C540.561 124.417 541.2 124.562 541.786 124.851C542.373 125.134 542.875 125.516 543.29 125.999C543.714 125.516 544.223 125.134 544.817 124.851C545.404 124.562 546.035 124.417 546.711 124.417C547.342 124.417 547.936 124.54 548.494 124.785C549.043 125.022 549.526 125.349 549.942 125.765C550.35 126.174 550.677 126.656 550.922 127.213C551.16 127.771 551.279 128.361 551.279 128.985L551.279 139.257L548.995 139.257L548.995 128.985C548.995 128.673 548.935 128.38 548.817 128.105C548.698 127.823 548.534 127.577 548.326 127.369C548.118 127.161 547.877 126.998 547.602 126.879C547.32 126.76 547.023 126.701 546.711 126.701C546.399 126.701 546.106 126.76 545.831 126.879C545.556 126.998 545.314 127.161 545.107 127.369C544.899 127.577 544.735 127.823 544.616 128.105C544.497 128.38 544.438 128.673 544.438 128.985L544.438 136.383L542.154 136.383L542.154 128.985C542.154 128.673 542.095 128.38 541.976 128.105C541.857 127.823 541.694 127.577 541.486 127.369C541.278 127.161 541.036 126.998 540.761 126.879C540.479 126.76 540.182 126.701 539.87 126.701C539.558 126.701 539.265 126.76 538.99 126.879C538.708 126.998 538.462 127.161 538.254 127.369C538.047 127.577 537.883 127.823 537.764 128.105C537.645 128.38 537.586 128.673 537.586 128.985L537.586 139.257L535.302 139.257L535.302 128.985C535.302 128.361 535.425 127.771 535.67 127.213C535.907 126.656 536.234 126.174 536.65 125.765C537.059 125.349 537.541 125.022 538.099 124.785C538.656 124.54 539.246 124.417 539.87 124.417Z" fill="#89005B"/>
<path d="M551.279 179.178L551.856 179.178L551.856 178.6L551.279 178.6L551.279 179.178ZM551.279 194.007L551.279 194.584L551.856 194.584L551.856 194.007L551.279 194.007ZM544.951 193.65L544.718 194.179L544.721 194.18L544.951 193.65ZM543.502 192.67L543.911 192.262L543.502 192.67ZM542.522 191.222L543.052 190.992L543.05 190.989L542.522 191.222ZM541.976 182.854L541.443 183.078L541.446 183.083L541.976 182.854ZM541.486 182.13L541.077 182.538L541.085 182.546L541.486 182.13ZM540.761 181.64L540.525 182.167L540.532 182.17L540.761 181.64ZM538.99 181.64L539.214 182.172L539.223 182.168L539.231 182.165L538.99 181.64ZM538.254 182.13L538.655 182.546L538.663 182.538L538.254 182.13ZM537.764 182.854L538.294 183.083L538.297 183.078L537.764 182.854ZM537.586 192.859L537.586 193.437L538.164 193.437L538.164 192.859L537.586 192.859ZM535.302 192.859L534.724 192.859L534.724 193.437L535.302 193.437L535.302 192.859ZM535.67 181.974L536.197 182.209L536.201 182.201L535.67 181.974ZM536.65 180.526L537.055 180.938L537.062 180.93L536.65 180.526ZM538.099 179.545L538.325 180.076L538.331 180.074L538.099 179.545ZM541.642 179.545L541.409 180.074L541.415 180.076L541.642 179.545ZM543.101 180.526L543.509 180.117L543.101 180.526ZM544.082 181.974L544.612 181.745L544.61 181.741L544.082 181.974ZM545.107 191.066L544.698 191.474L545.107 191.066ZM545.831 191.567L545.59 192.092L545.601 192.097L545.831 191.567ZM548.995 191.745L548.995 192.323L549.572 192.323L549.572 191.745L548.995 191.745ZM548.995 179.178L548.995 178.6L548.417 178.6L548.417 179.178L548.995 179.178ZM550.701 179.178L550.701 194.007L551.856 194.007L551.856 179.178L550.701 179.178ZM551.279 193.429L546.711 193.429L546.711 194.584L551.279 194.584L551.279 193.429ZM546.711 193.429C546.162 193.429 545.654 193.325 545.18 193.12L544.721 194.18C545.346 194.451 546.012 194.584 546.711 194.584L546.711 193.429ZM545.183 193.122C544.688 192.904 544.266 192.617 543.911 192.262L543.094 193.078C543.556 193.54 544.099 193.907 544.718 194.179L545.183 193.122ZM543.911 192.262C543.547 191.898 543.261 191.476 543.052 190.992L541.992 191.451C542.258 192.066 542.625 192.61 543.094 193.078L543.911 192.262ZM543.05 190.989C542.839 190.508 542.732 189.993 542.732 189.439L541.576 189.439C541.576 190.147 541.715 190.821 541.993 191.454L543.05 190.989ZM542.732 189.439L542.732 183.734L541.576 183.734L541.576 189.439L542.732 189.439ZM542.732 183.734C542.732 183.347 542.657 182.975 542.506 182.625L541.446 183.083C541.532 183.283 541.576 183.498 541.576 183.734L542.732 183.734ZM542.508 182.63C542.361 182.28 542.154 181.972 541.886 181.714L541.085 182.546C541.233 182.689 541.353 182.864 541.443 183.078L542.508 182.63ZM541.894 181.722C541.633 181.461 541.331 181.257 540.991 181.11L540.532 182.17C540.741 182.26 540.922 182.383 541.077 182.538L541.894 181.722ZM540.997 181.113C540.64 180.953 540.263 180.873 539.87 180.873L539.87 182.028C540.101 182.028 540.318 182.074 540.525 182.167L540.997 181.113ZM539.87 180.873C539.478 180.873 539.102 180.953 538.749 181.115L539.231 182.165C539.428 182.074 539.639 182.028 539.87 182.028L539.87 180.873ZM538.766 181.108C538.418 181.254 538.109 181.459 537.846 181.722L538.663 182.538C538.816 182.385 538.998 182.263 539.214 182.172L538.766 181.108ZM537.854 181.714C537.586 181.972 537.379 182.28 537.232 182.63L538.297 183.078C538.387 182.864 538.507 182.689 538.655 182.546L537.854 181.714ZM537.234 182.625C537.083 182.975 537.008 183.347 537.008 183.734L538.164 183.734C538.164 183.498 538.208 183.283 538.294 183.083L537.234 182.625ZM537.008 183.734L537.008 192.859L538.164 192.859L538.164 183.734L537.008 183.734ZM537.586 192.282L535.302 192.282L535.302 193.437L537.586 193.437L537.586 192.282ZM535.88 192.859L535.88 183.734L534.724 183.734L534.724 192.859L535.88 192.859ZM535.88 183.734C535.88 183.189 535.986 182.682 536.197 182.209L535.142 181.739C534.863 182.365 534.724 183.033 534.724 183.734L535.88 183.734ZM536.201 182.201C536.41 181.71 536.695 181.291 537.055 180.938L536.245 180.114C535.774 180.577 535.405 181.124 535.138 181.747L536.201 182.201ZM537.062 180.93C537.416 180.57 537.835 180.286 538.325 180.076L537.872 179.014C537.248 179.28 536.702 179.649 536.238 180.121L537.062 180.93ZM538.331 180.074C538.813 179.862 539.324 179.755 539.87 179.755L539.87 178.6C539.168 178.6 538.498 178.738 537.866 179.017L538.331 180.074ZM539.87 179.755C540.416 179.755 540.927 179.862 541.409 180.074L541.874 179.017C541.242 178.738 540.572 178.6 539.87 178.6L539.87 179.755ZM541.415 180.076C541.906 180.286 542.33 180.572 542.693 180.934L543.509 180.117C543.04 179.648 542.491 179.28 541.868 179.014L541.415 180.076ZM542.693 180.934C543.048 181.289 543.335 181.712 543.553 182.207L544.61 181.741C544.338 181.122 543.971 180.579 543.509 180.117L542.693 180.934ZM543.551 182.203C543.757 182.678 543.861 183.186 543.861 183.734L545.016 183.734C545.016 183.035 544.882 182.37 544.612 181.745L543.551 182.203ZM543.861 183.734L543.861 189.439L545.016 189.439L545.016 183.734L543.861 183.734ZM543.861 189.439C543.861 189.826 543.935 190.2 544.084 190.554L545.149 190.106C545.06 189.896 545.016 189.675 545.016 189.439L543.861 189.439ZM544.084 190.554C544.231 190.903 544.435 191.211 544.698 191.474L545.515 190.657C545.362 190.504 545.24 190.322 545.149 190.106L544.084 190.554ZM544.698 191.474C544.956 191.732 545.254 191.938 545.59 192.092L546.072 191.042C545.857 190.944 545.673 190.815 545.515 190.657L544.698 191.474ZM545.601 192.097C545.952 192.248 546.323 192.323 546.711 192.323L546.711 191.168C546.474 191.168 546.259 191.123 546.06 191.037L545.601 192.097ZM546.711 192.323L548.995 192.323L548.995 191.168L546.711 191.168L546.711 192.323ZM549.572 191.745L549.572 179.178L548.417 179.178L548.417 191.745L549.572 191.745ZM548.995 179.755L551.279 179.755L551.279 178.6L548.995 178.6L548.995 179.755ZM546.41 159.034L546.211 159.576L546.215 159.577L546.41 159.034ZM548.95 160.527L548.565 160.957L548.567 160.959L548.95 160.527ZM550.655 162.844L550.13 163.085L550.131 163.087L550.655 162.844ZM550.655 172.582L551.18 172.823L550.655 172.582ZM548.95 174.91L549.333 175.342L549.336 175.34L548.95 174.91ZM546.41 176.392L546.605 176.936L546.41 176.392ZM540.193 176.392L540.389 175.849L540.388 175.849L540.193 176.392ZM537.653 174.91L537.269 175.342L537.27 175.342L537.653 174.91ZM535.937 172.582L536.462 172.341L536.46 172.337L535.937 172.582ZM535.937 162.844L536.46 163.09L536.462 163.085L535.937 162.844ZM537.653 160.527L538.034 160.961L538.038 160.957L537.653 160.527ZM540.193 159.034L540.388 159.577L540.393 159.575L540.193 159.034ZM541.073 161.139L541.256 161.687L541.261 161.686L541.073 161.139ZM539.268 162.142L539.637 162.587L539.644 162.581L539.268 162.142ZM538.043 163.724L538.562 163.978L538.564 163.973L538.043 163.724ZM538.043 171.69L538.564 171.442L538.563 171.44L538.043 171.69ZM539.268 173.284L538.896 173.725L538.897 173.726L539.268 173.284ZM541.073 174.286L540.885 174.833L540.891 174.834L541.073 174.286ZM545.519 174.286L545.7 174.835L545.707 174.833L545.519 174.286ZM547.335 173.284L547.703 173.728L547.71 173.723L547.335 173.284ZM548.549 171.69L549.071 171.939L549.072 171.936L548.549 171.69ZM547.335 162.142L546.963 162.584L546.963 162.584L547.335 162.142ZM545.519 161.139L545.333 161.686L545.336 161.687L545.519 161.139ZM543.29 159.076C544.334 159.076 545.306 159.244 546.211 159.576L546.609 158.491C545.568 158.11 544.46 157.921 543.29 157.921L543.29 159.076ZM546.215 159.577C547.123 159.903 547.904 160.364 548.565 160.957L549.336 160.097C548.556 159.397 547.644 158.863 546.605 158.49L546.215 159.577ZM548.567 160.959C549.226 161.542 549.746 162.249 550.13 163.085L551.18 162.603C550.732 161.627 550.116 160.788 549.333 160.095L548.567 160.959ZM550.131 163.087C550.508 163.901 550.701 164.816 550.701 165.841L551.856 165.841C551.856 164.667 551.634 163.584 551.179 162.602L550.131 163.087ZM550.701 165.841L550.701 169.562L551.856 169.562L551.856 165.841L550.701 165.841ZM550.701 169.562C550.701 170.595 550.508 171.518 550.13 172.341L551.18 172.823C551.634 171.833 551.856 170.743 551.856 169.562L550.701 169.562ZM550.13 172.341C549.746 173.177 549.225 173.889 548.565 174.48L549.336 175.34C550.117 174.64 550.732 173.799 551.18 172.823L550.13 172.341ZM548.567 174.478C547.906 175.065 547.124 175.522 546.215 175.849L546.605 176.936C547.642 176.564 548.554 176.034 549.333 175.342L548.567 174.478ZM546.215 175.849C545.309 176.174 544.335 176.338 543.29 176.338L543.29 177.493C544.459 177.493 545.565 177.309 546.605 176.936L546.215 175.849ZM543.29 176.338C542.253 176.338 541.288 176.174 540.389 175.849L539.997 176.935C541.03 177.309 542.129 177.493 543.29 177.493L543.29 176.338ZM540.388 175.849C539.479 175.522 538.697 175.065 538.036 174.478L537.27 175.342C538.049 176.034 538.961 176.564 539.998 176.936L540.388 175.849ZM538.036 174.478C537.37 173.887 536.845 173.176 536.462 172.341L535.412 172.823C535.861 173.8 536.48 174.642 537.269 175.342L538.036 174.478ZM536.46 172.337C536.076 171.515 535.88 170.594 535.88 169.562L534.724 169.562C534.724 170.745 534.951 171.836 535.414 172.826L536.46 172.337ZM535.88 169.562L535.88 165.841L534.724 165.841L534.724 169.562L535.88 169.562ZM535.88 165.841C535.88 164.818 536.076 163.904 536.46 163.09L535.415 162.598C534.951 163.582 534.724 164.666 534.724 165.841L535.88 165.841ZM536.462 163.085C536.845 162.25 537.369 161.544 538.034 160.961L537.272 160.093C536.481 160.786 535.861 161.625 535.412 162.603L536.462 163.085ZM538.038 160.957C538.7 160.364 539.481 159.903 540.388 159.577L539.998 158.49C538.96 158.863 538.047 159.397 537.267 160.097L538.038 160.957ZM540.393 159.575C541.29 159.244 542.255 159.076 543.29 159.076L543.29 157.921C542.128 157.921 541.027 158.11 539.993 158.492L540.393 159.575ZM543.29 160.205C542.444 160.205 541.641 160.333 540.885 160.593L541.261 161.686C541.887 161.47 542.562 161.36 543.29 161.36L543.29 160.205ZM540.891 160.592C540.135 160.843 539.467 161.213 538.893 161.703L539.644 162.581C540.095 162.195 540.63 161.896 541.256 161.687L540.891 160.592ZM538.9 161.697C538.314 162.183 537.854 162.778 537.521 163.476L538.564 163.973C538.826 163.423 539.183 162.963 539.637 162.587L538.9 161.697ZM537.524 163.471C537.176 164.184 537.008 164.978 537.008 165.841L538.164 165.841C538.164 165.13 538.301 164.513 538.562 163.978L537.524 163.471ZM537.008 165.841L537.008 169.562L538.164 169.562L538.164 165.841L537.008 165.841ZM537.008 169.562C537.008 170.426 537.176 171.223 537.523 171.941L538.563 171.44C538.301 170.896 538.164 170.274 538.164 169.562L537.008 169.562ZM537.521 171.939C537.853 172.636 538.312 173.233 538.896 173.725L539.641 172.842C539.185 172.458 538.827 171.993 538.564 171.442L537.521 171.939ZM538.897 173.726C539.468 174.206 540.134 174.574 540.885 174.833L541.261 173.74C540.631 173.524 540.093 173.223 539.64 172.842L538.897 173.726ZM540.891 174.834C541.645 175.086 542.446 175.209 543.29 175.209L543.29 174.054C542.56 174.054 541.883 173.948 541.256 173.739L540.891 174.834ZM543.29 175.209C544.135 175.209 544.939 175.086 545.7 174.835L545.338 173.738C544.702 173.948 544.021 174.054 543.29 174.054L543.29 175.209ZM545.707 174.833C546.458 174.574 547.126 174.207 547.703 173.728L546.966 172.839C546.504 173.222 545.961 173.523 545.331 173.74L545.707 174.833ZM547.71 173.723C548.286 173.23 548.74 172.634 549.071 171.939L548.028 171.442C547.765 171.995 547.409 172.46 546.96 172.845L547.71 173.723ZM549.072 171.936C549.41 171.219 549.572 170.424 549.572 169.562L548.417 169.562C548.417 170.276 548.283 170.899 548.027 171.445L549.072 171.936ZM549.572 169.562L549.572 165.841L548.417 165.841L548.417 169.562L549.572 169.562ZM549.572 165.841C549.572 164.98 549.41 164.188 549.071 163.476L548.028 163.973C548.283 164.509 548.417 165.128 548.417 165.841L549.572 165.841ZM549.071 163.476C548.739 162.78 548.284 162.186 547.706 161.7L546.963 162.584C547.41 162.96 547.765 163.421 548.028 163.973L549.071 163.476ZM547.707 161.701C547.127 161.212 546.457 160.843 545.701 160.592L545.336 161.687C545.963 161.896 546.502 162.196 546.963 162.584L547.707 161.701ZM545.705 160.593C544.943 160.333 544.137 160.205 543.29 160.205L543.29 161.36C544.019 161.36 544.698 161.47 545.333 161.686L545.705 160.593ZM551.279 141.564L551.856 141.564L551.856 140.986L551.279 140.986L551.279 141.564ZM551.279 156.393L551.279 156.971L551.856 156.971L551.856 156.393L551.279 156.393ZM544.951 156.037L544.718 156.565L544.721 156.567L544.951 156.037ZM543.502 155.056L543.911 154.648L543.502 155.056ZM542.522 153.608L543.052 153.379L543.05 153.375L542.522 153.608ZM541.976 145.24L541.443 145.465L541.446 145.47L541.976 145.24ZM541.486 144.516L541.077 144.925L541.085 144.932L541.486 144.516ZM540.761 144.026L540.525 144.553L540.532 144.556L540.761 144.026ZM538.99 144.026L539.214 144.558L539.223 144.555L539.231 144.551L538.99 144.026ZM538.254 144.516L538.655 144.932L538.663 144.925L538.254 144.516ZM537.764 145.24L538.294 145.47L538.297 145.465L537.764 145.24ZM537.586 155.246L537.586 155.823L538.164 155.823L538.164 155.246L537.586 155.246ZM535.302 155.246L534.724 155.246L534.724 155.823L535.302 155.823L535.302 155.246ZM535.67 144.36L536.197 144.596L536.201 144.587L535.67 144.36ZM536.65 142.912L537.055 143.324L537.062 143.317L536.65 142.912ZM538.099 141.931L538.325 142.463L538.331 142.46L538.099 141.931ZM541.642 141.931L541.409 142.46L541.415 142.463L541.642 141.931ZM543.101 142.912L543.509 142.504L543.101 142.912ZM544.082 144.36L544.612 144.131L544.61 144.128L544.082 144.36ZM545.107 153.452L544.698 153.86L545.107 153.452ZM545.831 153.953L545.59 154.478L545.601 154.483L545.831 153.953ZM548.995 154.131L548.995 154.709L549.572 154.709L549.572 154.131L548.995 154.131ZM548.995 141.564L548.995 140.986L548.417 140.986L548.417 141.564L548.995 141.564ZM550.701 141.564L550.701 156.393L551.856 156.393L551.856 141.564L550.701 141.564ZM551.279 155.816L546.711 155.816L546.711 156.971L551.279 156.971L551.279 155.816ZM546.711 155.816C546.162 155.816 545.654 155.712 545.18 155.507L544.721 156.567C545.346 156.837 546.012 156.971 546.711 156.971L546.711 155.816ZM545.183 155.508C544.688 155.29 544.266 155.003 543.911 154.648L543.094 155.465C543.556 155.926 544.099 156.293 544.718 156.565L545.183 155.508ZM543.911 154.648C543.547 154.284 543.261 153.863 543.052 153.379L541.992 153.837C542.258 154.452 542.625 154.996 543.094 155.465L543.911 154.648ZM543.05 153.375C542.839 152.894 542.732 152.379 542.732 151.825L541.576 151.825C541.576 152.533 541.714 153.207 541.993 153.84L543.05 153.375ZM542.732 151.825L542.732 146.121L541.576 146.121L541.576 151.825L542.732 151.825ZM542.732 146.121C542.732 145.733 542.657 145.361 542.506 145.011L541.446 145.47C541.532 145.669 541.576 145.884 541.576 146.121L542.732 146.121ZM542.508 145.016C542.361 144.666 542.154 144.359 541.886 144.101L541.085 144.932C541.233 145.075 541.353 145.25 541.443 145.465L542.508 145.016ZM541.894 144.108C541.633 143.847 541.331 143.643 540.991 143.496L540.532 144.556C540.741 144.647 540.922 144.769 541.077 144.925L541.894 144.108ZM540.997 143.499C540.64 143.339 540.263 143.259 539.87 143.259L539.87 144.414C540.101 144.414 540.318 144.46 540.525 144.553L540.997 143.499ZM539.87 143.259C539.478 143.259 539.102 143.339 538.749 143.501L539.231 144.551C539.428 144.46 539.639 144.414 539.87 144.414L539.87 143.259ZM538.766 143.494C538.418 143.64 538.109 143.845 537.846 144.108L538.663 144.925C538.816 144.772 538.998 144.649 539.214 144.558L538.766 143.494ZM537.854 144.101C537.586 144.359 537.379 144.666 537.232 145.016L538.297 145.465C538.387 145.25 538.507 145.075 538.655 144.932L537.854 144.101ZM537.234 145.011C537.083 145.361 537.008 145.733 537.008 146.121L538.164 146.121C538.164 145.884 538.208 145.669 538.294 145.47L537.234 145.011ZM537.008 146.121L537.008 155.246L538.164 155.246L538.164 146.121L537.008 146.121ZM537.586 154.668L535.302 154.668L535.302 155.823L537.586 155.823L537.586 154.668ZM535.88 155.246L535.88 146.121L534.724 146.121L534.724 155.246L535.88 155.246ZM535.88 146.121C535.88 145.575 535.986 145.068 536.197 144.596L535.142 144.125C534.863 144.751 534.724 145.419 534.724 146.121L535.88 146.121ZM536.201 144.587C536.41 144.097 536.695 143.677 537.055 143.324L536.245 142.5C535.773 142.963 535.405 143.51 535.138 144.134L536.201 144.587ZM537.062 143.317C537.416 142.957 537.835 142.672 538.325 142.463L537.872 141.4C537.248 141.666 536.702 142.035 536.238 142.507L537.062 143.317ZM538.331 142.46C538.813 142.248 539.324 142.141 539.87 142.141L539.87 140.986C539.168 140.986 538.498 141.125 537.866 141.403L538.331 142.46ZM539.87 142.141C540.416 142.141 540.927 142.248 541.409 142.46L541.874 141.403C541.242 141.125 540.572 140.986 539.87 140.986L539.87 142.141ZM541.415 142.463C541.906 142.672 542.33 142.958 542.693 143.32L543.509 142.504C543.04 142.034 542.491 141.666 541.868 141.4L541.415 142.463ZM542.693 143.32C543.048 143.675 543.335 144.098 543.553 144.593L544.61 144.128C544.338 143.509 543.971 142.965 543.509 142.504L542.693 143.32ZM543.551 144.59C543.757 145.064 543.861 145.572 543.861 146.121L545.016 146.121C545.016 145.421 544.882 144.756 544.612 144.131L543.551 144.59ZM543.861 146.121L543.861 151.825L545.016 151.825L545.016 146.121L543.861 146.121ZM543.861 151.825C543.861 152.213 543.935 152.586 544.084 152.941L545.149 152.492C545.06 152.282 545.016 152.062 545.016 151.825L543.861 151.825ZM544.084 152.941C544.231 153.289 544.435 153.597 544.698 153.86L545.515 153.043C545.362 152.89 545.24 152.709 545.149 152.492L544.084 152.941ZM544.698 153.86C544.956 154.118 545.254 154.324 545.59 154.478L546.072 153.428C545.857 153.33 545.673 153.202 545.515 153.043L544.698 153.86ZM545.601 154.483C545.952 154.635 546.323 154.709 546.711 154.709L546.711 153.554C546.474 153.554 546.259 153.509 546.06 153.423L545.601 154.483ZM546.711 154.709L548.995 154.709L548.995 153.554L546.711 153.554L546.711 154.709ZM549.572 154.131L549.572 141.564L548.417 141.564L548.417 154.131L549.572 154.131ZM548.995 142.141L551.279 142.141L551.279 140.986L548.995 140.986L548.995 142.141ZM541.786 124.851L541.531 125.369L541.536 125.372L541.786 124.851ZM543.29 125.999L542.853 126.376L543.287 126.879L543.725 126.38L543.29 125.999ZM544.817 124.851L545.065 125.373L545.072 125.369L544.817 124.851ZM548.494 124.785L548.261 125.313L548.264 125.315L548.494 124.785ZM549.942 125.765L550.35 125.357L549.942 125.765ZM550.922 127.213L551.454 126.987L551.451 126.981L550.922 127.213ZM551.279 139.257L551.279 139.835L551.856 139.835L551.856 139.257L551.279 139.257ZM548.995 139.257L548.417 139.257L548.417 139.835L548.995 139.835L548.995 139.257ZM548.817 128.105L548.284 128.329L548.287 128.334L548.817 128.105ZM548.326 127.369L548.735 126.961L548.326 127.369ZM547.602 126.879L547.831 126.349L547.826 126.347L547.602 126.879ZM545.831 126.879L545.601 126.349L545.831 126.879ZM544.616 128.105L545.146 128.334L545.149 128.329L544.616 128.105ZM544.438 136.383L544.438 136.96L545.016 136.96L545.016 136.383L544.438 136.383ZM542.154 136.383L541.576 136.383L541.576 136.96L542.154 136.96L542.154 136.383ZM541.976 128.105L541.443 128.329L541.446 128.334L541.976 128.105ZM540.761 126.879L540.991 126.349L540.985 126.347L540.761 126.879ZM538.99 126.879L539.214 127.412L539.219 127.409L538.99 126.879ZM537.764 128.105L538.294 128.334L538.297 128.329L537.764 128.105ZM537.586 139.257L537.586 139.835L538.164 139.835L538.164 139.257L537.586 139.257ZM535.302 139.257L534.724 139.257L534.724 139.835L535.302 139.835L535.302 139.257ZM535.67 127.213L536.198 127.446L536.201 127.44L535.67 127.213ZM536.65 125.765L537.055 126.177L537.062 126.17L536.65 125.765ZM538.099 124.785L538.325 125.316L538.331 125.313L538.099 124.785ZM539.87 124.994C540.477 124.994 541.028 125.121 541.531 125.369L542.042 124.334C541.371 124.003 540.644 123.839 539.87 123.839L539.87 124.994ZM541.536 125.372C542.053 125.62 542.49 125.955 542.853 126.376L543.728 125.622C543.259 125.078 542.693 124.647 542.037 124.331L541.536 125.372ZM543.725 126.38C544.095 125.958 544.54 125.622 545.065 125.373L544.569 124.33C543.906 124.645 543.333 125.075 542.856 125.618L543.725 126.38ZM545.072 125.369C545.577 125.12 546.121 124.994 546.711 124.994L546.711 123.839C545.949 123.839 545.23 124.003 544.561 124.334L545.072 125.369ZM546.711 124.994C547.265 124.994 547.78 125.102 548.261 125.313L548.726 124.256C548.093 123.977 547.419 123.839 546.711 123.839L546.711 124.994ZM548.264 125.315C548.748 125.524 549.17 125.81 549.534 126.173L550.35 125.357C549.882 124.888 549.338 124.521 548.723 124.255L548.264 125.315ZM549.534 126.173C549.889 126.529 550.176 126.951 550.394 127.446L551.451 126.981C551.179 126.362 550.812 125.819 550.35 125.357L549.534 126.173ZM550.391 127.44C550.597 127.923 550.701 128.437 550.701 128.985L551.856 128.985C551.856 128.286 551.723 127.618 551.454 126.987L550.391 127.44ZM550.701 128.985L550.701 139.257L551.856 139.257L551.856 128.985L550.701 128.985ZM551.279 138.68L548.995 138.68L548.995 139.835L551.279 139.835L551.279 138.68ZM549.572 139.257L549.572 128.985L548.417 128.985L548.417 139.257L549.572 139.257ZM549.572 128.985C549.572 128.598 549.498 128.226 549.347 127.876L548.287 128.334C548.373 128.533 548.417 128.748 548.417 128.985L549.572 128.985ZM549.349 127.881C549.202 127.532 548.998 127.224 548.735 126.961L547.918 127.778C548.071 127.931 548.193 128.113 548.284 128.329L549.349 127.881ZM548.735 126.961C548.474 126.701 548.172 126.496 547.831 126.349L547.373 127.409C547.582 127.5 547.763 127.622 547.918 127.778L548.735 126.961ZM547.826 126.347C547.472 126.198 547.098 126.123 546.711 126.123L546.711 127.278C546.947 127.278 547.168 127.323 547.378 127.411L547.826 126.347ZM546.711 126.123C546.323 126.123 545.952 126.198 545.601 126.349L546.06 127.409C546.259 127.323 546.474 127.278 546.711 127.278L546.711 126.123ZM545.601 126.349C545.261 126.496 544.959 126.701 544.698 126.961L545.515 127.778C545.67 127.622 545.851 127.5 546.06 127.409L545.601 126.349ZM544.698 126.961C544.435 127.224 544.231 127.532 544.084 127.881L545.149 128.329C545.24 128.113 545.362 127.931 545.515 127.778L544.698 126.961ZM544.086 127.876C543.935 128.226 543.861 128.598 543.861 128.985L545.016 128.985C545.016 128.748 545.06 128.533 545.146 128.334L544.086 127.876ZM543.861 128.985L543.861 136.383L545.016 136.383L545.016 128.985L543.861 128.985ZM544.438 135.805L542.154 135.805L542.154 136.96L544.438 136.96L544.438 135.805ZM542.732 136.383L542.732 128.985L541.576 128.985L541.576 136.383L542.732 136.383ZM542.732 128.985C542.732 128.598 542.657 128.226 542.506 127.876L541.446 128.334C541.532 128.533 541.576 128.748 541.576 128.985L542.732 128.985ZM542.508 127.881C542.361 127.532 542.157 127.224 541.894 126.961L541.077 127.778C541.23 127.931 541.352 128.113 541.443 128.329L542.508 127.881ZM541.894 126.961C541.633 126.701 541.331 126.496 540.991 126.349L540.532 127.409C540.741 127.5 540.922 127.622 541.077 127.778L541.894 126.961ZM540.985 126.347C540.631 126.198 540.257 126.123 539.87 126.123L539.87 127.278C540.106 127.278 540.327 127.323 540.537 127.411L540.985 126.347ZM539.87 126.123C539.483 126.123 539.111 126.198 538.761 126.349L539.219 127.409C539.418 127.323 539.634 127.278 539.87 127.278L539.87 126.123ZM538.766 126.347C538.417 126.494 538.109 126.698 537.846 126.961L538.663 127.778C538.816 127.625 538.998 127.503 539.214 127.411L538.766 126.347ZM537.846 126.961C537.583 127.224 537.379 127.532 537.232 127.881L538.297 128.329C538.388 128.113 538.51 127.931 538.663 127.778L537.846 126.961ZM537.234 127.876C537.083 128.226 537.008 128.598 537.008 128.985L538.164 128.985C538.164 128.748 538.208 128.533 538.294 128.334L537.234 127.876ZM537.008 128.985L537.008 139.257L538.164 139.257L538.164 128.985L537.008 128.985ZM537.586 138.68L535.302 138.68L535.302 139.835L537.586 139.835L537.586 138.68ZM535.88 139.257L535.88 128.985L534.724 128.985L534.724 139.257L535.88 139.257ZM535.88 128.985C535.88 128.439 535.986 127.928 536.198 127.446L535.141 126.981C534.863 127.613 534.724 128.283 534.724 128.985L535.88 128.985ZM536.201 127.44C536.41 126.95 536.695 126.531 537.055 126.177L536.245 125.353C535.773 125.817 535.405 126.363 535.138 126.987L536.201 127.44ZM537.062 126.17C537.416 125.81 537.835 125.525 538.325 125.316L537.872 124.253C537.248 124.52 536.702 124.888 536.238 125.36L537.062 126.17ZM538.331 125.313C538.813 125.101 539.324 124.994 539.87 124.994L539.87 123.839C539.168 123.839 538.498 123.978 537.866 124.256L538.331 125.313Z" fill="#89005B"/>
<path d="M136.84 254.034H123.305C121.849 254.034 120.524 253.76 119.332 253.213C118.139 252.665 117.117 251.917 116.267 250.969C115.426 250.021 114.776 248.906 114.317 247.626C113.857 246.345 113.627 244.976 113.627 243.52C113.627 242.073 113.857 240.714 114.317 239.443C114.776 238.163 115.426 237.048 116.267 236.1C117.117 235.142 118.139 234.389 119.332 233.842C120.524 233.285 121.849 233.006 123.305 233.006H136.84V236.012H123.305C122.269 236.012 121.336 236.212 120.505 236.613C119.683 237.004 118.984 237.542 118.408 238.226C117.841 238.901 117.401 239.693 117.088 240.602C116.785 241.511 116.633 242.484 116.633 243.52C116.633 244.556 116.785 245.534 117.088 246.453C117.401 247.362 117.841 248.158 118.408 248.843C118.984 249.517 119.683 250.05 120.505 250.441C121.336 250.832 122.269 251.028 123.305 251.028H136.84V254.034ZM151.899 254.034H148.893V236.012H138.262V233.006H162.531V236.012H151.899V254.034ZM189.629 254.034H185.567L179.262 248.022H170.053V245.06H182.121C182.747 245.06 183.333 244.942 183.881 244.708C184.428 244.463 184.902 244.136 185.303 243.725C185.714 243.315 186.036 242.836 186.271 242.288C186.506 241.731 186.623 241.139 186.623 240.514C186.623 239.888 186.506 239.302 186.271 238.754C186.036 238.207 185.714 237.733 185.303 237.332C184.902 236.921 184.428 236.599 183.881 236.364C183.333 236.129 182.747 236.012 182.121 236.012H168.367V254.034H165.361V233.006H182.121C183.158 233.006 184.13 233.206 185.039 233.607C185.949 233.998 186.74 234.536 187.415 235.22C188.099 235.895 188.637 236.687 189.028 237.596C189.429 238.505 189.629 239.478 189.629 240.514C189.629 241.452 189.468 242.342 189.145 243.183C188.823 244.014 188.378 244.761 187.811 245.426C187.244 246.081 186.574 246.629 185.802 247.068C185.039 247.499 184.213 247.787 183.324 247.934L189.629 254.034ZM213.575 254.034L193.486 254.034V233.006H196.492V251.028L213.575 251.028V254.034ZM250.733 248.022C250.733 248.862 250.532 249.649 250.131 250.382C249.74 251.106 249.203 251.741 248.518 252.289C247.844 252.826 247.052 253.252 246.143 253.564C245.234 253.877 244.261 254.034 243.225 254.034H226.435V251.028H243.225C243.841 251.028 244.422 250.949 244.97 250.793C245.517 250.637 245.991 250.422 246.392 250.148C246.803 249.874 247.125 249.556 247.36 249.195C247.604 248.823 247.726 248.432 247.726 248.022V246.526H233.943C232.906 246.526 231.929 246.33 231.01 245.939C230.101 245.548 229.304 245.016 228.62 244.341C227.945 243.657 227.412 242.86 227.021 241.951C226.63 241.032 226.435 240.054 226.435 239.018V233.006H229.441V239.018C229.441 239.644 229.558 240.23 229.793 240.778C230.027 241.325 230.345 241.804 230.746 242.215C231.157 242.616 231.636 242.933 232.183 243.168C232.73 243.403 233.317 243.52 233.943 243.52H247.726V233.006H250.733V248.022ZM275.118 245.778C275.118 246.912 274.903 247.978 274.473 248.975C274.043 249.972 273.456 250.847 272.713 251.6C271.98 252.342 271.115 252.934 270.118 253.374C269.121 253.804 268.055 254.024 266.921 254.034H262.302C261.168 254.024 260.103 253.804 259.105 253.374C258.108 252.934 257.238 252.342 256.495 251.6C255.762 250.847 255.181 249.972 254.75 248.975C254.32 247.978 254.105 246.912 254.105 245.778C254.105 244.644 254.32 243.579 254.75 242.581C255.181 241.574 255.762 240.7 256.495 239.957C257.238 239.204 258.108 238.612 259.105 238.182C260.103 237.742 261.168 237.522 262.302 237.522H266.921C267.674 237.522 268.402 237.62 269.106 237.816C269.81 238.011 270.465 238.29 271.071 238.652C271.677 239.013 272.229 239.448 272.728 239.957C273.227 240.455 273.652 241.012 274.004 241.628C274.356 242.234 274.629 242.889 274.825 243.593C275.02 244.297 275.118 245.025 275.118 245.778ZM272.127 245.778C272.127 245.055 271.99 244.375 271.716 243.74C271.443 243.104 271.071 242.552 270.602 242.083C270.133 241.604 269.58 241.227 268.945 240.954C268.319 240.67 267.645 240.524 266.921 240.514H262.302C261.579 240.524 260.899 240.67 260.264 240.954C259.638 241.227 259.091 241.604 258.622 242.083C258.152 242.552 257.781 243.104 257.507 243.74C257.243 244.375 257.111 245.055 257.111 245.778C257.111 246.501 257.243 247.181 257.507 247.816C257.781 248.452 258.152 249.009 258.622 249.488C259.091 249.957 259.638 250.334 260.264 250.617C260.899 250.891 261.579 251.028 262.302 251.028H266.921C267.645 251.028 268.319 250.891 268.945 250.617C269.58 250.334 270.133 249.957 270.602 249.488C271.071 249.009 271.443 248.452 271.716 247.816C271.99 247.181 272.127 246.501 272.127 245.778ZM297.598 254.034H286.336C285.202 254.034 284.136 253.819 283.139 253.389C282.142 252.949 281.272 252.357 280.529 251.614C279.796 250.861 279.214 249.987 278.784 248.989C278.354 247.983 278.139 246.912 278.139 245.778V237.522H281.145V245.778C281.145 246.501 281.277 247.181 281.541 247.816C281.815 248.442 282.186 248.994 282.655 249.473C283.125 249.943 283.672 250.319 284.298 250.602C284.933 250.876 285.612 251.018 286.336 251.028H294.592V237.522H297.598V254.034ZM318.332 240.514H307.07C306.757 240.514 306.464 240.577 306.19 240.704C305.917 240.822 305.677 240.983 305.472 241.188C305.267 241.394 305.105 241.633 304.988 241.907C304.871 242.181 304.812 242.469 304.812 242.772V254.034H301.806V242.772C301.806 242.039 301.943 241.355 302.217 240.719C302.49 240.084 302.867 239.531 303.346 239.062C303.825 238.583 304.382 238.207 305.017 237.933C305.653 237.659 306.337 237.522 307.07 237.522H318.332V240.514ZM353.745 236.012H334.975V254.034H331.969V233.006H353.745V236.012ZM351.164 245.03H336.471V242.024H351.164V245.03ZM375.52 254.034L364.259 254.034C363.125 254.034 362.059 253.819 361.062 253.389C360.065 252.949 359.195 252.357 358.452 251.614C357.719 250.861 357.137 249.987 356.707 248.989C356.277 247.983 356.062 246.912 356.062 245.778V237.522H359.068V245.778C359.068 246.501 359.2 247.181 359.464 247.816C359.737 248.442 360.109 248.994 360.578 249.473C361.047 249.943 361.595 250.319 362.22 250.602C362.856 250.876 363.535 251.018 364.259 251.028L372.514 251.028V237.522H375.52V254.034ZM385.653 254.034H382.647V240.514H378.145V237.522H382.647V231.51H385.653V237.522H396.167V240.514H385.653V254.034ZM417.722 254.034H406.461C405.327 254.034 404.261 253.819 403.264 253.389C402.267 252.949 401.397 252.357 400.654 251.614C399.921 250.861 399.339 249.987 398.909 248.989C398.479 247.983 398.264 246.912 398.264 245.778V237.522H401.27V245.778C401.27 246.501 401.402 247.181 401.666 247.816C401.939 248.442 402.311 248.994 402.78 249.473C403.249 249.943 403.797 250.319 404.422 250.602C405.058 250.876 405.737 251.018 406.461 251.028H414.716V237.522H417.722V254.034ZM438.457 240.514H427.195C426.882 240.514 426.589 240.577 426.315 240.704C426.041 240.822 425.802 240.983 425.597 241.188C425.391 241.394 425.23 241.633 425.113 241.907C424.995 242.181 424.937 242.469 424.937 242.772V254.034H421.931V242.772C421.931 242.039 422.068 241.355 422.341 240.719C422.615 240.084 422.991 239.531 423.47 239.062C423.949 238.583 424.507 238.207 425.142 237.933C425.778 237.659 426.462 237.522 427.195 237.522H438.457V240.514ZM459.895 242.772C459.895 243.505 459.758 244.19 459.484 244.825C459.211 245.46 458.834 246.018 458.355 246.497C457.886 246.966 457.329 247.337 456.684 247.611C456.048 247.885 455.369 248.022 454.645 248.022H443.134C443.349 248.462 443.618 248.867 443.941 249.239C444.263 249.61 444.625 249.928 445.026 250.192C445.427 250.456 445.862 250.661 446.331 250.808C446.81 250.954 447.309 251.028 447.827 251.028H457.651V254.034H447.827C446.693 254.024 445.627 253.804 444.63 253.374C443.633 252.934 442.763 252.342 442.02 251.6C441.287 250.847 440.705 249.972 440.275 248.975C439.845 247.978 439.63 246.912 439.63 245.778C439.63 244.644 439.845 243.579 440.275 242.581C440.705 241.584 441.287 240.714 442.02 239.971C442.763 239.219 443.633 238.627 444.63 238.197C445.627 237.757 446.693 237.532 447.827 237.522H454.645C455.369 237.522 456.048 237.659 456.684 237.933C457.329 238.207 457.886 238.583 458.355 239.062C458.834 239.531 459.211 240.084 459.484 240.719C459.758 241.355 459.895 242.039 459.895 242.772ZM454.645 245.03C454.948 245.03 455.237 244.972 455.51 244.854C455.784 244.737 456.024 244.576 456.229 244.37C456.434 244.165 456.596 243.926 456.713 243.652C456.83 243.378 456.889 243.085 456.889 242.772C456.889 242.469 456.83 242.181 456.713 241.907C456.596 241.633 456.434 241.394 456.229 241.188C456.024 240.983 455.784 240.822 455.51 240.704C455.237 240.577 454.948 240.514 454.645 240.514H447.827C447.162 240.514 446.536 240.631 445.95 240.866C445.373 241.1 444.855 241.423 444.395 241.834C443.946 242.234 443.569 242.713 443.266 243.271C442.973 243.818 442.782 244.405 442.694 245.03H454.645Z" fill="#89005B"/>
<path d="M136.84 254.034V254.611H137.417V254.034H136.84ZM119.332 253.213L119.091 253.737L119.332 253.213ZM116.267 250.969L115.835 251.352L115.837 251.355L116.267 250.969ZM114.317 247.626L113.773 247.821L114.317 247.626ZM114.317 239.443L114.86 239.64L114.86 239.638L114.317 239.443ZM116.267 236.1L115.835 235.717L115.835 235.717L116.267 236.1ZM119.332 233.842L119.572 234.367L119.576 234.365L119.332 233.842ZM136.84 233.006H137.417V232.428H136.84V233.006ZM136.84 236.012V236.59H137.417V236.012H136.84ZM120.505 236.613L120.753 237.135L120.756 237.133L120.505 236.613ZM118.408 238.226L117.966 237.854L117.966 237.855L118.408 238.226ZM117.088 240.602L116.542 240.414L116.54 240.419L117.088 240.602ZM117.088 246.453L116.539 246.633L116.542 246.641L117.088 246.453ZM118.408 248.843L117.963 249.211L117.969 249.218L118.408 248.843ZM120.505 250.441L120.256 250.963L120.259 250.964L120.505 250.441ZM136.84 251.028H137.417V250.45H136.84V251.028ZM136.84 253.456H123.305V254.611H136.84V253.456ZM123.305 253.456C121.923 253.456 120.682 253.197 119.572 252.688L119.091 253.737C120.367 254.323 121.775 254.611 123.305 254.611V253.456ZM119.572 252.688C118.449 252.172 117.493 251.471 116.697 250.583L115.837 251.355C116.742 252.364 117.828 253.158 119.091 253.737L119.572 252.688ZM116.699 250.586C115.911 249.697 115.297 248.647 114.86 247.431L113.773 247.821C114.255 249.165 114.942 250.345 115.835 251.352L116.699 250.586ZM114.86 247.431C114.425 246.217 114.205 244.915 114.205 243.52H113.05C113.05 245.038 113.289 246.473 113.773 247.821L114.86 247.431ZM114.205 243.52C114.205 242.135 114.425 240.843 114.86 239.64L113.773 239.247C113.29 240.585 113.05 242.011 113.05 243.52H114.205ZM114.86 239.638C115.297 238.422 115.911 237.372 116.699 236.483L115.835 235.717C114.942 236.724 114.255 237.904 113.773 239.248L114.86 239.638ZM116.699 236.483C117.495 235.587 118.451 234.882 119.572 234.367L119.091 233.317C117.827 233.897 116.74 234.697 115.835 235.717L116.699 236.483ZM119.576 234.365C120.684 233.847 121.924 233.584 123.305 233.584V232.428C121.773 232.428 120.364 232.722 119.087 233.319L119.576 234.365ZM123.305 233.584H136.84V232.428H123.305V233.584ZM136.262 233.006V236.012H137.417V233.006H136.262ZM136.84 235.435H123.305V236.59H136.84V235.435ZM123.305 235.435C122.193 235.435 121.172 235.65 120.254 236.093L120.756 237.133C121.499 236.775 122.345 236.59 123.305 236.59V235.435ZM120.256 236.092C119.362 236.518 118.597 237.106 117.966 237.854L118.849 238.598C119.372 237.978 120.005 237.491 120.753 237.135L120.256 236.092ZM117.966 237.855C117.349 238.588 116.876 239.444 116.542 240.414L117.634 240.79C117.926 239.942 118.332 239.213 118.85 238.598L117.966 237.855ZM116.54 240.419C116.216 241.392 116.056 242.427 116.056 243.52H117.211C117.211 242.541 117.354 241.63 117.636 240.784L116.54 240.419ZM116.056 243.52C116.056 244.613 116.216 245.652 116.54 246.633L117.636 246.272C117.354 245.415 117.211 244.499 117.211 243.52H116.056ZM116.542 246.641C116.875 247.61 117.348 248.469 117.963 249.211L118.852 248.474C118.333 247.848 117.926 247.113 117.634 246.265L116.542 246.641ZM117.969 249.218C118.599 249.956 119.364 250.538 120.256 250.963L120.753 249.92C120.003 249.563 119.369 249.079 118.847 248.467L117.969 249.218ZM120.259 250.964C121.176 251.395 122.195 251.605 123.305 251.605V250.45C122.343 250.45 121.495 250.269 120.751 249.919L120.259 250.964ZM123.305 251.605H136.84V250.45H123.305V251.605ZM136.262 251.028V254.034H137.417V251.028H136.262ZM151.899 254.034V254.611H152.477V254.034H151.899ZM148.893 254.034H148.316V254.611H148.893V254.034ZM148.893 236.012H149.471V235.435H148.893V236.012ZM138.262 236.012H137.685V236.59H138.262V236.012ZM138.262 233.006V232.428H137.685V233.006H138.262ZM162.531 233.006H163.108V232.428H162.531V233.006ZM162.531 236.012V236.59H163.108V236.012H162.531ZM151.899 236.012V235.435H151.322V236.012H151.899ZM151.899 253.456H148.893V254.611H151.899V253.456ZM149.471 254.034V236.012H148.316V254.034H149.471ZM148.893 235.435H138.262V236.59H148.893V235.435ZM138.84 236.012V233.006H137.685V236.012H138.84ZM138.262 233.584H162.531V232.428H138.262V233.584ZM161.953 233.006V236.012H163.108V233.006H161.953ZM162.531 235.435H151.899V236.59H162.531V235.435ZM151.322 236.012V254.034H152.477V236.012H151.322ZM189.629 254.034V254.611H191.057L190.031 253.619L189.629 254.034ZM185.567 254.034L185.169 254.452L185.336 254.611H185.567V254.034ZM179.262 248.022L179.66 247.604L179.493 247.444H179.262V248.022ZM170.053 248.022H169.476V248.599H170.053V248.022ZM170.053 245.06V244.482H169.476V245.06H170.053ZM183.881 244.708L184.108 245.239L184.116 245.235L183.881 244.708ZM185.303 243.725L184.895 243.317L184.89 243.322L185.303 243.725ZM186.271 242.288L186.802 242.516L186.803 242.512L186.271 242.288ZM186.271 238.754L186.802 238.527L186.271 238.754ZM185.303 237.332L184.89 237.735L184.9 237.745L185.303 237.332ZM168.367 236.012V235.435H167.789V236.012H168.367ZM168.367 254.034V254.611H168.944V254.034H168.367ZM165.361 254.034H164.783V254.611H165.361V254.034ZM165.361 233.006V232.428H164.783V233.006H165.361ZM185.039 233.607L184.806 234.136L184.811 234.138L185.039 233.607ZM187.415 235.22L187.004 235.626L187.009 235.632L187.415 235.22ZM189.028 237.596L188.497 237.824L188.499 237.829L189.028 237.596ZM189.145 243.183L189.684 243.392L189.684 243.389L189.145 243.183ZM187.811 245.426L188.247 245.804L188.25 245.801L187.811 245.426ZM185.802 247.068L186.086 247.571L186.088 247.57L185.802 247.068ZM183.324 247.934L183.23 247.364L182.097 247.55L182.922 248.349L183.324 247.934ZM189.629 253.456H185.567V254.611H189.629V253.456ZM185.966 253.616L179.66 247.604L178.863 248.44L185.169 254.452L185.966 253.616ZM179.262 247.444H170.053V248.599H179.262V247.444ZM170.631 248.022V245.06H169.476V248.022H170.631ZM170.053 245.637H182.121V244.482H170.053V245.637ZM182.121 245.637C182.821 245.637 183.485 245.505 184.108 245.238L183.653 244.177C183.181 244.379 182.673 244.482 182.121 244.482V245.637ZM184.116 245.235C184.727 244.962 185.263 244.594 185.717 244.129L184.89 243.322C184.542 243.678 184.129 243.964 183.646 244.18L184.116 245.235ZM185.712 244.134C186.176 243.67 186.539 243.129 186.802 242.516L185.74 242.061C185.534 242.542 185.252 242.96 184.895 243.317L185.712 244.134ZM186.803 242.512C187.069 241.882 187.201 241.214 187.201 240.514H186.046C186.046 241.065 185.943 241.58 185.739 242.064L186.803 242.512ZM187.201 240.514C187.201 239.814 187.069 239.15 186.802 238.527L185.74 238.982C185.943 239.454 186.046 239.962 186.046 240.514H187.201ZM186.802 238.527C186.539 237.912 186.174 237.374 185.707 236.919L184.9 237.745C185.254 238.091 185.534 238.501 185.74 238.982L186.802 238.527ZM185.717 236.928C185.261 236.461 184.723 236.096 184.108 235.833L183.653 236.895C184.134 237.101 184.544 237.381 184.89 237.735L185.717 236.928ZM184.108 235.833C183.485 235.566 182.821 235.435 182.121 235.435V236.59C182.673 236.59 183.181 236.693 183.653 236.895L184.108 235.833ZM182.121 235.435H168.367V236.59H182.121V235.435ZM167.789 236.012V254.034H168.944V236.012H167.789ZM168.367 253.456H165.361V254.611H168.367V253.456ZM165.938 254.034V233.006H164.783V254.034H165.938ZM165.361 233.584H182.121V232.428H165.361V233.584ZM182.121 233.584C183.081 233.584 183.974 233.769 184.806 234.136L185.272 233.079C184.287 232.644 183.234 232.428 182.121 232.428V233.584ZM184.811 234.138C185.654 234.5 186.383 234.996 187.004 235.626L187.826 234.815C187.098 234.076 186.243 233.496 185.268 233.077L184.811 234.138ZM187.009 235.632C187.639 236.252 188.135 236.981 188.497 237.824L189.558 237.368C189.139 236.392 188.559 235.537 187.82 234.809L187.009 235.632ZM188.499 237.829C188.866 238.661 189.052 239.554 189.052 240.514H190.207C190.207 239.401 189.991 238.348 189.556 237.363L188.499 237.829ZM189.052 240.514C189.052 241.385 188.902 242.204 188.606 242.976L189.684 243.389C190.033 242.48 190.207 241.52 190.207 240.514H189.052ZM188.607 242.974C188.307 243.745 187.895 244.437 187.371 245.051L188.25 245.801C188.86 245.086 189.338 244.282 189.684 243.392L188.607 242.974ZM187.374 245.048C186.851 245.652 186.233 246.158 185.516 246.567L186.088 247.57C186.915 247.099 187.636 246.51 188.247 245.804L187.374 245.048ZM185.518 246.565C184.816 246.961 184.055 247.228 183.23 247.364L183.418 248.503C184.372 248.346 185.262 248.036 186.086 247.571L185.518 246.565ZM182.922 248.349L189.228 254.449L190.031 253.619L183.725 247.519L182.922 248.349ZM213.575 254.034V254.611H214.152V254.034H213.575ZM193.486 254.034H192.908V254.611H193.486V254.034ZM193.486 233.006V232.428H192.908V233.006H193.486ZM196.492 233.006H197.069V232.428H196.492V233.006ZM196.492 251.028H195.914V251.605H196.492V251.028ZM213.575 251.028H214.152V250.45H213.575V251.028ZM213.575 253.456L193.486 253.456V254.611L213.575 254.611V253.456ZM194.063 254.034V233.006H192.908V254.034H194.063ZM193.486 233.584H196.492V232.428H193.486V233.584ZM195.914 233.006V251.028H197.069V233.006H195.914ZM196.492 251.605L213.575 251.605V250.45L196.492 250.45V251.605ZM212.997 251.028V254.034H214.152V251.028H212.997ZM250.131 250.382L249.625 250.105L249.623 250.108L250.131 250.382ZM248.518 252.289L248.878 252.74L248.879 252.74L248.518 252.289ZM226.435 254.034H225.857V254.611H226.435V254.034ZM226.435 251.028V250.45H225.857V251.028H226.435ZM246.392 250.148L246.072 249.667L246.066 249.671L246.392 250.148ZM247.36 249.195L246.877 248.877L246.875 248.88L247.36 249.195ZM247.726 246.526H248.304V245.948H247.726V246.526ZM231.01 245.939L230.782 246.47L230.784 246.471L231.01 245.939ZM228.62 244.341L228.208 244.746L228.214 244.752L228.62 244.341ZM227.021 241.951L226.49 242.177L226.491 242.179L227.021 241.951ZM226.435 233.006V232.428H225.857V233.006H226.435ZM229.441 233.006H230.018V232.428H229.441V233.006ZM230.746 242.215L230.333 242.618L230.343 242.628L230.746 242.215ZM232.183 243.168L231.956 243.699L232.183 243.168ZM247.726 243.52V244.097H248.304V243.52H247.726ZM247.726 233.006V232.428H247.149V233.006H247.726ZM250.733 233.006H251.31V232.428H250.733V233.006ZM250.155 248.022C250.155 248.766 249.979 249.458 249.625 250.105L250.638 250.659C251.086 249.841 251.31 248.959 251.31 248.022H250.155ZM249.623 250.108C249.271 250.759 248.785 251.335 248.158 251.838L248.879 252.74C249.62 252.147 250.209 251.453 250.639 250.657L249.623 250.108ZM248.158 251.837C247.541 252.329 246.809 252.725 245.955 253.018L246.331 254.111C247.295 253.779 248.147 253.324 248.878 252.74L248.158 251.837ZM245.955 253.018C245.111 253.309 244.202 253.456 243.225 253.456V254.611C244.32 254.611 245.357 254.446 246.331 254.111L245.955 253.018ZM243.225 253.456H226.435V254.611H243.225V253.456ZM227.012 254.034V251.028H225.857V254.034H227.012ZM226.435 251.605H243.225V250.45H226.435V251.605ZM243.225 251.605C243.89 251.605 244.525 251.521 245.128 251.348L244.811 250.238C244.319 250.378 243.791 250.45 243.225 250.45V251.605ZM245.128 251.348C245.725 251.178 246.258 250.939 246.718 250.625L246.066 249.671C245.725 249.904 245.309 250.095 244.811 250.238L245.128 251.348ZM246.712 250.628C247.179 250.317 247.561 249.946 247.844 249.509L246.875 248.88C246.689 249.167 246.426 249.431 246.072 249.667L246.712 250.628ZM247.842 249.512C248.143 249.055 248.304 248.554 248.304 248.022H247.149C247.149 248.31 247.065 248.592 246.877 248.877L247.842 249.512ZM248.304 248.022V246.526H247.149V248.022H248.304ZM247.726 245.948H233.943V247.103H247.726V245.948ZM233.943 245.948C232.981 245.948 232.081 245.767 231.236 245.408L230.784 246.471C231.777 246.893 232.832 247.103 233.943 247.103V245.948ZM231.238 245.409C230.393 245.045 229.657 244.552 229.025 243.93L228.214 244.752C228.951 245.479 229.809 246.051 230.782 246.47L231.238 245.409ZM229.031 243.936C228.408 243.304 227.915 242.568 227.552 241.723L226.491 242.179C226.909 243.152 227.482 244.009 228.208 244.746L229.031 243.936ZM227.553 241.725C227.193 240.88 227.012 239.98 227.012 239.018H225.857C225.857 240.129 226.067 241.184 226.49 242.177L227.553 241.725ZM227.012 239.018V233.006H225.857V239.018H227.012ZM226.435 233.584H229.441V232.428H226.435V233.584ZM228.863 233.006V239.018H230.018V233.006H228.863ZM228.863 239.018C228.863 239.718 228.995 240.382 229.262 241.005L230.324 240.55C230.121 240.078 230.018 239.57 230.018 239.018H228.863ZM229.262 241.005C229.524 241.616 229.88 242.155 230.333 242.618L231.159 241.811C230.81 241.454 230.531 241.035 230.324 240.55L229.262 241.005ZM230.343 242.628C230.806 243.08 231.345 243.437 231.956 243.699L232.411 242.637C231.926 242.429 231.507 242.151 231.149 241.802L230.343 242.628ZM231.956 243.699C232.578 243.966 233.243 244.097 233.943 244.097V242.942C233.391 242.942 232.882 242.839 232.411 242.637L231.956 243.699ZM233.943 244.097H247.726V242.942H233.943V244.097ZM248.304 243.52V233.006H247.149V243.52H248.304ZM247.726 233.584H250.733V232.428H247.726V233.584ZM250.155 233.006V248.022H251.31V233.006H250.155ZM272.713 251.6L272.302 251.194L272.302 251.194L272.713 251.6ZM270.118 253.374L270.347 253.904L270.351 253.902L270.118 253.374ZM266.921 254.034V254.611L266.926 254.611L266.921 254.034ZM262.302 254.034L262.297 254.611H262.302V254.034ZM259.105 253.374L258.872 253.902L258.877 253.904L259.105 253.374ZM256.495 251.6L256.082 252.003L256.087 252.008L256.495 251.6ZM254.75 248.975L254.22 249.203L254.75 248.975ZM254.75 242.581L255.281 242.81L255.281 242.808L254.75 242.581ZM256.495 239.957L256.084 239.551L256.084 239.551L256.495 239.957ZM259.105 238.182L259.334 238.713L259.339 238.711L259.105 238.182ZM272.728 239.957L272.316 240.361L272.32 240.365L272.728 239.957ZM274.004 241.628L273.502 241.915L273.504 241.918L274.004 241.628ZM270.602 242.083L270.189 242.487L270.193 242.491L270.602 242.083ZM268.945 240.954L268.706 241.48L268.716 241.484L268.945 240.954ZM266.921 240.514L266.929 239.936H266.921V240.514ZM262.302 240.514V239.936L262.294 239.936L262.302 240.514ZM260.264 240.954L260.495 241.483L260.499 241.481L260.264 240.954ZM258.622 242.083L259.03 242.491L259.034 242.487L258.622 242.083ZM257.507 243.74L256.977 243.511L256.974 243.518L257.507 243.74ZM257.507 247.816L256.974 248.038L256.977 248.045L257.507 247.816ZM258.622 249.488L258.209 249.892L258.213 249.896L258.622 249.488ZM260.264 250.617L260.026 251.143L260.035 251.147L260.264 250.617ZM268.945 250.617L269.176 251.146L269.18 251.144L268.945 250.617ZM270.602 249.488L271.01 249.896L271.014 249.892L270.602 249.488ZM274.541 245.778C274.541 246.837 274.34 247.824 273.943 248.746L275.003 249.203C275.466 248.131 275.696 246.987 275.696 245.778H274.541ZM273.943 248.746C273.54 249.679 272.994 250.494 272.302 251.194L273.124 252.005C273.919 251.2 274.546 250.265 275.003 249.203L273.943 248.746ZM272.302 251.194C271.622 251.883 270.818 252.434 269.885 252.845L270.351 253.902C271.412 253.434 272.338 252.802 273.124 252.005L272.302 251.194ZM269.889 252.844C268.966 253.242 267.977 253.447 266.916 253.456L266.926 254.611C268.134 254.601 269.276 254.366 270.347 253.904L269.889 252.844ZM266.921 253.456H262.302V254.611H266.921V253.456ZM262.307 253.456C261.247 253.447 260.258 253.242 259.334 252.844L258.877 253.904C259.948 254.366 261.09 254.601 262.297 254.611L262.307 253.456ZM259.339 252.845C258.404 252.433 257.594 251.882 256.904 251.191L256.087 252.008C256.882 252.803 257.812 253.435 258.872 253.902L259.339 252.845ZM256.909 251.197C256.227 250.496 255.684 249.681 255.281 248.746L254.22 249.203C254.677 250.263 255.298 251.198 256.082 252.003L256.909 251.197ZM255.281 248.746C254.883 247.824 254.683 246.837 254.683 245.778H253.528C253.528 246.987 253.757 248.131 254.22 249.203L255.281 248.746ZM254.683 245.778C254.683 244.719 254.883 243.732 255.281 242.81L254.22 242.353C253.757 243.425 253.528 244.569 253.528 245.778H254.683ZM255.281 242.808C255.685 241.865 256.227 241.051 256.906 240.362L256.084 239.551C255.298 240.348 254.676 241.284 254.219 242.355L255.281 242.808ZM256.906 240.362C257.596 239.664 258.403 239.114 259.334 238.713L258.877 237.652C257.813 238.111 256.881 238.744 256.084 239.551L256.906 240.362ZM259.339 238.711C260.259 238.304 261.245 238.1 262.302 238.1V236.945C261.091 236.945 259.946 237.18 258.872 237.654L259.339 238.711ZM262.302 238.1H266.921V236.945H262.302V238.1ZM266.921 238.1C267.623 238.1 268.3 238.191 268.952 238.372L269.261 237.259C268.505 237.049 267.725 236.945 266.921 236.945V238.1ZM268.952 238.372C269.608 238.554 270.215 238.813 270.775 239.147L271.367 238.156C270.715 237.767 270.012 237.468 269.261 237.259L268.952 238.372ZM270.775 239.147C271.338 239.484 271.852 239.888 272.316 240.361L273.14 239.552C272.607 239.009 272.016 238.543 271.367 238.156L270.775 239.147ZM272.32 240.365C272.782 240.827 273.176 241.343 273.502 241.915L274.505 241.342C274.128 240.682 273.671 240.083 273.136 239.548L272.32 240.365ZM273.504 241.918C273.831 242.48 274.086 243.089 274.268 243.748L275.381 243.439C275.173 242.689 274.881 241.989 274.503 241.338L273.504 241.918ZM274.268 243.748C274.45 244.4 274.541 245.076 274.541 245.778H275.696C275.696 244.975 275.591 244.194 275.381 243.439L274.268 243.748ZM272.704 245.778C272.704 244.98 272.553 244.222 272.247 243.511L271.186 243.968C271.427 244.528 271.549 245.13 271.549 245.778H272.704ZM272.247 243.511C271.945 242.812 271.533 242.198 271.01 241.674L270.193 242.491C270.609 242.907 270.94 243.397 271.186 243.968L272.247 243.511ZM271.014 241.679C270.491 241.144 269.875 240.726 269.173 240.423L268.716 241.484C269.285 241.729 269.774 242.063 270.189 242.487L271.014 241.679ZM269.183 240.428C268.481 240.11 267.728 239.947 266.929 239.936L266.913 241.091C267.562 241.1 268.157 241.231 268.706 241.48L269.183 240.428ZM266.921 239.936H262.302V241.091H266.921V239.936ZM262.294 239.936C261.496 239.947 260.739 240.11 260.029 240.426L260.499 241.481C261.06 241.231 261.662 241.1 262.31 241.091L262.294 239.936ZM260.032 240.425C259.34 240.727 258.731 241.146 258.209 241.679L259.034 242.487C259.451 242.062 259.936 241.727 260.495 241.483L260.032 240.425ZM258.213 241.674C257.69 242.198 257.278 242.812 256.977 243.511L258.038 243.968C258.284 243.397 258.615 242.907 259.03 242.491L258.213 241.674ZM256.974 243.518C256.679 244.227 256.534 244.983 256.534 245.778H257.689C257.689 245.127 257.807 244.523 258.04 243.961L256.974 243.518ZM256.534 245.778C256.534 246.574 256.679 247.329 256.974 248.038L258.04 247.595C257.807 247.033 257.689 246.429 257.689 245.778H256.534ZM256.977 248.045C257.278 248.743 257.688 249.361 258.209 249.892L259.034 249.084C258.616 248.657 258.284 248.16 258.038 247.588L256.977 248.045ZM258.213 249.896C258.733 250.416 259.339 250.832 260.026 251.143L260.502 250.091C259.938 249.835 259.448 249.498 259.03 249.08L258.213 249.896ZM260.035 251.147C260.746 251.454 261.504 251.605 262.302 251.605V250.45C261.654 250.45 261.052 250.328 260.492 250.087L260.035 251.147ZM262.302 251.605H266.921V250.45H262.302V251.605ZM266.921 251.605C267.719 251.605 268.473 251.454 269.176 251.146L268.713 250.088C268.165 250.328 267.57 250.45 266.921 250.45V251.605ZM269.18 251.144C269.877 250.834 270.489 250.418 271.01 249.896L270.193 249.08C269.777 249.497 269.284 249.834 268.709 250.09L269.18 251.144ZM271.014 249.892C271.535 249.361 271.946 248.743 272.247 248.045L271.186 247.588C270.939 248.16 270.607 248.657 270.189 249.084L271.014 249.892ZM272.247 248.045C272.553 247.334 272.704 246.576 272.704 245.778H271.549C271.549 246.427 271.427 247.028 271.186 247.588L272.247 248.045ZM297.598 254.034V254.611H298.175V254.034H297.598ZM283.139 253.389L282.906 253.917L282.91 253.919L283.139 253.389ZM280.529 251.614L280.115 252.017L280.121 252.023L280.529 251.614ZM278.784 248.989L278.253 249.216L278.254 249.218L278.784 248.989ZM278.139 237.522V236.945H277.561V237.522H278.139ZM281.145 237.522H281.722V236.945H281.145V237.522ZM281.541 247.816L281.007 248.038L281.012 248.048L281.541 247.816ZM282.655 249.473L282.243 249.877L282.247 249.882L282.655 249.473ZM284.298 250.602L284.059 251.129L284.069 251.133L284.298 250.602ZM286.336 251.028L286.328 251.605H286.336V251.028ZM294.592 251.028V251.605H295.169V251.028H294.592ZM294.592 237.522V236.945H294.014V237.522H294.592ZM297.598 237.522H298.175V236.945H297.598V237.522ZM297.598 253.456H286.336V254.611H297.598V253.456ZM286.336 253.456C285.277 253.456 284.29 253.256 283.368 252.858L282.91 253.919C283.983 254.381 285.127 254.611 286.336 254.611V253.456ZM283.372 252.86C282.438 252.448 281.628 251.896 280.937 251.206L280.121 252.023C280.916 252.818 281.846 253.449 282.906 253.917L283.372 252.86ZM280.943 251.211C280.26 250.511 279.718 249.695 279.314 248.761L278.254 249.218C278.711 250.278 279.331 251.212 280.115 252.017L280.943 251.211ZM279.315 248.763C278.917 247.83 278.716 246.837 278.716 245.778H277.561C277.561 246.987 277.791 248.135 278.253 249.216L279.315 248.763ZM278.716 245.778V237.522H277.561V245.778H278.716ZM278.139 238.1H281.145V236.945H278.139V238.1ZM280.567 237.522V245.778H281.722V237.522H280.567ZM280.567 245.778C280.567 246.574 280.713 247.329 281.008 248.038L282.074 247.595C281.841 247.033 281.722 246.429 281.722 245.778H280.567ZM281.012 248.048C281.313 248.736 281.724 249.347 282.243 249.877L283.068 249.069C282.649 248.641 282.316 248.148 282.07 247.585L281.012 248.048ZM282.247 249.882C282.767 250.402 283.373 250.817 284.059 251.128L284.536 250.076C283.971 249.821 283.482 249.483 283.064 249.065L282.247 249.882ZM284.069 251.133C284.778 251.438 285.532 251.594 286.328 251.605L286.344 250.45C285.693 250.441 285.089 250.314 284.526 250.072L284.069 251.133ZM286.336 251.605H294.592V250.45H286.336V251.605ZM295.169 251.028V237.522H294.014V251.028H295.169ZM294.592 238.1H297.598V236.945H294.592V238.1ZM297.02 237.522V254.034H298.175V237.522H297.02ZM318.332 240.514V241.091H318.91V240.514H318.332ZM306.19 240.704L306.418 241.235L306.426 241.232L306.434 241.228L306.19 240.704ZM304.812 254.034V254.611H305.39V254.034H304.812ZM301.806 254.034H301.229V254.611H301.806V254.034ZM303.346 239.062L303.75 239.475L303.754 239.47L303.346 239.062ZM318.332 237.522H318.91V236.945H318.332V237.522ZM318.332 239.936H307.07V241.091H318.332V239.936ZM307.07 239.936C306.677 239.936 306.3 240.017 305.947 240.181L306.434 241.228C306.628 241.138 306.838 241.091 307.07 241.091V239.936ZM305.963 240.174C305.624 240.319 305.322 240.521 305.064 240.78L305.88 241.597C306.032 241.445 306.21 241.324 306.418 241.235L305.963 240.174ZM305.064 240.78C304.805 241.039 304.603 241.34 304.457 241.679L305.519 242.134C305.608 241.926 305.728 241.749 305.88 241.597L305.064 240.78ZM304.457 241.679C304.309 242.026 304.235 242.392 304.235 242.772H305.39C305.39 242.546 305.433 242.335 305.519 242.134L304.457 241.679ZM304.235 242.772V254.034H305.39V242.772H304.235ZM304.812 253.456H301.806V254.611H304.812V253.456ZM302.384 254.034V242.772H301.229V254.034H302.384ZM302.384 242.772C302.384 242.113 302.506 241.507 302.747 240.948L301.686 240.491C301.38 241.202 301.229 241.965 301.229 242.772H302.384ZM302.747 240.948C302.992 240.379 303.326 239.89 303.75 239.475L302.942 238.65C302.407 239.173 301.989 239.788 301.686 240.491L302.747 240.948ZM303.754 239.47C304.18 239.044 304.676 238.709 305.246 238.463L304.789 237.403C304.088 237.705 303.469 238.122 302.937 238.654L303.754 239.47ZM305.246 238.463C305.805 238.223 306.411 238.1 307.07 238.1V236.945C306.263 236.945 305.501 237.096 304.789 237.403L305.246 238.463ZM307.07 238.1H318.332V236.945H307.07V238.1ZM317.754 237.522V240.514H318.91V237.522H317.754ZM353.745 236.012V236.59H354.322V236.012H353.745ZM334.975 236.012V235.435H334.398V236.012H334.975ZM334.975 254.034V254.611H335.553V254.034H334.975ZM331.969 254.034H331.392V254.611H331.969V254.034ZM331.969 233.006V232.428H331.392V233.006H331.969ZM353.745 233.006H354.322V232.428H353.745V233.006ZM351.164 245.03V245.608H351.741V245.03H351.164ZM336.471 245.03H335.893V245.608H336.471V245.03ZM336.471 242.024V241.447H335.893V242.024H336.471ZM351.164 242.024H351.741V241.447H351.164V242.024ZM353.745 235.435H334.975V236.59H353.745V235.435ZM334.398 236.012V254.034H335.553V236.012H334.398ZM334.975 253.456H331.969V254.611H334.975V253.456ZM332.547 254.034V233.006H331.392V254.034H332.547ZM331.969 233.584H353.745V232.428H331.969V233.584ZM353.167 233.006V236.012H354.322V233.006H353.167ZM351.164 244.453H336.471V245.608H351.164V244.453ZM337.048 245.03V242.024H335.893V245.03H337.048ZM336.471 242.602H351.164V241.447H336.471V242.602ZM350.586 242.024V245.03H351.741V242.024H350.586ZM375.52 254.034V254.611H376.098V254.034H375.52ZM361.062 253.389L360.829 253.917L360.833 253.919L361.062 253.389ZM358.452 251.614L358.038 252.017L358.043 252.023L358.452 251.614ZM356.707 248.989L356.176 249.216L356.177 249.218L356.707 248.989ZM356.062 237.522V236.945H355.484V237.522H356.062ZM359.068 237.522H359.645V236.945H359.068V237.522ZM359.464 247.816L358.93 248.038L358.934 248.048L359.464 247.816ZM360.578 249.473L360.165 249.877L360.17 249.882L360.578 249.473ZM362.22 250.602L361.982 251.129L361.992 251.133L362.22 250.602ZM364.259 251.028L364.251 251.605H364.259V251.028ZM372.514 251.028V251.605H373.092V251.028H372.514ZM372.514 237.522V236.945H371.937V237.522H372.514ZM375.52 237.522H376.098V236.945H375.52V237.522ZM375.52 253.456L364.259 253.456V254.611L375.52 254.611V253.456ZM364.259 253.456C363.2 253.456 362.212 253.256 361.291 252.858L360.833 253.919C361.906 254.381 363.049 254.611 364.259 254.611V253.456ZM361.295 252.86C360.361 252.448 359.551 251.896 358.86 251.206L358.043 252.023C358.839 252.818 359.769 253.449 360.829 253.917L361.295 252.86ZM358.865 251.211C358.183 250.511 357.64 249.695 357.237 248.761L356.177 249.218C356.634 250.278 357.254 251.212 358.038 252.017L358.865 251.211ZM357.238 248.763C356.839 247.83 356.639 246.837 356.639 245.778H355.484C355.484 246.987 355.714 248.135 356.176 249.216L357.238 248.763ZM356.639 245.778V237.522H355.484V245.778H356.639ZM356.062 238.1H359.068V236.945H356.062V238.1ZM358.49 237.522V245.778H359.645V237.522H358.49ZM358.49 245.778C358.49 246.574 358.636 247.329 358.93 248.038L359.997 247.595C359.764 247.033 359.645 246.429 359.645 245.778H358.49ZM358.934 248.048C359.236 248.736 359.646 249.347 360.165 249.877L360.991 249.069C360.571 248.641 360.239 248.148 359.993 247.585L358.934 248.048ZM360.17 249.882C360.69 250.402 361.295 250.817 361.982 251.128L362.459 250.076C361.894 249.821 361.405 249.483 360.986 249.065L360.17 249.882ZM361.992 251.133C362.7 251.438 363.455 251.594 364.251 251.605L364.266 250.45C363.615 250.441 363.011 250.314 362.449 250.072L361.992 251.133ZM364.259 251.605L372.514 251.605V250.45L364.259 250.45V251.605ZM373.092 251.028V237.522H371.937V251.028H373.092ZM372.514 238.1H375.52V236.945H372.514V238.1ZM374.943 237.522V254.034H376.098V237.522H374.943ZM385.653 254.034V254.611H386.23V254.034H385.653ZM382.647 254.034H382.069V254.611H382.647V254.034ZM382.647 240.514H383.224V239.936H382.647V240.514ZM378.145 240.514H377.568V241.091H378.145V240.514ZM378.145 237.522V236.945H377.568V237.522H378.145ZM382.647 237.522V238.1H383.224V237.522H382.647ZM382.647 231.51V230.933H382.069V231.51H382.647ZM385.653 231.51H386.23V230.933H385.653V231.51ZM385.653 237.522H385.075V238.1H385.653V237.522ZM396.167 237.522H396.744V236.945H396.167V237.522ZM396.167 240.514V241.091H396.744V240.514H396.167ZM385.653 240.514V239.936H385.075V240.514H385.653ZM385.653 253.456H382.647V254.611H385.653V253.456ZM383.224 254.034V240.514H382.069V254.034H383.224ZM382.647 239.936H378.145V241.091H382.647V239.936ZM378.723 240.514V237.522H377.568V240.514H378.723ZM378.145 238.1H382.647V236.945H378.145V238.1ZM383.224 237.522V231.51H382.069V237.522H383.224ZM382.647 232.088H385.653V230.933H382.647V232.088ZM385.075 231.51V237.522H386.23V231.51H385.075ZM385.653 238.1H396.167V236.945H385.653V238.1ZM395.589 237.522V240.514H396.744V237.522H395.589ZM396.167 239.936H385.653V241.091H396.167V239.936ZM385.075 240.514V254.034H386.23V240.514H385.075ZM417.722 254.034V254.611H418.3V254.034H417.722ZM403.264 253.389L403.031 253.917L403.035 253.919L403.264 253.389ZM400.654 251.614L400.24 252.017L400.245 252.023L400.654 251.614ZM398.909 248.989L398.378 249.216L398.379 249.218L398.909 248.989ZM398.264 237.522V236.945H397.686V237.522H398.264ZM401.27 237.522H401.847V236.945H401.27V237.522ZM401.666 247.816L401.132 248.038L401.136 248.048L401.666 247.816ZM402.78 249.473L402.367 249.877L402.372 249.882L402.78 249.473ZM404.422 250.602L404.184 251.129L404.194 251.133L404.422 250.602ZM406.461 251.028L406.453 251.605H406.461V251.028ZM414.716 251.028V251.605H415.294V251.028H414.716ZM414.716 237.522V236.945H414.139V237.522H414.716ZM417.722 237.522H418.3V236.945H417.722V237.522ZM417.722 253.456H406.461V254.611H417.722V253.456ZM406.461 253.456C405.402 253.456 404.414 253.256 403.493 252.858L403.035 253.919C404.108 254.381 405.251 254.611 406.461 254.611V253.456ZM403.497 252.86C402.563 252.448 401.753 251.896 401.062 251.206L400.245 252.023C401.041 252.818 401.971 253.449 403.031 253.917L403.497 252.86ZM401.067 251.211C400.385 250.511 399.842 249.695 399.439 248.761L398.379 249.218C398.836 250.278 399.456 251.212 400.24 252.017L401.067 251.211ZM399.44 248.763C399.041 247.83 398.841 246.837 398.841 245.778H397.686C397.686 246.987 397.916 248.135 398.378 249.216L399.44 248.763ZM398.841 245.778V237.522H397.686V245.778H398.841ZM398.264 238.1H401.27V236.945H398.264V238.1ZM400.692 237.522V245.778H401.847V237.522H400.692ZM400.692 245.778C400.692 246.574 400.838 247.329 401.132 248.038L402.199 247.595C401.966 247.033 401.847 246.429 401.847 245.778H400.692ZM401.136 248.048C401.438 248.736 401.848 249.347 402.367 249.877L403.193 249.069C402.773 248.641 402.441 248.148 402.195 247.585L401.136 248.048ZM402.372 249.882C402.892 250.402 403.497 250.817 404.184 251.128L404.661 250.076C404.096 249.821 403.607 249.483 403.188 249.065L402.372 249.882ZM404.194 251.133C404.902 251.438 405.657 251.594 406.453 251.605L406.468 250.45C405.817 250.441 405.213 250.314 404.651 250.072L404.194 251.133ZM406.461 251.605H414.716V250.45H406.461V251.605ZM415.294 251.028V237.522H414.139V251.028H415.294ZM414.716 238.1H417.722V236.945H414.716V238.1ZM417.145 237.522V254.034H418.3V237.522H417.145ZM438.457 240.514V241.091H439.034V240.514H438.457ZM426.315 240.704L426.543 241.235L426.551 241.232L426.558 241.228L426.315 240.704ZM424.937 254.034V254.611H425.514V254.034H424.937ZM421.931 254.034H421.353V254.611H421.931V254.034ZM423.47 239.062L423.875 239.475L423.879 239.47L423.47 239.062ZM438.457 237.522H439.034V236.945H438.457V237.522ZM438.457 239.936H427.195V241.091H438.457V239.936ZM427.195 239.936C426.801 239.936 426.425 240.017 426.072 240.181L426.558 241.228C426.753 241.138 426.963 241.091 427.195 241.091V239.936ZM426.088 240.174C425.748 240.319 425.447 240.521 425.188 240.78L426.005 241.597C426.157 241.445 426.335 241.324 426.543 241.235L426.088 240.174ZM425.188 240.78C424.93 241.039 424.727 241.34 424.582 241.679L425.644 242.134C425.733 241.926 425.853 241.749 426.005 241.597L425.188 240.78ZM424.582 241.679C424.433 242.026 424.359 242.392 424.359 242.772H425.514C425.514 242.546 425.558 242.335 425.644 242.134L424.582 241.679ZM424.359 242.772V254.034H425.514V242.772H424.359ZM424.937 253.456H421.931V254.611H424.937V253.456ZM422.508 254.034V242.772H421.353V254.034H422.508ZM422.508 242.772C422.508 242.113 422.631 241.507 422.872 240.948L421.811 240.491C421.504 241.202 421.353 241.965 421.353 242.772H422.508ZM422.872 240.948C423.117 240.379 423.451 239.89 423.875 239.475L423.066 238.65C422.532 239.173 422.113 239.788 421.811 240.491L422.872 240.948ZM423.879 239.47C424.305 239.044 424.801 238.709 425.371 238.463L424.914 237.403C424.212 237.705 423.594 238.122 423.062 238.654L423.879 239.47ZM425.371 238.463C425.93 238.223 426.536 238.1 427.195 238.1V236.945C426.388 236.945 425.625 237.096 424.914 237.403L425.371 238.463ZM427.195 238.1H438.457V236.945H427.195V238.1ZM437.879 237.522V240.514H439.034V237.522H437.879ZM458.355 246.497L457.947 246.088L458.355 246.497ZM456.684 247.611L456.458 247.079L456.455 247.081L456.684 247.611ZM443.134 248.022V247.444H442.209L442.616 248.275L443.134 248.022ZM446.331 250.808L446.159 251.359L446.162 251.36L446.331 250.808ZM457.651 251.028H458.229V250.45H457.651V251.028ZM457.651 254.034V254.611H458.229V254.034H457.651ZM447.827 254.034L447.822 254.611H447.827V254.034ZM444.63 253.374L444.397 253.902L444.401 253.904L444.63 253.374ZM442.02 251.6L441.606 252.003L441.612 252.008L442.02 251.6ZM440.275 248.975L439.745 249.203L440.275 248.975ZM440.275 242.581L439.745 242.353L440.275 242.581ZM442.02 239.971L441.609 239.566L441.609 239.566L442.02 239.971ZM444.63 238.197L444.859 238.727L444.863 238.725L444.63 238.197ZM447.827 237.522V236.945L447.822 236.945L447.827 237.522ZM456.684 237.933L456.455 238.463L456.458 238.465L456.684 237.933ZM458.355 239.062L457.943 239.466L457.951 239.475L458.355 239.062ZM455.51 240.704L455.267 241.228L455.275 241.232L455.283 241.235L455.51 240.704ZM445.95 240.866L445.735 240.33L445.732 240.331L445.95 240.866ZM444.395 241.834L444.78 242.265L444.78 242.264L444.395 241.834ZM443.266 243.271L442.759 242.995L442.757 242.998L443.266 243.271ZM442.694 245.03L442.123 244.95L442.03 245.608H442.694V245.03ZM459.317 242.772C459.317 243.431 459.195 244.037 458.954 244.596L460.015 245.053C460.321 244.342 460.472 243.579 460.472 242.772H459.317ZM458.954 244.596C458.709 245.166 458.373 245.662 457.947 246.088L458.764 246.905C459.295 246.373 459.713 245.755 460.015 245.053L458.954 244.596ZM457.947 246.088C457.533 246.502 457.039 246.833 456.458 247.079L456.909 248.143C457.619 247.842 458.239 247.43 458.764 246.905L457.947 246.088ZM456.455 247.081C455.895 247.322 455.294 247.444 454.645 247.444V248.599C455.444 248.599 456.201 248.448 456.912 248.141L456.455 247.081ZM454.645 247.444H443.134V248.599H454.645V247.444ZM442.616 248.275C442.853 248.76 443.149 249.208 443.505 249.617L444.377 248.86C444.087 248.526 443.846 248.163 443.653 247.768L442.616 248.275ZM443.505 249.617C443.861 250.028 444.262 250.38 444.708 250.674L445.344 249.709C444.988 249.475 444.666 249.193 444.377 248.86L443.505 249.617ZM444.708 250.674C445.155 250.968 445.639 251.197 446.159 251.359L446.503 250.256C446.084 250.126 445.698 249.943 445.344 249.709L444.708 250.674ZM446.162 251.36C446.698 251.524 447.253 251.605 447.827 251.605V250.45C447.364 250.45 446.922 250.385 446.5 250.255L446.162 251.36ZM447.827 251.605H457.651V250.45H447.827V251.605ZM457.074 251.028V254.034H458.229V251.028H457.074ZM457.651 253.456H447.827V254.611H457.651V253.456ZM447.832 253.456C446.771 253.447 445.782 253.242 444.859 252.844L444.401 253.904C445.472 254.366 446.614 254.601 447.822 254.611L447.832 253.456ZM444.863 252.845C443.929 252.433 443.119 251.882 442.428 251.191L441.612 252.008C442.407 252.803 443.337 253.435 444.397 253.902L444.863 252.845ZM442.434 251.197C441.751 250.496 441.208 249.681 440.805 248.746L439.745 249.203C440.202 250.263 440.822 251.198 441.606 252.003L442.434 251.197ZM440.805 248.746C440.408 247.824 440.207 246.837 440.207 245.778H439.052C439.052 246.987 439.282 248.131 439.745 249.203L440.805 248.746ZM440.207 245.778C440.207 244.719 440.408 243.732 440.805 242.81L439.745 242.353C439.282 243.425 439.052 244.569 439.052 245.778H440.207ZM440.805 242.81C441.208 241.876 441.75 241.067 442.431 240.377L441.609 239.566C440.823 240.362 440.202 241.292 439.745 242.353L440.805 242.81ZM442.431 240.377C443.12 239.679 443.928 239.129 444.859 238.727L444.401 237.667C443.338 238.125 442.405 238.759 441.609 239.566L442.431 240.377ZM444.863 238.725C445.785 238.318 446.773 238.109 447.832 238.1L447.822 236.945C446.612 236.955 445.469 237.196 444.397 237.669L444.863 238.725ZM447.827 238.1H454.645V236.945H447.827V238.1ZM454.645 238.1C455.294 238.1 455.895 238.222 456.455 238.463L456.912 237.403C456.201 237.096 455.444 236.945 454.645 236.945V238.1ZM456.458 238.465C457.036 238.71 457.529 239.044 457.943 239.466L458.768 238.658C458.243 238.122 457.621 237.703 456.909 237.401L456.458 238.465ZM457.951 239.475C458.375 239.89 458.709 240.379 458.954 240.948L460.015 240.491C459.712 239.788 459.294 239.173 458.759 238.65L457.951 239.475ZM458.954 240.948C459.195 241.507 459.317 242.113 459.317 242.772H460.472C460.472 241.965 460.321 241.202 460.015 240.491L458.954 240.948ZM454.645 245.608C455.025 245.608 455.391 245.534 455.738 245.385L455.283 244.323C455.082 244.409 454.872 244.453 454.645 244.453V245.608ZM455.738 245.385C456.077 245.24 456.379 245.037 456.637 244.779L455.821 243.962C455.669 244.114 455.491 244.234 455.283 244.323L455.738 245.385ZM456.637 244.779C456.896 244.52 457.098 244.219 457.244 243.879L456.182 243.424C456.093 243.632 455.973 243.81 455.821 243.962L456.637 244.779ZM457.244 243.879C457.393 243.53 457.466 243.159 457.466 242.772H456.311C456.311 243.011 456.267 243.226 456.182 243.424L457.244 243.879ZM457.466 242.772C457.466 242.392 457.392 242.026 457.244 241.679L456.182 242.134C456.268 242.335 456.311 242.546 456.311 242.772H457.466ZM457.244 241.679C457.098 241.34 456.896 241.039 456.637 240.78L455.821 241.597C455.973 241.749 456.093 241.926 456.182 242.134L457.244 241.679ZM456.637 240.78C456.379 240.521 456.077 240.319 455.738 240.174L455.283 241.235C455.491 241.324 455.669 241.445 455.821 241.597L456.637 240.78ZM455.754 240.181C455.403 240.018 455.032 239.936 454.645 239.936V241.091C454.865 241.091 455.07 241.137 455.267 241.228L455.754 240.181ZM454.645 239.936H447.827V241.091H454.645V239.936ZM447.827 239.936C447.092 239.936 446.394 240.066 445.735 240.33L446.164 241.402C446.679 241.196 447.232 241.091 447.827 241.091V239.936ZM445.732 240.331C445.095 240.59 444.52 240.948 444.011 241.403L444.78 242.264C445.19 241.898 445.651 241.611 446.167 241.401L445.732 240.331ZM444.011 241.402C443.509 241.85 443.092 242.382 442.759 242.995L443.774 243.547C444.047 243.045 444.382 242.619 444.78 242.265L444.011 241.402ZM442.757 242.998C442.431 243.606 442.22 244.258 442.123 244.95L443.266 245.111C443.345 244.551 443.515 244.03 443.775 243.543L442.757 242.998ZM442.694 245.608H454.645V244.453H442.694V245.608Z" fill="#89005B"/>
<path d="M265.617 41.8152C267.557 41.8152 269.128 40.2213 269.128 38.2577C269.128 36.2941 267.557 34.7002 265.617 34.7002C263.676 34.7002 262.106 36.2941 262.106 38.2577C262.106 40.2213 263.676 41.8152 265.617 41.8152Z" fill="#89005B"/>
<path d="M311.796 87.2431H259.795V92.0481H311.796V87.2431Z" fill="#89005B"/>
<path d="M248.257 40.5908L259.795 84.24H311.796L322.907 40.5908L321.891 39.8747L303.987 59.8685L287.124 25.1595H284.329L267.742 60.0534L249.469 39.8516L248.257 40.5908Z" fill="#89005B"/>
<mask id="mask0_205_6" style="mask-type:luminance" maskUnits="userSpaceOnUse" x="248" y="25" width="75" height="60">
<path d="M248.257 40.5908L259.795 84.24H311.796L322.907 40.5908L321.891 39.8747L303.987 59.8685L287.124 25.1595H284.329L267.742 60.0534L249.469 39.8516L248.257 40.5908Z" fill="white"/>
</mask>
<g mask="url(#mask0_205_6)">
<path d="M248.869 38.8699L247.656 39.6091L248.857 41.5842L250.07 40.845L248.869 38.8699ZM268.597 59.2795L250.324 39.0778L248.615 40.6255L266.887 60.8273L268.597 59.2795ZM283.289 24.6628L266.703 59.5567L268.793 60.5501L285.38 25.6562L283.289 24.6628ZM287.124 24.0045H284.329V26.3145H287.124V24.0045ZM305.027 59.3604L288.163 24.6513L286.084 25.6562L302.948 60.3653L305.027 59.3604ZM321.024 39.1009L303.121 59.0947L304.842 60.6309L322.745 40.6371L321.024 39.1009ZM323.565 39.6438L322.549 38.9276L321.221 40.8103L322.237 41.5265L323.565 39.6438ZM312.916 84.5288L324.027 40.8796L321.787 40.3137L310.675 83.9629L312.916 84.5288ZM259.795 85.3951H311.796V83.085H259.795V85.3951ZM247.136 40.8912L258.675 84.5404L260.904 83.9513L249.365 40.3021L247.136 40.8912ZM249.469 39.8517L250.324 39.0778L249.677 38.3732L248.857 38.8699L249.469 39.8517ZM267.742 60.0534L266.887 60.8273L268.042 62.1094L268.782 60.5501L267.742 60.0534ZM284.329 25.1595V24.0045H283.601L283.289 24.6628L284.329 25.1595ZM287.124 25.1595L288.163 24.6513L287.851 24.0045H287.124V25.1595ZM303.987 59.8686L302.948 60.3768L303.699 61.9246L304.842 60.6425L303.987 59.8686ZM321.891 39.8748L322.561 38.9276L321.717 38.3386L321.036 39.1009L321.891 39.8748ZM322.907 40.5909L324.027 40.8796L324.224 40.1058L323.577 39.6438L322.907 40.5909ZM311.796 84.2401V85.3951H312.696L312.916 84.5288L311.796 84.2401ZM259.795 84.2401L258.675 84.5404L258.906 85.3951H259.795V84.2401ZM248.257 40.5909L247.656 39.6091L246.917 40.0596L247.136 40.8912L248.257 40.5909Z" fill="#89005B"/>
</g>
<path d="M267.188 57.0619L271.415 48.5839L265.882 41.4341L261.701 50.7554L267.188 57.0619Z" fill="#89005B"/>
<path d="M300.118 48.3759L304.357 57.1657L309.843 50.8707L305.87 41.3878" fill="#89005B"/>
<path d="M246.351 40.949C248.934 40.949 251.029 38.8288 251.029 36.2133C251.029 33.5979 248.934 31.4776 246.351 31.4776C243.767 31.4776 241.673 33.5979 241.673 36.2133C241.673 38.8288 243.767 40.949 246.351 40.949Z" fill="#89005B"/>
<path d="M285.587 25.4714C288.171 25.4714 290.265 23.3511 290.265 20.7357C290.265 18.1202 288.171 16 285.587 16C283.004 16 280.91 18.1202 280.91 20.7357C280.91 23.3511 283.004 25.4714 285.587 25.4714Z" fill="#89005B"/>
<path d="M324.79 40.949C327.373 40.949 329.468 38.8288 329.468 36.2133C329.468 33.5979 327.373 31.4776 324.79 31.4776C322.206 31.4776 320.112 33.5979 320.112 36.2133C320.112 38.8288 322.206 40.949 324.79 40.949Z" fill="#89005B"/>
<path d="M305.939 41.9192C307.891 41.9192 309.474 40.3137 309.474 38.3386C309.474 36.3635 307.891 34.7579 305.939 34.7579C303.987 34.7579 302.405 36.3635 302.405 38.3386C302.405 40.3137 303.987 41.9192 305.939 41.9192Z" fill="#89005B"/>
<path d="M202.542 70.4086C200.232 76.1839 210.05 84.2692 219.29 88.8894C225.39 91.9394 199.184 82.7524 196.767 71.797C194.35 60.8417 210.627 54.3205 218.135 55.3931C222.115 55.9616 216.126 53.4714 203.956 43.2651C199.654 39.6579 196.141 34.6988 199.654 29.9821C203.956 24.2069 212.073 24.3187 221.023 27.672C211.697 25.1404 202.6 28.8331 203.956 35.1798C205.65 43.1132 234.002 50.4884 230.841 57.1256C227.679 63.7628 206.415 60.7272 202.542 70.4086Z" fill="#89005B" stroke="#89005B" stroke-width="2.31009" stroke-linecap="round" stroke-linejoin="round"/>
<path d="M369.786 70.4086C372.096 76.1839 362.278 84.2692 353.038 88.8894C346.938 91.9394 373.145 82.7524 375.561 71.797C377.978 60.8417 361.701 54.3205 354.193 55.3931C350.213 55.9616 356.202 53.4714 368.372 43.2651C372.674 39.6579 376.187 34.6988 372.674 29.9821C368.372 24.2069 360.255 24.3187 351.305 27.672C360.631 25.1404 369.728 28.8331 368.372 35.1798C366.678 43.1132 338.326 50.4884 341.487 57.1256C344.649 63.7628 365.913 60.7272 369.786 70.4086Z" fill="#89005B" stroke="#89005B" stroke-width="2.31009" stroke-linecap="round" stroke-linejoin="round"/>
</g>
<defs>
<filter id="filter0_d_205_6" x="0" y="0" width="573" height="272.249" filterUnits="userSpaceOnUse" color-interpolation-filters="sRGB">
<feFlood flood-opacity="0" result="BackgroundImageFix"/>
<feColorMatrix in="SourceAlpha" type="matrix" values="0 0 0 0 0 0 0 0 0 0 0 0 0 0 0 0 0 0 127 0" result="hardAlpha"/>
<feOffset/>
<feGaussianBlur stdDeviation="8"/>
<feComposite in2="hardAlpha" operator="out"/>
<feColorMatrix type="matrix" values="0 0 0 0 1 0 0 0 0 1 0 0 0 0 1 0 0 0 0.12 0"/>
<feBlend mode="normal" in2="BackgroundImageFix" result="effect1_dropShadow_205_6"/>
<feBlend mode="normal" in="SourceGraphic" in2="effect1_dropShadow_205_6" result="shape"/>
</filter>
</defs>
</svg>
