<svg width="140" height="53" viewBox="0 0 140 53" fill="none" xmlns="http://www.w3.org/2000/svg">
<path d="M56.1939 17.2684C57.4919 17.2684 58.5427 16.2022 58.5427 14.8887C58.5427 13.5752 57.4919 12.509 56.1939 12.509C54.8959 12.509 53.8451 13.5752 53.8451 14.8887C53.8451 16.2022 54.8959 17.2684 56.1939 17.2684Z" fill="#89005B"/>
<path d="M87.0839 47.6562H52.2998V50.8704H87.0839V47.6562Z" fill="#89005B"/>
<path d="M44.5812 16.4494L52.2998 45.6473H87.0839L94.5167 16.4494L93.8368 15.9704L81.8609 29.3447L70.5804 6.12698H68.7106L57.6156 29.4683L45.3924 15.9549L44.5812 16.4494Z" fill="#89005B"/>
<mask id="mask0_205_55" style="mask-type:luminance" maskUnits="userSpaceOnUse" x="44" y="6" width="51" height="40">
<path d="M44.5812 16.4494L52.2998 45.6473H87.0839L94.5167 16.4494L93.8368 15.9704L81.8609 29.3447L70.5804 6.12698H68.7106L57.6156 29.4683L45.3924 15.9549L44.5812 16.4494Z" fill="white"/>
</mask>
<g mask="url(#mask0_205_55)">
<path d="M44.9907 15.2982L44.1794 15.7927L44.983 17.1139L45.7942 16.6194L44.9907 15.2982ZM58.1873 28.9507L45.9642 15.4373L44.8207 16.4726L57.0438 29.986L58.1873 28.9507ZM68.0153 5.79477L56.9202 29.1361L58.3187 29.8006L69.4137 6.45923L68.0153 5.79477ZM70.5804 5.35437H68.7106V6.89964H70.5804V5.35437ZM82.5563 29.0048L71.2758 5.78704L69.885 6.45923L81.1655 29.677L82.5563 29.0048ZM93.2573 15.4527L81.2814 28.8271L82.4327 29.8547L94.4085 16.4803L93.2573 15.4527ZM94.9571 15.8159L94.2772 15.3368L93.3886 16.5962L94.0686 17.0753L94.9571 15.8159ZM87.8334 45.8405L95.2661 16.6426L93.7672 16.264L86.3345 45.4619L87.8334 45.8405ZM52.2998 46.42H87.0839V44.8747H52.2998V46.42ZM43.8317 16.6503L51.5504 45.8483L53.0416 45.4542L45.3229 16.2563L43.8317 16.6503ZM45.3925 15.9549L45.9642 15.4373L45.5315 14.966L44.983 15.2982L45.3925 15.9549ZM57.6156 29.4684L57.0438 29.986L57.8164 30.8436L58.3109 29.8006L57.6156 29.4684ZM68.7106 6.12701V5.35437H68.2239L68.0153 5.79477L68.7106 6.12701ZM70.5804 6.12701L71.2758 5.78704L71.0672 5.35437H70.5804V6.12701ZM81.8609 29.3447L81.1655 29.6847L81.6678 30.72L82.4327 29.8624L81.8609 29.3447ZM93.8368 15.9704L94.2849 15.3368L93.7209 14.9428L93.265 15.4527L93.8368 15.9704ZM94.5167 16.4494L95.2661 16.6426L95.3975 16.1249L94.9648 15.8159L94.5167 16.4494ZM87.0839 45.6474V46.42H87.6866L87.8334 45.8405L87.0839 45.6474ZM52.2998 45.6474L51.5504 45.8483L51.7049 46.42H52.2998V45.6474ZM44.5812 16.4494L44.1794 15.7927L43.6849 16.094L43.8317 16.6503L44.5812 16.4494Z" fill="#89005B"/>
</g>
<path d="M57.2446 27.4672L60.0725 21.7961L56.3715 17.0135L53.5746 23.2486L57.2446 27.4672Z" fill="#89005B"/>
<path d="M79.2725 21.657L82.1081 27.5368L85.7781 23.3259L83.1202 16.9825" fill="#89005B"/>
<path d="M43.3063 16.689C45.0345 16.689 46.4355 15.2707 46.4355 13.5212C46.4355 11.7716 45.0345 10.3534 43.3063 10.3534C41.5781 10.3534 40.1771 11.7716 40.1771 13.5212C40.1771 15.2707 41.5781 16.689 43.3063 16.689Z" fill="#89005B"/>
<path d="M69.5528 6.33562C71.281 6.33562 72.6819 4.91735 72.6819 3.16781C72.6819 1.41828 71.281 0 69.5528 0C67.8246 0 66.4236 1.41828 66.4236 3.16781C66.4236 4.91735 67.8246 6.33562 69.5528 6.33562Z" fill="#89005B"/>
<path d="M95.776 16.689C97.5042 16.689 98.9052 15.2707 98.9052 13.5212C98.9052 11.7716 97.5042 10.3534 95.776 10.3534C94.0478 10.3534 92.6469 11.7716 92.6469 13.5212C92.6469 15.2707 94.0478 16.689 95.776 16.689Z" fill="#89005B"/>
<path d="M83.1665 17.338C84.4723 17.338 85.5308 16.264 85.5308 14.9428C85.5308 13.6216 84.4723 12.5476 83.1665 12.5476C81.8608 12.5476 80.8022 13.6216 80.8022 14.9428C80.8022 16.264 81.8608 17.338 83.1665 17.338Z" fill="#89005B"/>
<path d="M14.0018 36.3952C12.4565 40.2584 19.0239 45.6669 25.205 48.7574C29.2854 50.7976 11.7551 44.6523 10.1386 37.324C8.52203 29.9956 19.4102 25.6335 24.4324 26.351C27.0947 26.7313 23.0886 25.0655 14.9474 18.2383C12.07 15.8254 9.72004 12.5081 12.07 9.35296C14.9473 5.48978 20.3769 5.56459 26.3639 7.80769C20.1254 6.11424 14.0407 8.58435 14.9474 12.8298C16.0807 18.1367 35.046 23.0701 32.9314 27.5099C30.8167 31.9497 16.5922 29.9191 14.0018 36.3952Z" fill="#89005B" stroke="#89005B" stroke-width="1.54527" stroke-linecap="round" stroke-linejoin="round"/>
<path d="M125.875 36.3952C127.42 40.2584 120.853 45.6669 114.672 48.7574C110.591 50.7976 128.122 44.6523 129.738 37.324C131.355 29.9956 120.467 25.6335 115.445 26.351C112.782 26.7313 116.788 25.0655 124.93 18.2383C127.807 15.8254 130.157 12.5081 127.807 9.35296C124.93 5.48978 119.5 5.56459 113.513 7.80769C119.751 6.11424 125.836 8.58435 124.93 12.8298C123.796 18.1367 104.831 23.0701 106.946 27.5099C109.06 31.9497 123.285 29.9191 125.875 36.3952Z" fill="#89005B" stroke="#89005B" stroke-width="1.54527" stroke-linecap="round" stroke-linejoin="round"/>
</svg>
