<svg width="751" height="296" viewBox="0 0 751 296" fill="none" xmlns="http://www.w3.org/2000/svg">
<path d="M49.2314 287.307C47.4146 287.307 45.6661 287.04 43.9859 286.508C42.3058 285.975 40.7007 285.155 39.1708 284.049V277.676H42.3058L42.9819 282.369C43.8698 282.915 44.8329 283.338 45.871 283.639C46.9092 283.94 48.0293 284.09 49.2314 284.09C50.5974 284.09 51.7516 283.885 52.6942 283.475C53.6504 283.052 54.3812 282.471 54.8866 281.733C55.392 280.996 55.6447 280.135 55.6447 279.152C55.6447 278.236 55.4262 277.431 54.989 276.734C54.5519 276.037 53.8279 275.429 52.8171 274.91C51.8199 274.378 50.4539 273.913 48.7191 273.517C46.6701 273.039 44.9353 272.404 43.5147 271.611C42.1077 270.805 41.0354 269.836 40.2977 268.702C39.5738 267.554 39.2118 266.243 39.2118 264.768C39.2118 263.211 39.6216 261.817 40.4412 260.588C41.2744 259.358 42.4287 258.389 43.904 257.678C45.3793 256.968 47.1004 256.613 49.0674 256.613C51.1574 256.613 53.0015 256.934 54.5997 257.576C56.2116 258.204 57.5366 258.969 58.5748 259.871V265.833H55.4398L54.7636 261.571C54.1489 261.08 53.384 260.67 52.4688 260.342C51.5536 260.014 50.4198 259.85 49.0674 259.85C47.92 259.85 46.9092 260.055 46.0349 260.465C45.1607 260.861 44.4777 261.421 43.9859 262.145C43.4942 262.869 43.2483 263.723 43.2483 264.706C43.2483 265.567 43.4669 266.318 43.904 266.96C44.3548 267.602 45.0787 268.169 46.0759 268.661C47.0867 269.139 48.4323 269.59 50.1124 270.013C53.2542 270.792 55.6311 271.946 57.2429 273.476C58.8685 274.992 59.6812 276.87 59.6812 279.111C59.6812 280.709 59.2509 282.13 58.3904 283.373C57.5298 284.602 56.3141 285.565 54.7432 286.262C53.1859 286.958 51.3487 287.307 49.2314 287.307ZM63.185 286.876V284.295L66.5249 283.721V260.219L63.185 259.645V257.043H85.6215V264.215H82.3841L81.9333 260.178H70.5614V270.505H81.4825V273.681H70.5614V283.721L73.9013 284.295V286.876H63.185ZM102.731 287.307C100.682 287.307 98.8512 286.904 97.2393 286.098C95.6274 285.292 94.3571 284.144 93.4282 282.655C92.4993 281.153 92.0349 279.357 92.0349 277.267V260.219L88.695 259.645V257.043H99.4112V259.645L96.0714 260.219V277.267C96.0714 278.756 96.3514 280.005 96.9115 281.016C97.4852 282.027 98.2775 282.792 99.2883 283.311C100.299 283.817 101.467 284.069 102.792 284.069C104.131 284.069 105.312 283.817 106.337 283.311C107.375 282.806 108.181 282.048 108.755 281.037C109.342 280.026 109.636 278.769 109.636 277.267V260.219L106.296 259.645V257.043H117.012V259.645L113.672 260.219V277.267C113.672 279.425 113.215 281.255 112.299 282.758C111.398 284.247 110.127 285.381 108.488 286.159C106.849 286.924 104.93 287.307 102.731 287.307ZM139.858 286.876L132.892 259.953L130.372 259.645V257.043H140.043V259.645L136.949 260.117L140.842 276.529L141.743 280.361L141.866 280.381L143.055 276.549L149.058 257.043H152.603L158.668 276.549L159.836 280.606H159.959L161.025 276.549L164.877 260.117L161.537 259.645V257.043H171.044V259.645L168.688 259.953L162.008 286.876H158.176L151.702 266.223L150.882 263.211H150.759L149.96 266.223L143.465 286.876H139.858ZM182.641 287.307C180.592 287.307 178.823 286.829 177.335 285.872C175.859 284.903 174.719 283.571 173.913 281.877C173.107 280.169 172.704 278.223 172.704 276.037V275.586C172.704 273.401 173.107 271.461 173.913 269.767C174.719 268.06 175.859 266.721 177.335 265.751C178.823 264.781 180.579 264.296 182.6 264.296C184.649 264.296 186.412 264.781 187.887 265.751C189.376 266.721 190.523 268.053 191.329 269.747C192.135 271.441 192.538 273.387 192.538 275.586V276.037C192.538 278.236 192.135 280.19 191.329 281.897C190.523 283.591 189.383 284.916 187.907 285.872C186.432 286.829 184.677 287.307 182.641 287.307ZM182.641 284.151C183.925 284.151 184.998 283.803 185.858 283.106C186.733 282.396 187.388 281.433 187.825 280.217C188.276 278.988 188.502 277.594 188.502 276.037V275.586C188.502 274.029 188.276 272.643 187.825 271.427C187.388 270.198 186.733 269.235 185.858 268.538C184.984 267.828 183.898 267.472 182.6 267.472C181.316 267.472 180.237 267.828 179.363 268.538C178.489 269.235 177.833 270.198 177.396 271.427C176.959 272.643 176.74 274.029 176.74 275.586V276.037C176.74 277.594 176.959 278.988 177.396 280.217C177.833 281.433 178.489 282.396 179.363 283.106C180.251 283.803 181.344 284.151 182.641 284.151ZM195.653 286.876V284.295L198.992 283.721V267.882L195.653 267.309V264.706H202.619L202.885 267.595C203.596 266.544 204.511 265.731 205.631 265.157C206.751 264.583 208.049 264.296 209.524 264.296C211 264.296 212.263 264.638 213.315 265.321C214.38 266.004 215.179 267.028 215.712 268.394C216.409 267.138 217.331 266.141 218.478 265.403C219.626 264.665 220.964 264.296 222.494 264.296C224.762 264.296 226.551 265.075 227.863 266.632C229.174 268.176 229.83 270.505 229.83 273.619V283.721L233.17 284.295V286.876H222.433V284.295L225.773 283.721V273.578C225.773 271.393 225.397 269.849 224.646 268.948C223.895 268.032 222.781 267.575 221.306 267.575C219.899 267.575 218.765 268.073 217.905 269.071C217.058 270.054 216.566 271.297 216.429 272.8V283.721L219.769 284.295V286.876H209.053V284.295L212.393 283.721V273.578C212.393 271.502 212.004 269.986 211.225 269.03C210.46 268.06 209.347 267.575 207.885 267.575C206.656 267.575 205.645 267.828 204.853 268.333C204.06 268.838 203.452 269.549 203.029 270.464V283.721L206.369 284.295V286.876H195.653ZM245.955 287.307C243.906 287.307 242.124 286.842 240.607 285.913C239.091 284.971 237.916 283.666 237.083 282C236.264 280.333 235.854 278.407 235.854 276.222V275.32C235.854 273.216 236.284 271.338 237.145 269.685C238.019 268.019 239.173 266.707 240.607 265.751C242.055 264.781 243.633 264.296 245.341 264.296C247.335 264.296 249.002 264.706 250.34 265.526C251.693 266.345 252.71 267.5 253.393 268.989C254.076 270.464 254.418 272.206 254.418 274.214V276.734H240.034L239.972 276.836C240 278.257 240.245 279.521 240.71 280.627C241.188 281.72 241.871 282.58 242.759 283.209C243.647 283.837 244.712 284.151 245.955 284.151C247.321 284.151 248.517 283.96 249.541 283.578C250.579 283.181 251.474 282.642 252.225 281.959L253.803 284.582C253.011 285.346 251.959 285.995 250.648 286.528C249.35 287.047 247.786 287.307 245.955 287.307ZM240.157 273.578H250.381V273.046C250.381 271.98 250.19 271.031 249.807 270.198C249.439 269.351 248.879 268.688 248.127 268.21C247.39 267.718 246.461 267.472 245.341 267.472C244.439 267.472 243.62 267.739 242.882 268.272C242.144 268.791 241.536 269.501 241.058 270.402C240.58 271.304 240.266 272.329 240.116 273.476L240.157 273.578ZM257.573 286.876V284.295L260.913 283.721V267.882L257.573 267.309V264.706H264.519L264.806 268.005C265.544 266.83 266.466 265.922 267.572 265.28C268.692 264.624 269.963 264.296 271.383 264.296C273.774 264.296 275.625 265 276.936 266.407C278.248 267.8 278.903 269.959 278.903 272.882V283.721L282.243 284.295V286.876H271.527V284.295L274.867 283.721V272.964C274.867 271.01 274.477 269.624 273.699 268.804C272.934 267.985 271.759 267.575 270.174 267.575C269.013 267.575 267.982 267.855 267.08 268.415C266.193 268.975 265.482 269.74 264.95 270.71V283.721L268.289 284.295V286.876H257.573ZM295.418 286.876V284.295L298.758 283.721V267.882L295.418 267.309V264.706H302.794V283.721L306.134 284.295V286.876H295.418ZM298.553 259.235V254.912H302.794V259.235H298.553ZM308.921 286.876V284.295L312.261 283.721V267.882L308.921 267.309V264.706H315.867L316.154 268.005C316.892 266.83 317.814 265.922 318.92 265.28C320.04 264.624 321.311 264.296 322.731 264.296C325.122 264.296 326.973 265 328.284 266.407C329.595 267.8 330.251 269.959 330.251 272.882V283.721L333.591 284.295V286.876H322.875V284.295L326.214 283.721V272.964C326.214 271.01 325.825 269.624 325.047 268.804C324.282 267.985 323.107 267.575 321.522 267.575C320.361 267.575 319.33 267.855 318.428 268.415C317.54 268.975 316.83 269.74 316.297 270.71V283.721L319.637 284.295V286.876H308.921ZM360.535 287.307C357.544 287.307 355.044 286.651 353.036 285.34C351.041 284.028 349.539 282.232 348.528 279.951C347.531 277.67 347.032 275.081 347.032 272.185V271.755C347.032 268.832 347.558 266.236 348.61 263.969C349.662 261.687 351.171 259.891 353.138 258.58C355.105 257.268 357.455 256.613 360.187 256.613C362.113 256.613 363.875 256.913 365.473 257.514C367.071 258.115 368.396 258.88 369.448 259.809V266.243H366.231L365.801 261.53C365.364 261.189 364.859 260.902 364.285 260.67C363.725 260.438 363.096 260.26 362.4 260.137C361.717 260.014 360.972 259.953 360.166 259.953C358.213 259.953 356.56 260.458 355.208 261.469C353.855 262.466 352.831 263.846 352.134 265.608C351.438 267.37 351.089 269.405 351.089 271.714V272.185C351.089 274.685 351.458 276.823 352.196 278.598C352.947 280.361 354.033 281.706 355.454 282.635C356.888 283.564 358.63 284.028 360.679 284.028C361.635 284.028 362.57 283.912 363.486 283.68C364.401 283.448 365.159 283.147 365.76 282.778L366.211 278.619H369.366V285.094C368.246 285.79 366.908 286.337 365.35 286.733C363.793 287.115 362.188 287.307 360.535 287.307ZM383.361 287.307C381.312 287.307 379.543 286.829 378.054 285.872C376.579 284.903 375.438 283.571 374.632 281.877C373.826 280.169 373.423 278.223 373.423 276.037V275.586C373.423 273.401 373.826 271.461 374.632 269.767C375.438 268.06 376.579 266.721 378.054 265.751C379.543 264.781 381.298 264.296 383.32 264.296C385.369 264.296 387.131 264.781 388.606 265.751C390.095 266.721 391.243 268.053 392.049 269.747C392.855 271.441 393.258 273.387 393.258 275.586V276.037C393.258 278.236 392.855 280.19 392.049 281.897C391.243 283.591 390.102 284.916 388.627 285.872C387.152 286.829 385.396 287.307 383.361 287.307ZM383.361 284.151C384.645 284.151 385.717 283.803 386.578 283.106C387.452 282.396 388.108 281.433 388.545 280.217C388.996 278.988 389.221 277.594 389.221 276.037V275.586C389.221 274.029 388.996 272.643 388.545 271.427C388.108 270.198 387.452 269.235 386.578 268.538C385.704 267.828 384.618 267.472 383.32 267.472C382.036 267.472 380.957 267.828 380.083 268.538C379.208 269.235 378.553 270.198 378.116 271.427C377.678 272.643 377.46 274.029 377.46 275.586V276.037C377.46 277.594 377.678 278.988 378.116 280.217C378.553 281.433 379.208 282.396 380.083 283.106C380.97 283.803 382.063 284.151 383.361 284.151ZM396.372 286.876V284.295L399.712 283.721V267.882L396.372 267.309V264.706H403.339L403.605 267.595C404.315 266.544 405.231 265.731 406.351 265.157C407.471 264.583 408.768 264.296 410.244 264.296C411.719 264.296 412.983 264.638 414.034 265.321C415.1 266.004 415.899 267.028 416.432 268.394C417.128 267.138 418.05 266.141 419.198 265.403C420.345 264.665 421.684 264.296 423.214 264.296C425.481 264.296 427.271 265.075 428.582 266.632C429.894 268.176 430.549 270.505 430.549 273.619V283.721L433.889 284.295V286.876H423.152V284.295L426.492 283.721V273.578C426.492 271.393 426.117 269.849 425.365 268.948C424.614 268.032 423.501 267.575 422.025 267.575C420.618 267.575 419.485 268.073 418.624 269.071C417.777 270.054 417.285 271.297 417.149 272.8V283.721L420.489 284.295V286.876H409.772V284.295L413.112 283.721V273.578C413.112 271.502 412.723 269.986 411.944 269.03C411.179 268.06 410.066 267.575 408.605 267.575C407.375 267.575 406.364 267.828 405.572 268.333C404.78 268.838 404.172 269.549 403.748 270.464V283.721L407.088 284.295V286.876H396.372ZM436.286 295.4V292.798L439.421 292.224V267.882L436.082 267.309V264.706H442.884L443.253 267.411C443.991 266.4 444.885 265.628 445.937 265.096C447.003 264.563 448.232 264.296 449.625 264.296C451.456 264.296 453.02 264.795 454.318 265.792C455.615 266.776 456.606 268.162 457.289 269.952C457.972 271.728 458.313 273.811 458.313 276.201V276.631C458.313 278.762 457.965 280.627 457.268 282.225C456.585 283.823 455.602 285.073 454.318 285.975C453.034 286.863 451.49 287.307 449.687 287.307C448.321 287.307 447.119 287.081 446.081 286.631C445.056 286.166 444.182 285.483 443.458 284.582V292.224L446.982 292.798V295.4H436.286ZM448.437 284.151C450.349 284.151 451.797 283.455 452.781 282.061C453.764 280.668 454.256 278.858 454.256 276.631V276.201C454.256 274.507 454.038 273.018 453.6 271.734C453.163 270.437 452.508 269.419 451.633 268.681C450.773 267.944 449.694 267.575 448.396 267.575C447.249 267.575 446.265 267.834 445.445 268.353C444.626 268.873 443.963 269.583 443.458 270.484V281.283C443.963 282.198 444.619 282.908 445.425 283.414C446.245 283.905 447.249 284.151 448.437 284.151ZM471.201 287.307C468.797 287.307 466.919 286.535 465.567 284.991C464.214 283.448 463.538 281.044 463.538 277.779V267.882L460.997 267.309V264.706H463.538H467.575V277.82C467.575 280.183 467.923 281.809 468.62 282.696C469.316 283.584 470.402 284.028 471.878 284.028C473.312 284.028 474.493 283.741 475.422 283.168C476.365 282.58 477.075 281.754 477.553 280.688V267.882L474.582 267.309V264.706H477.553H481.59V283.721L484.131 284.295V286.876H477.963L477.697 283.598C477 284.786 476.098 285.702 474.992 286.344C473.899 286.986 472.636 287.307 471.201 287.307ZM494.806 287.225C493.167 287.225 491.862 286.747 490.892 285.79C489.936 284.821 489.458 283.277 489.458 281.16V267.698H485.954V264.706H489.458V259.358H493.494V264.706H498.31V267.698H493.494V281.16C493.494 282.225 493.706 283.011 494.13 283.516C494.553 284.021 495.12 284.274 495.83 284.274C496.308 284.274 496.841 284.233 497.428 284.151C498.016 284.056 498.473 283.974 498.801 283.905L499.355 286.549C498.767 286.726 498.043 286.883 497.183 287.02C496.336 287.156 495.543 287.225 494.806 287.225ZM501.793 286.876V284.295L505.133 283.721V267.882L501.793 267.309V264.706H509.169V283.721L512.509 284.295V286.876H501.793ZM504.928 259.235V254.912H509.169V259.235H504.928ZM515.296 286.876V284.295L518.636 283.721V267.882L515.296 267.309V264.706H522.242L522.529 268.005C523.266 266.83 524.188 265.922 525.295 265.28C526.415 264.624 527.685 264.296 529.106 264.296C531.496 264.296 533.347 265 534.659 266.407C535.97 267.8 536.626 269.959 536.626 272.882V283.721L539.966 284.295V286.876H529.249V284.295L532.589 283.721V272.964C532.589 271.01 532.2 269.624 531.421 268.804C530.656 267.985 529.482 267.575 527.897 267.575C526.736 267.575 525.705 267.855 524.803 268.415C523.915 268.975 523.205 269.74 522.672 270.71V283.721L526.012 284.295V286.876H515.296ZM552.362 295.831C551.297 295.831 550.142 295.68 548.899 295.38C547.656 295.093 546.563 294.697 545.621 294.191L546.666 291.056C547.417 291.452 548.305 291.78 549.33 292.04C550.354 292.299 551.351 292.429 552.321 292.429C554.124 292.429 555.442 291.924 556.276 290.913C557.123 289.902 557.546 288.461 557.546 286.59V284.479C556.822 285.408 555.955 286.111 554.944 286.59C553.933 287.068 552.772 287.307 551.46 287.307C549.657 287.307 548.1 286.863 546.789 285.975C545.477 285.073 544.467 283.823 543.756 282.225C543.06 280.613 542.711 278.749 542.711 276.631V276.201C542.711 273.824 543.06 271.741 543.756 269.952C544.467 268.162 545.477 266.776 546.789 265.792C548.1 264.795 549.671 264.296 551.501 264.296C552.895 264.296 554.117 264.57 555.169 265.116C556.221 265.662 557.102 266.455 557.812 267.493L558.181 264.706H561.582V286.59C561.582 288.502 561.221 290.148 560.497 291.528C559.786 292.907 558.741 293.966 557.362 294.704C555.996 295.455 554.329 295.831 552.362 295.831ZM552.464 284.028C553.68 284.028 554.698 283.755 555.517 283.209C556.337 282.649 557.013 281.863 557.546 280.852V270.648C557.027 269.706 556.351 268.961 555.517 268.415C554.684 267.855 553.68 267.575 552.505 267.575C551.221 267.575 550.149 267.944 549.289 268.681C548.442 269.419 547.806 270.437 547.383 271.734C546.96 273.018 546.748 274.507 546.748 276.201V276.631C546.748 278.858 547.219 280.647 548.162 282C549.104 283.352 550.538 284.028 552.464 284.028ZM560.968 268.005L559.39 264.706H564.328V267.288L560.968 268.005ZM587.707 287.307C585.89 287.307 584.142 287.04 582.462 286.508C580.782 285.975 579.177 285.155 577.647 284.049V277.676H580.782L581.458 282.369C582.346 282.915 583.309 283.338 584.347 283.639C585.385 283.94 586.505 284.09 587.707 284.09C589.073 284.09 590.227 283.885 591.17 283.475C592.126 283.052 592.857 282.471 593.362 281.733C593.868 280.996 594.121 280.135 594.121 279.152C594.121 278.236 593.902 277.431 593.465 276.734C593.028 276.037 592.304 275.429 591.293 274.91C590.296 274.378 588.93 273.913 587.195 273.517C585.146 273.039 583.411 272.404 581.99 271.611C580.584 270.805 579.511 269.836 578.774 268.702C578.05 267.554 577.688 266.243 577.688 264.768C577.688 263.211 578.097 261.817 578.917 260.588C579.75 259.358 580.905 258.389 582.38 257.678C583.855 256.968 585.576 256.613 587.543 256.613C589.633 256.613 591.477 256.934 593.076 257.576C594.687 258.204 596.012 258.969 597.051 259.871V265.833H593.916L593.239 261.571C592.625 261.08 591.86 260.67 590.945 260.342C590.029 260.014 588.896 259.85 587.543 259.85C586.396 259.85 585.385 260.055 584.511 260.465C583.637 260.861 582.954 261.421 582.462 262.145C581.97 262.869 581.724 263.723 581.724 264.706C581.724 265.567 581.943 266.318 582.38 266.96C582.831 267.602 583.555 268.169 584.552 268.661C585.563 269.139 586.908 269.59 588.588 270.013C591.73 270.792 594.107 271.946 595.719 273.476C597.344 274.992 598.157 276.87 598.157 279.111C598.157 280.709 597.727 282.13 596.866 283.373C596.006 284.602 594.79 285.565 593.219 286.262C591.662 286.958 589.824 287.307 587.707 287.307ZM611.537 287.307C609.529 287.307 607.781 286.842 606.292 285.913C604.803 284.971 603.648 283.666 602.829 282C602.009 280.333 601.599 278.407 601.599 276.222V275.361C601.599 273.257 601.996 271.372 602.788 269.706C603.58 268.039 604.721 266.721 606.21 265.751C607.699 264.781 609.474 264.296 611.537 264.296C613.326 264.296 614.891 264.59 616.229 265.178C617.582 265.765 618.715 266.571 619.631 267.595L619.733 272.923H616.578L615.881 269.05C615.416 268.572 614.836 268.19 614.139 267.903C613.443 267.616 612.623 267.472 611.68 267.472C610.478 267.472 609.42 267.828 608.504 268.538C607.603 269.248 606.899 270.198 606.394 271.386C605.889 272.574 605.636 273.899 605.636 275.361V276.222C605.636 277.834 605.868 279.234 606.333 280.422C606.811 281.61 607.487 282.533 608.361 283.188C609.249 283.83 610.301 284.151 611.517 284.151C612.883 284.151 614.016 283.776 614.918 283.024C615.819 282.273 616.373 281.242 616.578 279.93H620.204L620.245 280.053C620.177 281.324 619.801 282.512 619.118 283.619C618.435 284.725 617.459 285.62 616.188 286.303C614.932 286.972 613.381 287.307 611.537 287.307ZM623.257 286.876V284.295L626.597 283.721V267.882L623.257 267.309V264.706H630.634V283.721L633.973 284.295V286.876H623.257ZM626.392 259.235V254.912H630.634V259.235H626.392ZM646.862 287.307C644.813 287.307 643.03 286.842 641.514 285.913C639.998 284.971 638.823 283.666 637.99 282C637.17 280.333 636.76 278.407 636.76 276.222V275.32C636.76 273.216 637.19 271.338 638.051 269.685C638.925 268.019 640.08 266.707 641.514 265.751C642.962 264.781 644.54 264.296 646.247 264.296C648.241 264.296 649.908 264.706 651.247 265.526C652.599 266.345 653.617 267.5 654.3 268.989C654.983 270.464 655.324 272.206 655.324 274.214V276.734H640.94L640.879 276.836C640.906 278.257 641.152 279.521 641.616 280.627C642.094 281.72 642.777 282.58 643.665 283.209C644.553 283.837 645.619 284.151 646.862 284.151C648.228 284.151 649.423 283.96 650.447 283.578C651.486 283.181 652.38 282.642 653.132 281.959L654.709 284.582C653.917 285.346 652.865 285.995 651.554 286.528C650.256 287.047 648.692 287.307 646.862 287.307ZM641.063 273.578H651.288V273.046C651.288 271.98 651.096 271.031 650.714 270.198C650.345 269.351 649.785 268.688 649.034 268.21C648.296 267.718 647.367 267.472 646.247 267.472C645.345 267.472 644.526 267.739 643.788 268.272C643.051 268.791 642.443 269.501 641.965 270.402C641.487 271.304 641.172 272.329 641.022 273.476L641.063 273.578ZM658.479 286.876V284.295L661.819 283.721V267.882L658.479 267.309V264.706H665.426L665.712 268.005C666.45 266.83 667.372 265.922 668.479 265.28C669.599 264.624 670.869 264.296 672.29 264.296C674.68 264.296 676.531 265 677.842 266.407C679.154 267.8 679.809 269.959 679.809 272.882V283.721L683.149 284.295V286.876H672.433V284.295L675.773 283.721V272.964C675.773 271.01 675.384 269.624 674.605 268.804C673.84 267.985 672.665 267.575 671.081 267.575C669.92 267.575 668.888 267.855 667.987 268.415C667.099 268.975 666.389 269.74 665.856 270.71V283.721L669.196 284.295V286.876H658.479ZM695.833 287.307C693.825 287.307 692.076 286.842 690.587 285.913C689.098 284.971 687.944 283.666 687.124 282C686.305 280.333 685.895 278.407 685.895 276.222V275.361C685.895 273.257 686.291 271.372 687.083 269.706C687.876 268.039 689.016 266.721 690.505 265.751C691.994 264.781 693.77 264.296 695.833 264.296C697.622 264.296 699.186 264.59 700.525 265.178C701.877 265.765 703.011 266.571 703.926 267.595L704.029 272.923H700.873L700.177 269.05C699.712 268.572 699.132 268.19 698.435 267.903C697.738 267.616 696.919 267.472 695.976 267.472C694.774 267.472 693.715 267.828 692.8 268.538C691.899 269.248 691.195 270.198 690.69 271.386C690.184 272.574 689.932 273.899 689.932 275.361V276.222C689.932 277.834 690.164 279.234 690.628 280.422C691.106 281.61 691.782 282.533 692.657 283.188C693.545 283.83 694.596 284.151 695.812 284.151C697.178 284.151 698.312 283.776 699.213 283.024C700.115 282.273 700.668 281.242 700.873 279.93H704.5L704.541 280.053C704.473 281.324 704.097 282.512 703.414 283.619C702.731 284.725 701.754 285.62 700.484 286.303C699.227 286.972 697.677 287.307 695.833 287.307ZM718.331 287.307C716.282 287.307 714.499 286.842 712.983 285.913C711.466 284.971 710.292 283.666 709.458 282C708.639 280.333 708.229 278.407 708.229 276.222V275.32C708.229 273.216 708.659 271.338 709.52 269.685C710.394 268.019 711.548 266.707 712.983 265.751C714.431 264.781 716.008 264.296 717.716 264.296C719.71 264.296 721.377 264.706 722.715 265.526C724.068 266.345 725.085 267.5 725.768 268.989C726.451 270.464 726.793 272.206 726.793 274.214V276.734H712.409L712.348 276.836C712.375 278.257 712.621 279.521 713.085 280.627C713.563 281.72 714.246 282.58 715.134 283.209C716.022 283.837 717.088 284.151 718.331 284.151C719.697 284.151 720.892 283.96 721.916 283.578C722.955 283.181 723.849 282.642 724.601 281.959L726.178 284.582C725.386 285.346 724.334 285.995 723.023 286.528C721.725 287.047 720.161 287.307 718.331 287.307ZM712.532 273.578H722.756V273.046C722.756 271.98 722.565 271.031 722.183 270.198C721.814 269.351 721.254 268.688 720.503 268.21C719.765 267.718 718.836 267.472 717.716 267.472C716.814 267.472 715.995 267.739 715.257 268.272C714.519 268.791 713.912 269.501 713.434 270.402C712.955 271.304 712.641 272.329 712.491 273.476L712.532 273.578Z" fill="white"/>
<path d="M64.368 221.859C49.7177 217.727 39.2747 211.153 33.0389 202.137C26.8782 193.122 23.7979 182.228 23.7979 169.456V146.353C23.7979 137.939 21.8821 131.403 18.0505 126.744C14.2189 122.011 8.32118 119.645 0.357422 119.645V103.079C8.32118 103.079 14.2189 100.787 18.0505 96.2042C21.8821 91.5462 23.7979 84.9723 23.7979 76.4826V53.2675C23.7979 40.4203 26.8782 29.5265 33.0389 20.586C39.2747 11.5705 49.7177 4.99661 64.368 0.864471L68.8758 14.0498C60.6115 16.6793 54.7138 21.4125 51.1827 28.2493C47.7268 35.011 45.9988 43.3504 45.9988 53.2675V76.4826C45.9988 84.3713 44.4211 91.3208 41.2656 97.3311C38.1102 103.342 33.3394 108.037 26.9534 111.418C33.3394 114.874 38.1102 119.645 41.2656 125.73C44.4211 131.741 45.9988 138.615 45.9988 146.353V169.456C45.9988 179.373 47.7268 187.675 51.1827 194.361C54.7138 201.123 60.6115 205.856 68.8758 208.561L64.368 221.859Z" fill="white"/>
<path d="M131.447 200.191L93.2432 55.2654L77.6913 53.575V36.1073H138.321V53.575L120.853 56.167L141.026 140.463L145.195 157.705L145.872 157.818L151.056 140.463L183.737 36.1073H205.938L239.521 142.153L244.479 158.945H245.156L249.551 142.153L270.061 56.167L251.579 53.575V36.1073H311.082V53.575L296.544 55.2654L258.792 200.191H232.647L199.627 96.8498L195.457 81.9741H194.781L190.386 97.0752L157.141 200.191H131.447Z" fill="white"/>
<path d="M326.452 200.191V182.836L343.357 179.455V110.599L325.438 107.218V89.75H371.756V179.455L388.547 182.836V200.191H326.452Z" fill="white"/>
<path d="M475.894 202.557C459.741 202.557 445.917 199.139 434.422 192.302C423.003 185.39 414.25 175.774 408.164 163.452C402.154 151.056 399.149 136.669 399.149 120.29V116.121C399.149 100.118 402.154 85.956 408.164 73.6347C414.175 61.2383 422.777 51.5089 433.971 44.4467C445.166 37.3094 458.539 33.7407 474.091 33.7407C484.985 33.7407 495.09 35.356 504.406 38.5866C513.722 41.8172 521.836 46.3625 528.748 52.2227V90.0881H507.11L504.18 64.7318C501.701 62.9287 498.959 61.3885 495.954 60.1113C492.948 58.8341 489.643 57.8574 486.036 57.1812C482.505 56.5051 478.636 56.167 474.429 56.167C464.587 56.167 456.135 58.6463 449.073 63.6048C442.085 68.5634 436.751 75.5129 433.07 84.4534C429.389 93.3938 427.548 103.874 427.548 115.895V120.29C427.548 132.762 429.501 143.505 433.408 152.521C437.315 161.461 442.912 168.336 450.199 173.144C457.562 177.952 466.352 180.357 476.57 180.357C481.529 180.357 486.412 179.793 491.22 178.666C496.104 177.464 500.386 175.924 504.068 174.046L507.11 151.056H528.522V188.696C522.211 192.828 514.473 196.171 505.307 198.726C496.217 201.28 486.412 202.557 475.894 202.557Z" fill="white"/>
<path d="M609.261 202.557C598.067 202.557 587.661 201.167 578.045 198.388C568.428 195.608 559.075 190.987 549.984 184.526V146.773H571.959L575.565 171.228C579.547 174.083 584.431 176.375 590.216 178.103C596.076 179.831 602.424 180.695 609.261 180.695C615.948 180.695 621.545 179.755 626.053 177.877C630.636 175.924 634.129 173.219 636.533 169.763C638.937 166.307 640.14 162.213 640.14 157.479C640.14 153.122 639.088 149.253 636.984 145.872C634.88 142.491 631.387 139.486 626.504 136.856C621.62 134.152 615.009 131.672 606.669 129.419C594.423 126.113 584.168 122.206 575.904 117.698C567.714 113.191 561.516 107.781 557.309 101.47C553.177 95.1594 551.111 87.7215 551.111 79.1567C551.111 70.3665 553.477 62.5906 558.211 55.8289C563.019 49.0672 569.668 43.733 578.157 39.8262C586.647 35.9195 596.452 33.9285 607.571 33.8534C619.742 33.7032 630.485 35.2809 639.802 38.5866C649.193 41.8923 657.119 46.2123 663.58 51.5465V86.82H642.055L637.998 63.8302C634.918 61.6515 630.899 59.8108 625.94 58.3082C621.057 56.7304 615.272 55.9416 608.585 55.9416C602.875 55.9416 597.841 56.8807 593.484 58.7589C589.126 60.6372 585.708 63.3043 583.229 66.7603C580.749 70.1411 579.51 74.1982 579.51 78.9313C579.51 83.0635 580.599 86.6697 582.778 89.75C584.957 92.8304 588.601 95.6477 593.709 98.2021C598.818 100.681 605.73 103.198 614.445 105.753C632.251 110.486 645.737 117.022 654.903 125.362C664.068 133.701 668.651 144.332 668.651 157.254C668.651 166.345 666.172 174.309 661.214 181.145C656.33 187.907 649.418 193.166 640.478 196.923C631.612 200.679 621.207 202.557 609.261 202.557Z" fill="white"/>
<path d="M686.511 226.491L682.003 213.193C690.117 210.488 695.94 205.755 699.471 198.993C703.002 192.307 704.768 184.005 704.768 174.088V150.985C704.768 142.946 706.458 135.922 709.839 129.911C713.22 123.901 718.441 119.281 725.503 116.05C718.441 112.97 713.22 108.424 709.839 102.414C706.458 96.4035 704.768 89.3037 704.768 81.1146V57.8995C704.768 47.9823 703.002 39.6429 699.471 32.8812C695.94 26.0444 690.117 21.3112 682.003 18.6817L686.511 5.49642C701.086 9.62856 711.454 16.2024 717.615 25.218C723.851 34.1584 726.969 45.0523 726.969 57.8995V81.1146C726.969 89.6043 728.884 96.1781 732.716 100.836C736.548 105.419 742.483 107.711 750.522 107.711V124.277C742.483 124.277 736.548 126.643 732.716 131.376C728.884 136.034 726.969 142.571 726.969 150.985V174.088C726.969 186.86 723.851 197.754 717.615 206.769C711.454 215.785 701.086 222.359 686.511 226.491Z" fill="white"/>
<path d="M352.605 26.8588C353.209 25.1732 355.592 25.1732 356.196 26.8588L361.643 42.0629C361.835 42.6 362.258 43.0228 362.795 43.2153L377.999 48.6619C379.685 49.2657 379.685 51.6495 377.999 52.2533L362.795 57.6999C362.258 57.8924 361.835 58.3152 361.643 58.8524L356.196 74.0565C355.592 75.742 353.209 75.742 352.605 74.0565L347.158 58.8524C346.966 58.3152 346.543 57.8924 346.006 57.6999L330.802 52.2533C329.116 51.6495 329.116 49.2657 330.802 48.6619L346.006 43.2153C346.543 43.0228 346.966 42.6 347.158 42.0629L352.605 26.8588Z" fill="#FFAA46"/>
</svg>
