<svg width="424" height="165" viewBox="0 0 424 165" fill="none" xmlns="http://www.w3.org/2000/svg">
<g clip-path="url(#clip0_214_1304)">
<path d="M27.1689 160.1C26.1685 160.1 25.2058 159.954 24.2807 159.66C23.3556 159.367 22.4718 158.916 21.6294 158.307V154.798H23.3556L23.7279 157.381C24.2167 157.682 24.747 157.915 25.3186 158.081C25.8902 158.246 26.507 158.329 27.1689 158.329C27.921 158.329 28.5566 158.216 29.0755 157.99C29.602 157.757 30.0044 157.438 30.2827 157.032C30.561 156.625 30.7001 156.152 30.7001 155.61C30.7001 155.106 30.5798 154.662 30.3391 154.279C30.0984 153.895 29.6998 153.56 29.1432 153.275C28.5942 152.981 27.842 152.726 26.8868 152.507C25.7586 152.244 24.8034 151.895 24.0212 151.458C23.2465 151.014 22.6561 150.481 22.2499 149.856C21.8513 149.225 21.6519 148.502 21.6519 147.69C21.6519 146.833 21.8776 146.066 22.3289 145.389C22.7877 144.711 23.4232 144.178 24.2355 143.786C25.0478 143.396 25.9955 143.2 27.0786 143.2C28.2294 143.2 29.2448 143.376 30.1248 143.73C31.0123 144.076 31.7418 144.497 32.3134 144.994V148.277H30.5873L30.215 145.93C29.8765 145.659 29.4554 145.434 28.9514 145.253C28.4475 145.073 27.8232 144.982 27.0786 144.982C26.4468 144.982 25.8902 145.095 25.4089 145.321C24.9275 145.539 24.5514 145.848 24.2807 146.246C24.0099 146.645 23.8745 147.115 23.8745 147.656C23.8745 148.13 23.9949 148.544 24.2355 148.897C24.4837 149.251 24.8824 149.563 25.4314 149.834C25.988 150.097 26.7289 150.345 27.654 150.578C29.3839 151.007 30.6926 151.643 31.5801 152.485C32.4752 153.32 32.9227 154.354 32.9227 155.587C32.9227 156.468 32.6858 157.25 32.2119 157.934C31.7381 158.611 31.0687 159.141 30.2037 159.525C29.3463 159.909 28.3347 160.1 27.1689 160.1ZM34.8519 159.863V158.442L36.6909 158.126V145.185L34.8519 144.87V143.437H47.2056V147.386H45.4231L45.1749 145.163H38.9134V150.849H44.9267V152.598H38.9134V158.126L40.7524 158.442V159.863H34.8519ZM56.6261 160.1C55.4979 160.1 54.4902 159.878 53.6025 159.435C52.7153 158.991 52.0158 158.359 51.504 157.539C50.9927 156.712 50.7368 155.723 50.7368 154.572V145.185L48.8979 144.87V143.437H54.7984V144.87L52.9595 145.185V154.572C52.9595 155.392 53.1136 156.08 53.4222 156.637C53.7379 157.193 54.1741 157.615 54.7307 157.9C55.2873 158.179 55.9303 158.318 56.6601 158.318C57.397 158.318 58.0475 158.179 58.6116 157.9C59.1836 157.622 59.6272 157.205 59.9429 156.648C60.2665 156.091 60.4281 155.4 60.4281 154.572V145.185L58.5892 144.87V143.437H64.4897V144.87L62.6508 145.185V154.572C62.6508 155.761 62.3986 156.768 61.8948 157.596C61.3984 158.415 60.6989 159.04 59.7963 159.468C58.8936 159.89 57.8369 160.1 56.6261 160.1ZM77.0691 159.863L73.2335 145.039L71.8457 144.87V143.437H77.1709V144.87L75.467 145.129L77.6108 154.166L78.1072 156.276L78.1749 156.287L78.8291 154.177L82.1347 143.437H84.0866L87.4258 154.177L88.0693 156.411H88.137L88.7235 154.177L90.8444 145.129L89.0056 144.87V143.437H94.2402V144.87L92.943 145.039L89.2652 159.863H87.1555L83.5902 148.491L83.1387 146.833H83.071L82.6311 148.491L79.0546 159.863H77.0691ZM100.626 160.1C99.4977 160.1 98.5236 159.837 97.7041 159.311C96.8916 158.777 96.2635 158.043 95.8199 157.111C95.3763 156.171 95.154 155.099 95.154 153.895V153.647C95.154 152.443 95.3763 151.375 95.8199 150.443C96.2635 149.503 96.8916 148.766 97.7041 148.232C98.5236 147.698 99.4902 147.431 100.603 147.431C101.732 147.431 102.702 147.698 103.514 148.232C104.334 148.766 104.966 149.499 105.409 150.432C105.853 151.364 106.075 152.436 106.075 153.647V153.895C106.075 155.106 105.853 156.182 105.409 157.122C104.966 158.054 104.338 158.784 103.526 159.311C102.713 159.837 101.747 160.1 100.626 160.1ZM100.626 158.363C101.333 158.363 101.924 158.171 102.397 157.788C102.878 157.396 103.239 156.866 103.48 156.197C103.728 155.52 103.853 154.753 103.853 153.895V153.647C103.853 152.789 103.728 152.026 103.48 151.357C103.239 150.68 102.878 150.15 102.397 149.766C101.916 149.375 101.318 149.179 100.603 149.179C99.8965 149.179 99.302 149.375 98.8211 149.766C98.3396 150.15 97.9787 150.68 97.7377 151.357C97.4972 152.026 97.3768 152.789 97.3768 153.647V153.895C97.3768 154.753 97.4972 155.52 97.7377 156.197C97.9787 156.866 98.3396 157.396 98.8211 157.788C99.31 158.171 99.9114 158.363 100.626 158.363ZM107.79 159.863V158.442L109.629 158.126V149.405L107.79 149.089V147.656H111.626L111.773 149.247C112.164 148.668 112.668 148.22 113.284 147.905C113.901 147.588 114.616 147.431 115.428 147.431C116.24 147.431 116.936 147.619 117.515 147.995C118.102 148.371 118.542 148.935 118.835 149.687C119.219 148.995 119.726 148.446 120.358 148.04C120.99 147.634 121.727 147.431 122.569 147.431C123.818 147.431 124.803 147.859 125.526 148.717C126.248 149.567 126.608 150.849 126.608 152.564V158.126L128.447 158.442V159.863H122.536V158.442L124.375 158.126V152.541C124.375 151.338 124.168 150.488 123.754 149.992C123.34 149.488 122.728 149.236 121.915 149.236C121.14 149.236 120.516 149.51 120.043 150.06C119.576 150.601 119.305 151.285 119.23 152.113V158.126L121.069 158.442V159.863H115.168V158.442L117.007 158.126V152.541C117.007 151.398 116.793 150.563 116.364 150.037C115.943 149.503 115.33 149.236 114.525 149.236C113.848 149.236 113.292 149.375 112.856 149.653C112.419 149.932 112.085 150.322 111.852 150.826V158.126L113.69 158.442V159.863H107.79ZM135.487 160.1C134.359 160.1 133.378 159.845 132.543 159.333C131.708 158.814 131.061 158.096 130.602 157.178C130.151 156.261 129.925 155.2 129.925 153.997V153.501C129.925 152.342 130.162 151.308 130.636 150.398C131.117 149.48 131.753 148.758 132.543 148.232C133.34 147.698 134.209 147.431 135.149 147.431C136.247 147.431 137.165 147.656 137.902 148.108C138.646 148.559 139.207 149.194 139.583 150.014C139.959 150.826 140.147 151.785 140.147 152.891V154.279H132.227L132.193 154.335C132.208 155.118 132.344 155.813 132.599 156.422C132.862 157.024 133.238 157.498 133.727 157.844C134.216 158.19 134.803 158.363 135.487 158.363C136.24 158.363 136.897 158.258 137.462 158.047C138.033 157.829 138.526 157.532 138.939 157.156L139.809 158.6C139.372 159.021 138.793 159.378 138.071 159.671C137.357 159.957 136.495 160.1 135.487 160.1ZM132.295 152.541H137.924V152.248C137.924 151.661 137.819 151.139 137.608 150.68C137.406 150.214 137.097 149.849 136.683 149.586C136.277 149.315 135.766 149.179 135.149 149.179C134.652 149.179 134.201 149.326 133.795 149.619C133.389 149.905 133.054 150.296 132.791 150.793C132.528 151.289 132.355 151.853 132.272 152.485L132.295 152.541ZM141.884 159.863V158.442L143.723 158.126V149.405L141.884 149.089V147.656H145.709L145.867 149.473C146.273 148.826 146.781 148.326 147.39 147.972C148.006 147.611 148.706 147.431 149.488 147.431C150.804 147.431 151.824 147.818 152.546 148.593C153.268 149.36 153.629 150.548 153.629 152.158V158.126L155.468 158.442V159.863H149.568V158.442L151.406 158.126V152.203C151.406 151.127 151.192 150.364 150.763 149.912C150.342 149.461 149.695 149.236 148.823 149.236C148.183 149.236 147.616 149.39 147.119 149.698C146.63 150.007 146.239 150.428 145.946 150.962V158.126L147.785 158.442V159.863H141.884ZM162.722 159.863V158.442L164.561 158.126V149.405L162.722 149.089V147.656H166.784V158.126L168.623 158.442V159.863H162.722ZM164.448 144.644V142.264H166.784V144.644H164.448ZM170.157 159.863V158.442L171.996 158.126V149.405L170.157 149.089V147.656H173.982L174.139 149.473C174.546 148.826 175.053 148.326 175.663 147.972C176.28 147.611 176.979 147.431 177.761 147.431C179.077 147.431 180.096 147.818 180.818 148.593C181.54 149.36 181.902 150.548 181.902 152.158V158.126L183.741 158.442V159.863H177.84V158.442L179.679 158.126V152.203C179.679 151.127 179.465 150.364 179.036 149.912C178.615 149.461 177.968 149.236 177.095 149.236C176.456 149.236 175.888 149.39 175.392 149.698C174.903 150.007 174.512 150.428 174.218 150.962V158.126L176.057 158.442V159.863H170.157ZM198.576 160.1C196.929 160.1 195.553 159.739 194.447 159.017C193.349 158.295 192.522 157.306 191.965 156.05C191.416 154.794 191.141 153.369 191.141 151.774V151.537C191.141 149.928 191.431 148.499 192.01 147.25C192.589 145.994 193.421 145.005 194.504 144.283C195.586 143.561 196.88 143.2 198.384 143.2C199.445 143.2 200.415 143.365 201.296 143.696C202.175 144.027 202.905 144.449 203.484 144.96V148.502H201.713L201.476 145.908C201.235 145.72 200.957 145.562 200.641 145.434C200.333 145.306 199.987 145.208 199.603 145.141C199.227 145.073 198.817 145.039 198.373 145.039C197.298 145.039 196.388 145.317 195.643 145.874C194.899 146.423 194.335 147.183 193.951 148.152C193.567 149.123 193.375 150.244 193.375 151.515V151.774C193.375 153.151 193.579 154.328 193.985 155.305C194.398 156.276 194.996 157.017 195.778 157.528C196.568 158.039 197.527 158.295 198.655 158.295C199.182 158.295 199.697 158.231 200.201 158.103C200.705 157.975 201.122 157.81 201.453 157.607L201.701 155.317H203.439V158.882C202.822 159.266 202.085 159.566 201.228 159.784C200.37 159.995 199.487 160.1 198.576 160.1ZM211.145 160.1C210.016 160.1 209.042 159.837 208.222 159.311C207.41 158.777 206.782 158.043 206.338 157.111C205.895 156.171 205.673 155.099 205.673 153.895V153.647C205.673 152.443 205.895 151.375 206.338 150.443C206.782 149.503 207.41 148.766 208.222 148.232C209.042 147.698 210.009 147.431 211.122 147.431C212.25 147.431 213.22 147.698 214.033 148.232C214.852 148.766 215.484 149.499 215.928 150.432C216.372 151.364 216.594 152.436 216.594 153.647V153.895C216.594 155.106 216.372 156.182 215.928 157.122C215.484 158.054 214.857 158.784 214.044 159.311C213.231 159.837 212.265 160.1 211.145 160.1ZM211.145 158.363C211.852 158.363 212.442 158.171 212.916 157.788C213.397 157.396 213.758 156.866 213.999 156.197C214.247 155.52 214.371 154.753 214.371 153.895V153.647C214.371 152.789 214.247 152.026 213.999 151.357C213.758 150.68 213.397 150.15 212.916 149.766C212.434 149.375 211.837 149.179 211.122 149.179C210.415 149.179 209.821 149.375 209.339 149.766C208.858 150.15 208.497 150.68 208.256 151.357C208.016 152.026 207.895 152.789 207.895 153.647V153.895C207.895 154.753 208.016 155.52 208.256 156.197C208.497 156.866 208.858 157.396 209.339 157.788C209.828 158.171 210.43 158.363 211.145 158.363ZM218.309 159.863V158.442L220.148 158.126V149.405L218.309 149.089V147.656H222.144L222.291 149.247C222.682 148.668 223.186 148.22 223.803 147.905C224.42 147.588 225.134 147.431 225.946 147.431C226.759 147.431 227.455 147.619 228.034 147.995C228.62 148.371 229.061 148.935 229.354 149.687C229.737 148.995 230.245 148.446 230.877 148.04C231.508 147.634 232.246 147.431 233.088 147.431C234.337 147.431 235.322 147.859 236.044 148.717C236.766 149.567 237.127 150.849 237.127 152.564V158.126L238.966 158.442V159.863H233.054V158.442L234.893 158.126V152.541C234.893 151.338 234.686 150.488 234.273 149.992C233.859 149.488 233.246 149.236 232.434 149.236C231.659 149.236 231.035 149.51 230.561 150.06C230.094 150.601 229.824 151.285 229.748 152.113V158.126L231.588 158.442V159.863H225.687V158.442L227.526 158.126V152.541C227.526 151.398 227.312 150.563 226.883 150.037C226.462 149.503 225.849 149.236 225.044 149.236C224.367 149.236 223.81 149.375 223.374 149.653C222.938 149.932 222.603 150.322 222.37 150.826V158.126L224.209 158.442V159.863H218.309ZM240.286 164.557V163.124L242.012 162.808V149.405L240.173 149.089V147.656H243.919L244.122 149.146C244.528 148.589 245.021 148.164 245.6 147.87C246.186 147.577 246.863 147.431 247.631 147.431C248.638 147.431 249.499 147.705 250.214 148.254C250.929 148.796 251.474 149.559 251.85 150.544C252.226 151.522 252.414 152.669 252.414 153.985V154.223C252.414 155.396 252.222 156.422 251.839 157.303C251.462 158.182 250.921 158.871 250.214 159.367C249.507 159.856 248.657 160.1 247.664 160.1C246.912 160.1 246.25 159.976 245.679 159.728C245.115 159.472 244.633 159.096 244.234 158.6V162.808L246.175 163.124V164.557H240.286ZM246.976 158.363C248.029 158.363 248.826 157.979 249.368 157.212C249.909 156.445 250.18 155.448 250.18 154.223V153.985C250.18 153.053 250.06 152.233 249.819 151.526C249.579 150.811 249.217 150.251 248.736 149.845C248.262 149.439 247.668 149.236 246.953 149.236C246.322 149.236 245.78 149.379 245.329 149.665C244.878 149.95 244.513 150.342 244.234 150.838V156.783C244.513 157.287 244.874 157.678 245.318 157.957C245.769 158.228 246.322 158.363 246.976 158.363ZM259.511 160.1C258.187 160.1 257.152 159.675 256.408 158.825C255.663 157.975 255.291 156.652 255.291 154.854V149.405L253.892 149.089V147.656H255.291H257.513V154.877C257.513 156.178 257.705 157.073 258.089 157.562C258.472 158.051 259.071 158.295 259.883 158.295C260.672 158.295 261.323 158.138 261.835 157.821C262.353 157.498 262.745 157.043 263.008 156.456V149.405L261.372 149.089V147.656H263.008H265.23V158.126L266.629 158.442V159.863H263.234L263.087 158.058C262.703 158.713 262.207 159.217 261.598 159.57C260.996 159.924 260.3 160.1 259.511 160.1ZM272.507 160.055C271.605 160.055 270.887 159.792 270.352 159.266C269.826 158.731 269.563 157.882 269.563 156.716V149.304H267.633V147.656H269.563V144.711H271.785V147.656H274.436V149.304H271.785V156.716C271.785 157.303 271.902 157.735 272.135 158.013C272.368 158.292 272.68 158.431 273.072 158.431C273.334 158.431 273.628 158.408 273.951 158.363C274.275 158.31 274.527 158.265 274.707 158.228L275.012 159.683C274.689 159.781 274.29 159.867 273.816 159.942C273.35 160.017 272.913 160.055 272.507 160.055ZM276.354 159.863V158.442L278.194 158.126V149.405L276.354 149.089V147.656H280.416V158.126L282.255 158.442V159.863H276.354ZM278.081 144.644V142.264H280.416V144.644H278.081ZM283.789 159.863V158.442L285.628 158.126V149.405L283.789 149.089V147.656H287.614L287.772 149.473C288.178 148.826 288.686 148.326 289.295 147.972C289.911 147.611 290.611 147.431 291.393 147.431C292.71 147.431 293.729 147.818 294.451 148.593C295.173 149.36 295.534 150.548 295.534 152.158V158.126L297.373 158.442V159.863H291.473V158.442L293.311 158.126V152.203C293.311 151.127 293.097 150.364 292.668 149.912C292.247 149.461 291.6 149.236 290.728 149.236C290.088 149.236 289.521 149.39 289.024 149.698C288.535 150.007 288.144 150.428 287.851 150.962V158.126L289.69 158.442V159.863H283.789ZM304.199 164.794C303.612 164.794 302.976 164.711 302.292 164.546C301.607 164.387 301.006 164.169 300.487 163.891L301.062 162.165C301.476 162.383 301.965 162.563 302.529 162.707C303.093 162.85 303.642 162.921 304.176 162.921C305.168 162.921 305.895 162.643 306.353 162.086C306.82 161.53 307.053 160.736 307.053 159.706V158.543C306.654 159.055 306.177 159.442 305.62 159.706C305.063 159.969 304.424 160.1 303.702 160.1C302.709 160.1 301.852 159.856 301.13 159.367C300.408 158.871 299.851 158.182 299.46 157.303C299.077 156.415 298.885 155.388 298.885 154.223V153.985C298.885 152.677 299.077 151.53 299.46 150.544C299.851 149.559 300.408 148.796 301.13 148.254C301.852 147.705 302.717 147.431 303.725 147.431C304.492 147.431 305.165 147.581 305.744 147.882C306.323 148.183 306.808 148.619 307.199 149.191L307.402 147.656H309.275V159.706C309.275 160.759 309.076 161.665 308.677 162.424C308.286 163.184 307.711 163.767 306.951 164.173C306.199 164.587 305.281 164.794 304.199 164.794ZM304.255 158.295C304.924 158.295 305.485 158.145 305.936 157.844C306.387 157.536 306.759 157.103 307.053 156.547V150.928C306.767 150.409 306.395 149.999 305.936 149.698C305.477 149.39 304.924 149.236 304.278 149.236C303.571 149.236 302.98 149.439 302.506 149.845C302.04 150.251 301.69 150.811 301.457 151.526C301.224 152.233 301.107 153.053 301.107 153.985V154.223C301.107 155.448 301.366 156.434 301.886 157.178C302.405 157.923 303.194 158.295 304.255 158.295ZM308.937 149.473L308.068 147.656H310.787V149.078L308.937 149.473ZM323.66 160.1C322.659 160.1 321.697 159.954 320.771 159.66C319.846 159.367 318.963 158.916 318.121 158.307V154.798H319.846L320.219 157.381C320.708 157.682 321.238 157.915 321.81 158.081C322.381 158.246 322.998 158.329 323.66 158.329C324.412 158.329 325.047 158.216 325.567 157.99C326.093 157.757 326.495 157.438 326.774 157.032C327.052 156.625 327.191 156.152 327.191 155.61C327.191 155.106 327.071 154.662 326.83 154.279C326.589 153.895 326.191 153.56 325.634 153.275C325.085 152.981 324.333 152.726 323.378 152.507C322.25 152.244 321.294 151.895 320.512 151.458C319.738 151.014 319.147 150.481 318.741 149.856C318.342 149.225 318.143 148.502 318.143 147.69C318.143 146.833 318.369 146.066 318.82 145.389C319.279 144.711 319.914 144.178 320.727 143.786C321.539 143.396 322.487 143.2 323.57 143.2C324.721 143.2 325.736 143.376 326.616 143.73C327.503 144.076 328.233 144.497 328.805 144.994V148.277H327.078L326.706 145.93C326.368 145.659 325.946 145.434 325.442 145.253C324.939 145.073 324.314 144.982 323.57 144.982C322.938 144.982 322.381 145.095 321.9 145.321C321.419 145.539 321.042 145.848 320.771 146.246C320.501 146.645 320.366 147.115 320.366 147.656C320.366 148.13 320.486 148.544 320.727 148.897C320.975 149.251 321.373 149.563 321.923 149.834C322.479 150.097 323.22 150.345 324.145 150.578C325.875 151.007 327.184 151.643 328.071 152.485C328.966 153.32 329.414 154.354 329.414 155.587C329.414 156.468 329.177 157.25 328.703 157.934C328.229 158.611 327.56 159.141 326.695 159.525C325.838 159.909 324.826 160.1 323.66 160.1ZM336.781 160.1C335.675 160.1 334.713 159.845 333.893 159.333C333.073 158.814 332.437 158.096 331.986 157.178C331.535 156.261 331.309 155.2 331.309 153.997V153.523C331.309 152.364 331.527 151.327 331.964 150.409C332.4 149.491 333.028 148.766 333.848 148.232C334.667 147.698 335.645 147.431 336.781 147.431C337.766 147.431 338.628 147.592 339.364 147.916C340.109 148.239 340.733 148.683 341.237 149.247L341.293 152.18H339.556L339.173 150.048C338.917 149.785 338.597 149.574 338.214 149.416C337.83 149.258 337.379 149.179 336.86 149.179C336.198 149.179 335.615 149.375 335.111 149.766C334.615 150.157 334.227 150.68 333.949 151.334C333.671 151.989 333.532 152.718 333.532 153.523V153.997C333.532 154.884 333.66 155.655 333.915 156.309C334.178 156.964 334.551 157.472 335.032 157.833C335.521 158.186 336.1 158.363 336.77 158.363C337.522 158.363 338.146 158.156 338.643 157.742C339.139 157.329 339.443 156.761 339.556 156.039H341.553L341.576 156.107C341.538 156.806 341.331 157.46 340.955 158.07C340.579 158.679 340.042 159.171 339.342 159.548C338.65 159.916 337.796 160.1 336.781 160.1ZM343.234 159.863V158.442L345.073 158.126V149.405L343.234 149.089V147.656H347.296V158.126L349.135 158.442V159.863H343.234ZM344.961 144.644V142.264H347.296V144.644H344.961ZM356.231 160.1C355.103 160.1 354.121 159.845 353.286 159.333C352.451 158.814 351.805 158.096 351.346 157.178C350.895 156.261 350.669 155.2 350.669 153.997V153.501C350.669 152.342 350.906 151.308 351.38 150.398C351.861 149.48 352.497 148.758 353.286 148.232C354.084 147.698 354.953 147.431 355.893 147.431C356.991 147.431 357.908 147.656 358.645 148.108C359.39 148.559 359.95 149.194 360.326 150.014C360.703 150.826 360.89 151.785 360.89 152.891V154.279H352.971L352.937 154.335C352.952 155.118 353.087 155.813 353.343 156.422C353.606 157.024 353.982 157.498 354.471 157.844C354.96 158.19 355.546 158.363 356.231 158.363C356.983 158.363 357.641 158.258 358.205 158.047C358.777 157.829 359.27 157.532 359.683 157.156L360.552 158.6C360.116 159.021 359.537 159.378 358.815 159.671C358.1 159.957 357.239 160.1 356.231 160.1ZM353.038 152.541H358.668V152.248C358.668 151.661 358.563 151.139 358.352 150.68C358.149 150.214 357.841 149.849 357.427 149.586C357.021 149.315 356.509 149.179 355.893 149.179C355.396 149.179 354.945 149.326 354.539 149.619C354.133 149.905 353.798 150.296 353.535 150.793C353.271 151.289 353.098 151.853 353.016 152.485L353.038 152.541ZM362.628 159.863V158.442L364.467 158.126V149.405L362.628 149.089V147.656H366.452L366.611 149.473C367.016 148.826 367.525 148.326 368.133 147.972C368.75 147.611 369.45 147.431 370.232 147.431C371.548 147.431 372.567 147.818 373.29 148.593C374.012 149.36 374.372 150.548 374.372 152.158V158.126L376.211 158.442V159.863H370.311V158.442L372.15 158.126V152.203C372.15 151.127 371.935 150.364 371.507 149.912C371.086 149.461 370.439 149.236 369.566 149.236C368.927 149.236 368.359 149.39 367.863 149.698C367.374 150.007 366.983 150.428 366.69 150.962V158.126L368.528 158.442V159.863H362.628ZM383.195 160.1C382.089 160.1 381.127 159.845 380.307 159.333C379.487 158.814 378.852 158.096 378.4 157.178C377.949 156.261 377.723 155.2 377.723 153.997V153.523C377.723 152.364 377.941 151.327 378.378 150.409C378.814 149.491 379.442 148.766 380.262 148.232C381.082 147.698 382.059 147.431 383.195 147.431C384.181 147.431 385.042 147.592 385.778 147.916C386.523 148.239 387.148 148.683 387.651 149.247L387.708 152.18H385.97L385.587 150.048C385.331 149.785 385.011 149.574 384.628 149.416C384.244 149.258 383.793 149.179 383.274 149.179C382.612 149.179 382.029 149.375 381.525 149.766C381.029 150.157 380.641 150.68 380.363 151.334C380.085 151.989 379.946 152.718 379.946 153.523V153.997C379.946 154.884 380.074 155.655 380.329 156.309C380.593 156.964 380.965 157.472 381.446 157.833C381.935 158.186 382.514 158.363 383.184 158.363C383.936 158.363 384.56 158.156 385.057 157.742C385.553 157.329 385.857 156.761 385.97 156.039H387.968L387.99 156.107C387.952 156.806 387.745 157.46 387.369 158.07C386.993 158.679 386.456 159.171 385.756 159.548C385.064 159.916 384.21 160.1 383.195 160.1ZM395.583 160.1C394.455 160.1 393.473 159.845 392.638 159.333C391.803 158.814 391.156 158.096 390.697 157.178C390.246 156.261 390.021 155.2 390.021 153.997V153.501C390.021 152.342 390.258 151.308 390.731 150.398C391.213 149.48 391.848 148.758 392.638 148.232C393.435 147.698 394.304 147.431 395.244 147.431C396.342 147.431 397.26 147.656 397.997 148.108C398.742 148.559 399.302 149.194 399.678 150.014C400.054 150.826 400.242 151.785 400.242 152.891V154.279H392.322L392.288 154.335C392.303 155.118 392.439 155.813 392.695 156.422C392.957 157.024 393.334 157.498 393.823 157.844C394.312 158.19 394.898 158.363 395.583 158.363C396.335 158.363 396.993 158.258 397.557 158.047C398.129 157.829 398.621 157.532 399.035 157.156L399.904 158.6C399.467 159.021 398.888 159.378 398.166 159.671C397.452 159.957 396.59 160.1 395.583 160.1ZM392.39 152.541H398.019V152.248C398.019 151.661 397.914 151.139 397.704 150.68C397.501 150.214 397.192 149.849 396.779 149.586C396.372 149.315 395.861 149.179 395.244 149.179C394.748 149.179 394.296 149.326 393.89 149.619C393.484 149.905 393.149 150.296 392.886 150.793C392.623 151.289 392.45 151.853 392.367 152.485L392.39 152.541Z" fill="white"/>
<path d="M74.4239 114.753L53.3887 34.955L44.8257 34.0243V24.4064H78.2091V34.0243L68.5911 35.4514L79.6982 81.8656L81.9942 91.3594L82.3664 91.4215L85.2209 81.8656L103.216 24.4064H115.44L133.931 82.7963L136.661 92.0421H137.033L139.453 82.7963L150.747 35.4514L140.57 34.0243V24.4064H173.333V34.0243L165.329 34.955L144.542 114.753H130.146L111.965 57.8517L109.669 49.6612H109.296L106.877 57.9759L88.5718 114.753H74.4239Z" fill="white"/>
<path d="M177.961 114.753V105.197L187.269 103.335V65.4221L177.403 63.5608V53.9428H202.905V103.335L212.151 105.197V114.753H177.961Z" fill="white"/>
<path d="M261.454 116.056C252.56 116.056 244.948 114.174 238.619 110.409C232.331 106.603 227.512 101.308 224.161 94.524C220.852 87.6984 219.197 79.7764 219.197 70.7585V68.4625C219.197 59.6514 220.852 51.8536 224.161 45.0694C227.47 38.2438 232.207 32.8867 238.371 28.9981C244.535 25.0683 251.898 23.1033 260.461 23.1033C266.459 23.1033 272.023 23.9927 277.153 25.7715C282.282 27.5503 286.75 30.053 290.556 33.2797V54.1286H278.642L277.028 40.1674C275.664 39.1745 274.154 38.3265 272.499 37.6232C270.844 36.92 269.024 36.3822 267.038 36.0099C265.094 35.6376 262.964 35.4514 260.647 35.4514C255.228 35.4514 250.574 36.8166 246.686 39.5468C242.839 42.2771 239.901 46.1036 237.874 51.0262C235.848 55.9489 234.834 61.7196 234.834 68.3387V70.7585C234.834 77.6256 235.909 83.5411 238.061 88.5049C240.212 93.4276 243.294 97.2128 247.306 99.8604C251.36 102.508 256.2 103.831 261.826 103.831C264.556 103.831 267.245 103.521 269.893 102.901C272.582 102.239 274.94 101.391 276.967 100.357L278.642 87.6984H290.432V108.424C286.957 110.699 282.696 112.539 277.649 113.946C272.644 115.352 267.245 116.056 261.454 116.056Z" fill="white"/>
<path d="M336.464 116.056C330.3 116.056 324.571 115.291 319.276 113.76C313.981 112.229 308.831 109.685 303.825 106.127V85.3403H315.925L317.911 98.8056C320.103 100.377 322.792 101.639 325.977 102.591C329.204 103.542 332.7 104.018 336.464 104.018C340.146 104.018 343.228 103.501 345.71 102.467C348.233 101.391 350.157 99.902 351.48 97.9986C352.804 96.0958 353.466 93.8413 353.466 91.2352C353.466 88.8359 352.887 86.7057 351.729 84.8439C350.57 82.9826 348.647 81.3277 345.958 79.8801C343.269 78.391 339.628 77.0256 335.037 75.7844C328.294 73.9647 322.647 71.8134 318.097 69.3315C313.588 66.8491 310.175 63.8708 307.858 60.3962C305.583 56.9211 304.446 52.8258 304.446 48.11C304.446 43.2699 305.749 38.9884 308.355 35.2653C311.002 31.5422 314.663 28.6052 319.338 26.4541C324.012 24.303 329.411 23.2067 335.533 23.1653C342.235 23.0827 348.15 23.9513 353.28 25.7715C358.451 27.5917 362.815 29.9703 366.373 32.9074V52.3295H354.521L352.287 39.671C350.591 38.4713 348.378 37.4578 345.648 36.6304C342.959 35.7617 339.773 35.3274 336.092 35.3274C332.948 35.3274 330.176 35.8444 327.777 36.8787C325.378 37.9128 323.495 39.3814 322.13 41.2843C320.765 43.1458 320.082 45.3796 320.082 47.9858C320.082 50.2608 320.682 52.2468 321.882 53.9428C323.082 55.6388 325.088 57.19 327.901 58.5965C330.714 59.9615 334.52 61.3474 339.318 62.7539C349.122 65.36 356.548 68.9588 361.595 73.5509C366.642 78.1426 369.165 83.9959 369.165 91.111C369.165 96.1168 367.8 100.502 365.069 104.266C362.381 107.989 358.575 110.885 353.652 112.953C348.771 115.022 343.041 116.056 336.464 116.056Z" fill="white"/>
<path d="M193.045 19.314C193.378 18.3859 194.69 18.3859 195.022 19.314L198.021 27.6856C198.127 27.9814 198.36 28.2142 198.656 28.3201L207.027 31.3191C207.956 31.6516 207.956 32.9641 207.027 33.2966L198.656 36.2956C198.36 36.4015 198.127 36.6343 198.021 36.9301L195.022 45.3016C194.69 46.2297 193.378 46.2297 193.045 45.3016L190.046 36.9301C189.94 36.6343 189.707 36.4015 189.411 36.2956L181.04 33.2966C180.112 32.9641 180.112 31.6516 181.04 31.3191L189.411 28.3201C189.707 28.2142 189.94 27.9814 190.046 27.6856L193.045 19.314Z" fill="white"/>
<path d="M387.9 130.657C386.836 131 385.706 130.404 385.347 129.344L383.989 125.338C383.615 124.236 384.216 123.05 385.282 122.581C389.084 120.91 391.885 118.352 393.684 114.906C395.781 110.936 396.83 106.006 396.83 100.116V86.3975C396.83 81.6237 397.834 77.4519 399.841 73.8829C401.135 71.5822 402.883 69.6247 405.086 68.01C406.55 66.936 406.528 64.4088 405.054 63.3483C402.867 61.7746 401.129 59.8433 399.841 57.5538C397.834 53.9843 396.83 49.7682 396.83 44.9052V31.1191C396.83 25.2299 395.781 20.2776 393.684 16.2622C391.889 12.787 389.097 10.227 385.308 8.58236C384.232 8.11521 383.622 6.92044 384.002 5.81029L385.344 1.88459C385.705 0.827943 386.833 0.234401 387.896 0.577302C395.554 3.04828 401.075 6.75967 404.459 11.7115C408.162 17.0207 410.013 23.4899 410.013 31.1191V44.9052C410.013 49.9465 411.151 53.8503 413.426 56.6166C415.354 58.9229 418.18 60.2519 421.902 60.604C423.057 60.7132 424 61.6392 424 62.7996V68.4363C424 69.5962 423.057 70.5222 421.903 70.6348C418.18 70.998 415.354 72.3709 413.426 74.7529C411.151 77.5187 410.013 81.4005 410.013 86.3975V100.116C410.013 107.701 408.162 114.17 404.459 119.524C401.076 124.475 395.556 128.186 387.9 130.657Z" fill="white"/>
<path d="M38.6524 129.347C38.2936 130.406 37.1657 131.002 36.1014 130.661C28.3982 128.189 22.8336 124.477 19.4076 119.524C15.7492 114.17 13.92 107.701 13.92 100.116V86.3974C13.92 81.4005 12.7822 77.5187 10.5069 74.7529C8.58189 72.3746 5.77878 71.0027 2.09751 70.6366C0.943134 70.5217 0 69.5962 0 68.4363V62.7996C0 61.6392 0.94298 60.7132 2.09771 60.6021C5.77887 60.2477 8.58194 58.9192 10.5069 56.6166C12.7822 53.8503 13.92 49.9465 13.92 44.9052V31.119C13.92 23.4898 15.7492 17.0207 19.4076 11.7115C22.8344 6.75711 28.4006 3.04448 36.1063 0.5735C37.1687 0.232845 38.2947 0.826401 38.6556 1.88202L39.9949 5.79942C40.3758 6.91378 39.76 8.11265 38.6764 8.57368C34.8117 10.218 31.9803 12.7809 30.1822 16.2622C28.1299 20.2776 27.1037 25.2299 27.1037 31.119V44.9052C27.1037 49.5898 26.1668 53.7168 24.293 57.2857C23.0083 59.7331 21.2728 61.8129 19.0864 63.5257C17.766 64.5605 17.7558 66.7599 19.0685 67.8045C21.2633 69.5509 23.0048 71.6663 24.293 74.1505C26.1668 77.7195 27.1037 81.8021 27.1037 86.3974V100.116C27.1037 106.006 28.1299 110.936 30.1822 114.906C31.9844 118.357 34.8246 120.918 38.7029 122.59C39.7761 123.052 40.3828 124.242 40.0076 125.349L38.6524 129.347Z" fill="white"/>
</g>
<defs>
<clipPath id="clip0_214_1304">
<rect width="424" height="164.837" fill="white"/>
</clipPath>
</defs>
</svg>
