<svg width="112" height="77" viewBox="0 0 112 77" fill="none" xmlns="http://www.w3.org/2000/svg">
<path d="M17.289 68.1305C13.7725 67.1388 11.2658 65.5607 9.76902 63.3968C8.29026 61.2327 7.5509 58.6179 7.5509 55.5521V50.0067C7.5509 47.9871 7.09104 46.4181 6.17132 45.3C5.25162 44.1639 3.83599 43.5959 1.92443 43.5959V39.6196C3.83599 39.6196 5.25162 39.0695 6.17132 37.9695C7.09104 36.8514 7.5509 35.2734 7.5509 33.2356V27.6632C7.5509 24.5796 8.29026 21.9646 9.76902 19.8186C11.2658 17.6546 13.7725 16.0767 17.289 15.0848L18.371 18.2497C16.3873 18.8809 14.9717 20.017 14.1241 21.6581C13.2946 23.2812 12.8798 25.2827 12.8798 27.6632V33.2356C12.8798 35.129 12.5011 36.7971 11.7437 38.2399C10.9863 39.6826 9.84116 40.8097 8.30829 41.6211C9.84116 42.4508 10.9863 43.5959 11.7437 45.0566C12.5011 46.4994 12.8798 48.1492 12.8798 50.0067V55.5521C12.8798 57.9325 13.2946 59.9253 14.1241 61.5304C14.9717 63.1532 16.3873 64.2893 18.371 64.9386L17.289 68.1305ZM94.4257 68.1305L93.3436 64.9386C95.2913 64.2893 96.6888 63.1532 97.5365 61.5304C98.3842 59.9253 98.8079 57.9325 98.8079 55.5521V50.0067C98.8079 48.0772 99.2136 46.3911 100.025 44.9483C100.837 43.5056 102.09 42.3968 103.785 41.6211C102.09 40.8818 100.837 39.7909 100.025 38.3482C99.2136 36.9054 98.8079 35.2013 98.8079 33.2356V27.6632C98.8079 25.2827 98.3842 23.2812 97.5365 21.6581C96.6888 20.017 95.2913 18.8809 93.3436 18.2497L94.4257 15.0848C97.9242 16.0767 100.413 17.6546 101.892 19.8186C103.389 21.9646 104.137 24.5796 104.137 27.6632V33.2356C104.137 35.2734 104.597 36.8514 105.516 37.9695C106.436 39.0695 107.861 39.6196 109.79 39.6196V43.5959C107.861 43.5959 106.436 44.1639 105.516 45.3C104.597 46.4181 104.137 47.9871 104.137 50.0067V55.5521C104.137 58.6179 103.389 61.2327 101.892 63.3968C100.413 65.5607 97.9242 67.1388 94.4257 68.1305Z" fill="#89005B"/>
<path d="M86.747 23.8714C86.883 23.4918 87.4198 23.4918 87.5558 23.8714L88.7819 27.2945C88.8254 27.4154 88.9206 27.5106 89.0415 27.5539L92.4646 28.7802C92.844 28.9162 92.844 29.4527 92.4646 29.5887L89.0415 30.8151C88.9206 30.8583 88.8254 30.9536 88.7819 31.0745L87.5558 34.4976C87.4198 34.8772 86.883 34.8772 86.747 34.4976L85.5209 31.0745C85.4774 30.9536 85.3822 30.8583 85.2613 30.8151L81.8382 29.5887C81.4588 29.4527 81.4588 28.9162 81.8382 28.7802L85.2613 27.5539C85.3822 27.5106 85.4774 27.4154 85.5209 27.2945L86.747 23.8714Z" fill="#FFAA46"/>
<path d="M34.9519 62.4744L26.1372 29.0361L22.5489 28.6462V24.6158H36.5379V28.6462L32.5078 29.2442L37.162 48.6934L38.124 52.6718L38.2801 52.6979L39.4763 48.6934L47.0166 24.6158H52.1392L59.8876 49.0836L61.0317 52.9579H61.1878L62.2018 49.0836L66.9342 29.2442L62.6699 28.6462V24.6158H76.3989V28.6462L73.0447 29.0361L64.334 62.4744H58.3016L50.6829 38.6307L49.7209 35.1986H49.5648L48.5508 38.6828L40.8803 62.4744H34.9519Z" fill="#89005B"/>
</svg>
