<?xml version="1.0" standalone="no"?>
<!DOCTYPE svg PUBLIC "-//W3C//DTD SVG 20010904//EN"
 "http://www.w3.org/TR/2001/REC-SVG-20010904/DTD/svg10.dtd">
<svg version="1.0" xmlns="http://www.w3.org/2000/svg"
 width="1064.000000pt" height="1064.000000pt" viewBox="0 0 1064.000000 1064.000000"
 preserveAspectRatio="xMidYMid meet">
<metadata>
Created by potrace 1.14, written by Peter Selinger 2001-2017
</metadata>
<g transform="translate(0.000000,1064.000000) scale(0.100000,-0.100000)"
fill="#000000" stroke="none">
<path d="M5182 9899 c-179 -50 -326 -192 -386 -371 -82 -244 12 -517 228 -660
33 -22 66 -41 71 -43 6 -1 24 -8 42 -16 l31 -14 -28 -60 c-16 -33 -61 -127
-101 -210 -39 -82 -82 -172 -95 -198 -13 -27 -24 -55 -24 -63 0 -8 -5 -14 -11
-14 -5 0 -8 -4 -5 -9 3 -5 -1 -14 -9 -21 -8 -7 -15 -16 -15 -21 0 -4 -23 -57
-51 -116 -28 -59 -64 -137 -80 -173 -16 -36 -34 -72 -39 -80 -6 -8 -15 -26
-21 -40 -5 -14 -25 -56 -44 -95 -18 -38 -60 -126 -93 -195 -118 -248 -132
-278 -132 -289 0 -6 -4 -11 -10 -11 -5 0 -10 -5 -10 -10 0 -6 -16 -46 -36 -88
-20 -42 -40 -86 -45 -97 -5 -11 -13 -27 -18 -35 -5 -8 -26 -51 -47 -95 -20
-44 -50 -108 -66 -142 -16 -35 -28 -66 -27 -69 0 -4 -3 -10 -8 -13 -9 -7 -41
-62 -42 -74 0 -4 -20 -49 -45 -100 -24 -50 -64 -135 -89 -187 -25 -52 -70
-149 -102 -215 -31 -66 -75 -158 -97 -205 -23 -47 -71 -148 -108 -225 -36 -77
-73 -155 -81 -172 -7 -18 -16 -33 -19 -33 -3 0 -6 -10 -7 -21 -1 -12 -9 -29
-17 -38 -9 -10 -16 -21 -16 -24 0 -4 -25 -59 -55 -123 -30 -64 -55 -120 -55
-125 0 -5 -4 -9 -10 -9 -5 0 -9 -3 -8 -7 1 -5 -9 -30 -22 -58 -13 -27 -23 -53
-22 -57 1 -3 -5 -12 -13 -18 -8 -7 -15 -17 -15 -23 0 -5 -20 -52 -45 -103 -25
-50 -45 -97 -45 -103 0 -6 -4 -11 -10 -11 -5 0 -10 -6 -10 -14 0 -8 -11 -36
-24 -61 l-23 -47 -41 44 c-22 23 -49 53 -60 66 -11 12 -55 61 -98 109 -44 47
-87 95 -97 107 -18 20 -145 160 -196 215 -13 14 -49 55 -80 90 -31 35 -69 78
-86 96 -16 18 -64 69 -105 115 -41 46 -86 95 -100 110 -14 14 -45 49 -69 76
-24 27 -78 87 -120 133 -106 117 -98 108 -181 201 -41 46 -93 104 -115 127
-22 24 -65 71 -95 104 -30 34 -64 71 -75 83 -23 24 -185 203 -230 255 -17 18
-39 43 -50 55 -134 149 -184 204 -204 225 -13 14 -51 57 -85 95 -111 124 -125
138 -138 130 -7 -5 8 12 33 36 109 106 164 235 168 395 6 224 -114 422 -315
525 -33 16 -75 32 -94 35 -19 3 -39 10 -45 14 -10 8 -194 7 -225 -1 -119 -31
-209 -84 -293 -171 -55 -58 -127 -180 -127 -217 0 -9 -3 -20 -7 -24 -10 -10
-15 -43 -17 -108 0 -32 -5 -58 -9 -58 -4 0 -4 -8 1 -17 5 -10 10 -36 11 -58 2
-22 6 -44 9 -50 4 -5 8 -20 10 -32 3 -23 44 -106 77 -156 65 -100 184 -183
318 -224 52 -16 197 -21 247 -10 83 20 117 32 135 46 18 15 19 15 6 -1 -9 -12
-11 -27 -5 -45 4 -16 9 -35 10 -43 5 -24 12 -55 14 -55 1 0 3 -7 5 -15 17 -68
21 -85 50 -190 15 -52 29 -106 31 -120 3 -14 7 -32 11 -40 3 -8 7 -22 8 -30 2
-8 6 -24 9 -35 14 -47 38 -142 43 -165 2 -14 7 -32 10 -40 3 -8 8 -24 10 -35
2 -11 6 -27 10 -35 3 -8 7 -21 9 -28 1 -7 14 -58 29 -114 32 -121 36 -139 37
-155 1 -7 5 -13 10 -13 5 0 7 -3 4 -8 -2 -4 11 -64 30 -132 19 -69 36 -134 39
-145 4 -20 20 -81 31 -120 3 -11 9 -36 14 -55 4 -19 13 -50 19 -69 6 -19 8
-38 5 -42 -3 -5 -1 -9 4 -9 5 0 9 -6 9 -12 1 -13 52 -210 72 -277 6 -18 10
-36 9 -40 -1 -3 2 -13 5 -21 6 -16 74 -267 83 -310 9 -37 10 -44 17 -60 4 -8
9 -26 11 -40 5 -22 13 -54 31 -123 3 -9 7 -25 9 -35 3 -9 14 -53 26 -97 37
-139 64 -240 85 -325 3 -8 12 -42 21 -75 9 -33 17 -67 19 -75 2 -8 13 -49 25
-90 11 -41 23 -83 25 -93 2 -10 7 -27 10 -37 3 -10 7 -27 9 -37 2 -10 16 -62
31 -116 14 -53 28 -105 30 -115 2 -9 8 -32 14 -49 5 -18 7 -33 4 -33 -3 0 -1
-6 5 -12 5 -7 13 -26 16 -43 4 -27 29 -124 57 -225 5 -19 12 -46 15 -60 3 -14
8 -34 11 -45 4 -11 8 -25 9 -31 1 -6 16 -63 33 -125 28 -104 107 -399 117
-438 2 -9 12 -48 22 -88 9 -39 21 -75 25 -79 4 -4 7 -17 7 -28 0 -12 9 -50 20
-86 11 -36 23 -78 26 -95 3 -16 12 -54 20 -82 14 -49 18 -53 47 -54 246 -4
6250 1 6255 5 3 4 7 12 8 19 2 7 6 23 9 37 4 14 8 34 10 45 2 11 4 20 5 20 2
0 99 373 104 400 2 11 23 92 46 180 23 88 42 168 42 178 -1 9 4 17 9 17 6 0 8
4 5 8 -2 4 4 39 15 77 11 39 21 81 24 95 3 14 13 55 24 93 11 37 17 67 14 67
-3 0 0 7 7 15 6 8 10 18 7 22 -3 4 0 19 6 33 5 14 11 32 12 40 1 8 12 53 25
100 12 47 24 94 25 105 2 11 4 20 5 20 1 0 3 7 5 15 6 22 11 44 41 160 15 58
28 112 29 120 1 8 5 22 8 30 6 14 35 127 42 160 2 8 13 53 25 100 12 47 23 90
24 95 1 6 5 16 9 23 5 6 6 12 4 12 -3 0 13 69 35 153 22 83 41 161 43 172 2
11 4 20 5 20 1 0 4 9 13 50 23 95 30 123 38 145 4 14 11 36 14 50 2 14 14 61
25 105 12 44 23 87 24 95 2 8 12 44 21 80 9 36 19 76 22 89 2 14 6 28 9 33 3
5 8 21 10 36 3 15 23 95 44 177 22 83 41 161 44 175 2 14 5 25 6 25 1 0 3 7 5
15 2 8 6 24 9 35 17 71 36 145 45 173 5 18 10 35 10 37 1 3 1 6 2 8 0 1 2 9 4
17 1 8 26 107 55 220 50 198 55 217 64 260 3 11 16 61 30 112 14 51 28 107 31
125 3 18 10 44 15 58 5 14 12 36 14 48 2 12 18 78 36 147 18 69 33 132 35 140
2 8 4 15 5 15 1 0 3 7 5 15 19 86 43 176 44 163 1 -7 4 -12 9 -11 4 1 19 -4
33 -10 59 -24 184 -33 274 -19 38 6 118 29 125 37 3 3 23 14 46 24 42 18 74
42 133 99 38 36 119 156 124 184 2 10 7 25 11 33 32 75 39 257 12 335 -41 116
-88 205 -109 205 -6 0 -8 2 -5 5 7 7 -35 51 -92 96 -42 34 -141 87 -172 93 -7
1 -38 8 -68 14 -141 30 -332 -16 -440 -104 -39 -33 -110 -104 -110 -110 0 -4
-10 -21 -23 -38 -21 -29 -43 -71 -45 -89 -1 -4 -9 -21 -17 -37 -8 -16 -15 -33
-15 -37 0 -5 -3 -23 -6 -41 -10 -54 -11 -154 -1 -197 5 -22 11 -51 13 -65 14
-74 109 -227 165 -268 23 -16 16 -35 -30 -83 -20 -20 -49 -52 -65 -70 -16 -19
-66 -74 -110 -124 -45 -49 -85 -95 -91 -101 -5 -6 -37 -41 -70 -79 -33 -37
-76 -84 -95 -105 -19 -21 -48 -53 -64 -71 -49 -57 -269 -302 -296 -331 -14
-15 -36 -39 -49 -55 -13 -15 -59 -67 -103 -115 -44 -48 -89 -97 -100 -110 -11
-13 -36 -41 -56 -64 -20 -22 -64 -71 -97 -108 -33 -38 -69 -78 -80 -90 -11
-12 -49 -55 -85 -95 -36 -41 -76 -86 -90 -101 -14 -15 -54 -60 -90 -100 -36
-41 -72 -81 -80 -90 -8 -9 -49 -54 -90 -100 -41 -46 -82 -91 -90 -100 -8 -9
-46 -51 -85 -95 -130 -146 -178 -200 -200 -222 l-22 -23 -38 83 c-21 45 -42
85 -47 88 -5 3 -9 9 -8 13 1 7 -37 88 -161 341 -46 94 -83 172 -84 175 -1 3
-56 117 -123 254 -67 136 -122 252 -122 257 0 5 -4 9 -10 9 -5 0 -9 3 -8 8 2
8 -15 46 -156 334 -58 120 -106 222 -106 228 0 5 -4 10 -10 10 -5 0 -9 3 -8 8
1 4 -33 79 -76 167 -250 511 -406 835 -403 838 1 1 -8 16 -19 32 -12 17 -27
47 -33 67 -7 20 -18 42 -26 48 -7 6 -17 25 -20 41 -4 16 -11 31 -16 34 -5 4
-9 15 -9 26 0 10 -4 19 -10 19 -5 0 -10 4 -10 9 0 6 -54 120 -120 256 -66 135
-120 250 -120 255 0 6 -5 10 -10 10 -6 0 -9 3 -8 8 2 7 -36 87 -188 397 -44
88 -80 163 -82 167 -2 3 7 10 20 14 28 8 130 73 140 88 4 6 8 8 8 4 0 -4 19
14 43 40 23 26 44 49 47 52 19 19 87 156 94 188 1 9 6 25 10 34 16 35 9 249
-9 278 -3 5 -8 20 -10 31 -5 26 -52 118 -71 140 -8 8 -14 19 -14 23 0 28 -190
176 -225 176 -8 0 -15 4 -15 8 0 5 -6 9 -12 10 -7 0 -22 3 -33 6 -70 19 -103
24 -172 23 -43 0 -106 -8 -141 -18z"/>
<path d="M2782 7635 c-186 -67 -290 -219 -286 -415 2 -77 8 -120 17 -120 4 0
6 -3 5 -7 -11 -34 132 -223 168 -223 8 0 14 -3 14 -8 0 -15 101 -52 155 -57
22 -2 42 -4 45 -6 3 -1 8 -1 13 0 14 2 7 -24 -22 -81 -16 -32 -28 -58 -26 -58
2 0 -10 -26 -26 -57 -16 -31 -29 -60 -29 -64 0 -4 -17 -45 -39 -91 -40 -86
-81 -179 -83 -188 -1 -3 -17 -35 -35 -72 -18 -37 -33 -69 -33 -72 0 -2 -17
-40 -37 -83 -20 -43 -38 -82 -39 -88 -1 -5 -18 -45 -38 -87 -20 -42 -36 -81
-36 -87 0 -6 -5 -11 -11 -11 -5 0 -8 -4 -4 -9 3 -5 1 -12 -5 -16 -12 -8 -4
-20 70 -106 82 -94 141 -162 156 -179 8 -8 24 -27 36 -41 13 -15 34 -40 48
-55 14 -16 54 -63 89 -104 36 -41 70 -80 75 -86 6 -7 34 -38 62 -70 29 -33 67
-77 87 -98 l34 -39 93 189 c51 104 100 197 108 207 8 9 12 17 9 17 -9 0 84
184 97 192 6 4 8 8 4 8 -4 0 26 66 67 147 41 81 75 151 75 156 0 4 6 14 13 21
7 8 19 32 26 54 l14 40 -96 124 c-53 68 -100 128 -104 133 -5 6 -31 39 -58 75
-28 35 -55 71 -62 80 -7 8 -47 60 -89 115 -43 55 -81 104 -86 110 -4 5 -32 42
-61 80 -28 39 -59 75 -67 82 -13 10 -13 12 0 16 102 32 161 62 215 114 53 49
114 149 107 176 -1 4 2 7 6 7 10 0 11 3 16 101 10 169 -59 305 -199 393 -71
45 -118 59 -210 61 -63 2 -94 -2 -143 -20z"/>
<path d="M7798 7655 c-2 -1 -30 -5 -62 -8 -140 -13 -285 -127 -340 -267 -37
-94 -40 -163 -12 -295 6 -31 52 -109 88 -149 53 -62 108 -98 192 -128 68 -24
68 -25 49 -44 -10 -10 -48 -55 -84 -99 -35 -43 -74 -91 -85 -105 -12 -14 -59
-70 -103 -125 -45 -55 -90 -109 -99 -120 -46 -55 -80 -95 -112 -135 -19 -24
-41 -49 -48 -57 -7 -7 -10 -13 -5 -13 4 0 -2 -6 -13 -14 -11 -8 -33 -33 -48
-55 l-28 -40 65 -133 c80 -165 232 -480 405 -838 19 -41 37 -77 40 -80 2 -3
15 9 29 25 14 17 45 51 69 78 24 26 44 49 44 52 0 2 12 17 28 33 15 16 52 57
82 93 94 109 114 131 143 160 15 16 27 31 27 34 0 3 8 13 18 23 9 10 44 49 77
87 33 38 70 80 83 93 12 12 22 27 22 32 0 6 4 10 10 10 5 0 14 9 20 20 10 19
-18 101 -82 240 -11 25 -25 54 -30 65 -5 12 -10 27 -12 35 -1 8 -7 24 -13 35
-6 11 -27 61 -48 110 -20 50 -45 109 -56 132 -10 23 -19 49 -19 57 0 9 -5 16
-11 16 -6 0 -9 6 -6 14 3 8 2 16 -2 18 -4 2 -25 46 -46 98 -21 52 -41 102 -46
110 -26 52 -66 156 -62 163 2 4 15 7 28 7 69 0 206 75 267 145 67 77 106 192
102 300 -3 61 -9 110 -14 110 -1 0 -3 7 -5 15 -5 28 -60 118 -93 155 -38 41
-120 95 -173 113 -37 13 -126 31 -131 27z"/>
<path d="M2212 1018 c0 -214 2 -288 11 -289 33 -3 6254 -4 6263 -1 8 2 11 88
12 291 l0 287 -3142 0 -3143 0 -1 -288z"/>
</g>
</svg>
